# Blender v2.77 (sub 0) OBJ File: ''
# www.blender.org
mtllib LeftLeg.mtl
o LeftLeg_LeftLeg_Cube.001
v 0.000000 -0.000000 0.500000
v 0.000000 2.000000 -0.500000
v 0.000000 2.000000 0.500000
v 0.000000 0.000000 -0.500000
v -1.000000 2.000000 -0.500000
v -1.000000 0.000000 -0.500000
v -1.000000 2.000000 0.500000
v -1.000000 -0.000000 0.500000
vt 0.035314 0.154145
vt 0.137867 0.368612
vt 0.035314 0.368612
vt 0.148240 0.151784
vt 0.250929 0.371791
vt 0.148240 0.371791
vt 0.261581 0.152626
vt 0.364376 0.371996
vt 0.261581 0.371996
vt 0.373747 0.150068
vt 0.478815 0.369319
vt 0.373747 0.369319
vt 0.373154 0.142606
vt 0.478619 0.033540
vt 0.478619 0.142606
vt 0.478020 0.379984
vt 0.374126 0.488062
vt 0.374126 0.379984
vt 0.137867 0.154145
vt 0.250929 0.151784
vt 0.364376 0.152626
vt 0.478815 0.150068
vt 0.373154 0.033540
vt 0.478020 0.488062
vn 1.000000 0.000000 0.000000
vn 0.000000 0.000000 -1.000000
vn -1.000000 0.000000 0.000000
vn 0.000000 -0.000000 1.000000
vn 0.000000 -1.000000 -0.000000
vn 0.000000 1.000000 0.000000
usemtl LeftLeg
s 1
f 1/1/1 2/2/1 3/3/1
f 4/4/2 5/5/2 2/6/2
f 6/7/3 7/8/3 5/9/3
f 8/10/4 3/11/4 7/12/4
f 8/13/5 4/14/5 1/15/5
f 3/16/6 5/17/6 7/18/6
f 1/1/1 4/19/1 2/2/1
f 4/4/2 6/20/2 5/5/2
f 6/7/3 8/21/3 7/8/3
f 8/10/4 1/22/4 3/11/4
f 8/13/5 6/23/5 4/14/5
f 3/16/6 2/24/6 5/17/6
