# Blender v2.77 (sub 0) OBJ File: ''
# www.blender.org
mtllib LeftArmUp.mtl
o LeftArmUp_Cube.006
v -1.000003 2.999997 -0.501786
v -1.000003 3.999997 -0.501785
v -1.000003 3.999997 1.498215
v -1.000003 2.999997 1.498214
v -2.000003 3.999997 -0.501785
v -2.000003 3.999997 1.498215
v -2.000003 2.999997 -0.501786
v -2.000003 2.999997 1.498214
vt 0.260607 0.370601
vt 0.365669 0.151069
vt 0.365669 0.370601
vt 0.147413 0.371039
vt 0.252526 0.151667
vt 0.252526 0.371039
vt 0.035719 0.369908
vt 0.139241 0.152679
vt 0.139241 0.369908
vt 0.374261 0.371266
vt 0.479567 0.151598
vt 0.479567 0.371266
vt 0.374206 0.034161
vt 0.479501 0.142950
vt 0.374206 0.142950
vt 0.478522 0.488780
vt 0.374827 0.380219
vt 0.478522 0.380219
vt 0.260607 0.151069
vt 0.147413 0.151667
vt 0.035719 0.152679
vt 0.374261 0.151598
vt 0.479501 0.034161
vt 0.374827 0.488780
vn 1.000000 0.000000 0.000000
vn 0.000000 1.000000 0.000000
vn -1.000000 -0.000000 0.000000
vn 0.000000 -1.000000 -0.000000
vn 0.000000 -0.000000 1.000000
vn 0.000000 0.000000 -1.000000
usemtl None
s 1
f 2/1/1 4/2/1 1/3/1
f 5/4/2 3/5/2 2/6/2
f 7/7/3 6/8/3 5/9/3
f 1/10/4 8/11/4 7/12/4
f 3/13/5 8/14/5 4/15/5
f 5/16/6 1/17/6 7/18/6
f 2/1/1 3/19/1 4/2/1
f 5/4/2 6/20/2 3/5/2
f 7/7/3 8/21/3 6/8/3
f 1/10/4 4/22/4 8/11/4
f 3/13/5 6/23/5 8/14/5
f 5/16/6 2/24/6 1/17/6
