# Blender v2.77 (sub 0) OBJ File: ''
# www.blender.org
mtllib RightLeg.mtl
o RightLeg_Cube.009
v 0.000000 2.000000 -0.500000
v 0.000000 -0.000000 0.500000
v 0.000000 2.000000 0.500000
v 1.000000 2.000000 -0.500000
v 0.000000 0.000000 -0.500000
v 1.000000 2.000000 0.500000
v 1.000000 0.000000 -0.500000
v 1.000000 -0.000000 0.500000
vt 0.868368 0.369911
vt 0.971732 0.151664
vt 0.971732 0.369911
vt 0.755029 0.369683
vt 0.858762 0.151734
vt 0.858762 0.369683
vt 0.642656 0.370057
vt 0.747180 0.151164
vt 0.747180 0.370057
vt 0.529065 0.370711
vt 0.634091 0.152615
vt 0.634091 0.370711
vt 0.528927 0.033531
vt 0.634105 0.142301
vt 0.528927 0.142301
vt 0.634167 0.488540
vt 0.529388 0.379541
vt 0.634167 0.379541
vt 0.868368 0.151664
vt 0.755029 0.151734
vt 0.642656 0.151164
vt 0.529065 0.152615
vt 0.634105 0.033531
vt 0.529388 0.488540
vn -1.000000 0.000000 0.000000
vn 0.000000 0.000000 -1.000000
vn 1.000000 -0.000000 0.000000
vn 0.000000 -0.000000 1.000000
vn 0.000000 -1.000000 -0.000000
vn 0.000000 1.000000 0.000000
usemtl RightLeg
s 1
f 1/1/1 2/2/1 3/3/1
f 4/4/2 5/5/2 1/6/2
f 6/7/3 7/8/3 4/9/3
f 3/10/4 8/11/4 6/12/4
f 5/13/5 8/14/5 2/15/5
f 4/16/6 3/17/6 6/18/6
f 1/1/1 5/19/1 2/2/1
f 4/4/2 7/20/2 5/5/2
f 6/7/3 8/21/3 7/8/3
f 3/10/4 2/22/4 8/11/4
f 5/13/5 7/23/5 8/14/5
f 4/16/6 1/24/6 3/17/6
