# Blender v2.77 (sub 0) OBJ File: ''
# www.blender.org
mtllib Torso.mtl
o Torso_Cube.012
v -1.000000 4.000000 -0.499999
v -1.000000 2.000000 0.500000
v -1.000000 4.000000 0.500001
v 1.000000 4.000000 -0.499999
v -1.000000 2.000000 -0.500000
v 1.000000 4.000000 0.500001
v 1.000000 2.000000 -0.500000
v 1.000000 2.000000 0.500000
vt 0.197518 0.853977
vt 0.301046 0.636522
vt 0.301046 0.853977
vt 0.646160 0.855242
vt 0.858389 0.635550
vt 0.858389 0.855242
vt 0.532837 0.852881
vt 0.635980 0.637187
vt 0.635980 0.852881
vt 0.309941 0.853351
vt 0.522549 0.635761
vt 0.522549 0.853351
vt 0.311618 0.519641
vt 0.521619 0.624957
vt 0.311618 0.624957
vt 0.520585 0.968874
vt 0.313751 0.867478
vt 0.520585 0.867478
vt 0.197518 0.636522
vt 0.646160 0.635550
vt 0.532837 0.637187
vt 0.309941 0.635761
vt 0.521619 0.519641
vt 0.313751 0.968874
vn -1.000000 0.000000 0.000000
vn 0.000000 0.000000 -1.000000
vn 1.000000 0.000000 0.000000
vn 0.000000 -0.000000 1.000000
vn 0.000000 -1.000000 -0.000000
vn 0.000000 1.000000 0.000000
usemtl Torso
s 1
f 1/1/1 2/2/1 3/3/1
f 4/4/2 5/5/2 1/6/2
f 6/7/3 7/8/3 4/9/3
f 3/10/4 8/11/4 6/12/4
f 5/13/5 8/14/5 2/15/5
f 4/16/6 3/17/6 6/18/6
f 1/1/1 5/19/1 2/2/1
f 4/4/2 7/20/2 5/5/2
f 6/7/3 8/21/3 7/8/3
f 3/10/4 2/22/4 8/11/4
f 5/13/5 7/23/5 8/14/5
f 4/16/6 1/24/6 3/17/6
