# Blender v2.79 (sub 0) OBJ File: 'Paper Bag.blend'
# www.blender.org
mtllib Paper Bag.mtl
o Sphere
v 3.517599 3.368636 1.441237
v 3.517599 1.015247 1.455013
v 3.498614 3.309541 3.468770
v 3.517599 0.927878 3.441237
v 1.517599 3.239115 1.441237
v 1.517599 1.077699 1.441237
v 1.518635 3.245344 3.446690
v 1.517599 0.979533 3.441237
v 2.524798 3.453616 3.405349
v 3.503779 2.145976 3.510254
v 3.527650 2.146079 1.473982
v 2.517599 3.336723 1.441237
v 2.517599 0.979533 1.441237
v 1.517599 2.145028 1.441237
v 1.518406 3.291280 2.337456
v 1.517599 2.145028 3.441237
v 1.517599 0.956065 2.441237
v 3.471773 1.089743 2.441237
v 3.517599 3.310523 2.441237
v 2.517599 0.956221 3.441237
v 2.517599 2.145028 1.370035
v 3.517599 2.145028 2.441237
v 2.472323 2.120809 3.461678
v 2.517599 3.310523 2.441237
v 1.501739 2.120721 2.454670
v 2.016562 3.289495 3.435784
v 3.517599 1.562280 3.441237
v 3.511884 1.562280 1.384542
v 3.017599 3.310523 1.441237
v 2.017599 1.023775 1.441237
v 1.517599 1.562280 1.441237
v 1.517599 3.310523 1.941237
v 1.517599 2.727775 3.441237
v 1.517599 1.016500 2.941237
v 3.461082 1.018940 1.990872
v 3.510399 3.219283 2.977125
v 3.017599 0.959904 3.441237
v 3.011706 3.418697 3.437059
v 3.531418 2.726827 3.472277
v 3.507548 2.726724 1.428797
v 2.017599 3.310523 1.441237
v 3.017599 1.052868 1.441237
v 1.517599 2.727775 1.441237
v 1.516792 3.302414 2.941104
v 1.517599 1.562280 3.441237
v 1.517599 0.942282 1.941237
v 3.468684 0.972731 2.941237
v 3.517599 3.332068 1.941237
v 2.017599 0.969626 3.441237
v 3.017599 2.145028 1.353370
v 2.017599 2.145028 1.397096
v 2.517599 1.562280 1.399333
v 2.517599 2.727775 1.397096
v 3.517599 2.145028 2.941237
v 3.517599 2.145028 1.941237
v 3.517599 1.562280 2.441237
v 3.517599 2.727775 2.441237
v 1.976850 2.120809 3.532487
v 3.017599 2.145028 3.441237
v 2.517599 1.562280 3.482577
v 2.472323 2.703556 3.505988
v 2.536583 3.437594 2.913704
v 2.517599 3.310523 1.941237
v 3.017599 3.310523 2.441237
v 2.017599 3.310523 2.441237
v 1.528248 2.101054 1.879905
v 1.465636 2.145028 2.941237
v 1.403343 1.562280 2.441237
v 1.465862 2.727775 2.346351
v 1.427830 2.727775 2.941237
v 1.454663 1.562280 2.941237
v 1.425483 1.562280 1.941237
v 2.017599 3.310523 1.941237
v 3.017599 3.310523 1.941237
v 3.023491 3.328439 2.945414
v 3.017599 2.727775 3.481602
v 3.017599 1.562280 3.441237
v 2.022125 1.562280 3.441237
v 3.517599 2.727775 1.941237
v 3.517599 1.562280 1.941237
v 3.517599 1.562280 2.941237
v 2.017599 2.727775 1.397096
v 2.017599 1.562280 1.441237
v 3.017599 1.562280 1.460831
v 3.017599 2.727775 1.397096
v 3.517599 2.727775 2.941237
v 1.972323 2.703556 3.493107
v 2.017599 3.310523 2.941237
v 1.499143 2.727775 1.941237
vt 0.665853 0.487343
vt 0.678215 0.640961
vt 0.695652 0.593489
vt 0.676071 0.428216
vt 0.587582 0.663676
vt 0.656723 0.661418
vt 0.649300 0.658345
vt 0.590582 0.666261
vt 0.591264 0.575426
vt 0.642348 0.574034
vt 0.417134 0.571261
vt 0.414713 0.650347
vt 0.437838 0.670745
vt 0.439026 0.587798
vt 0.370016 0.468778
vt 0.359033 0.631510
vt 0.271753 0.651059
vt 0.296988 0.483460
vt 0.399595 0.240206
vt 0.379356 0.331058
vt 0.318157 0.366447
vt 0.326903 0.248631
vt 0.552944 0.187558
vt 0.555834 0.295014
vt 0.462829 0.313047
vt 0.469138 0.205383
vt 0.560702 0.439406
vt 0.567955 0.624313
vt 0.455658 0.636670
vt 0.459103 0.455056
vt 0.427334 0.412857
vt 0.422516 0.487671
vt 0.446374 0.514497
vt 0.446134 0.443331
vt 0.373049 0.324863
vt 0.362740 0.417001
vt 0.396722 0.457176
vt 0.403689 0.374529
vt 0.350808 0.523650
vt 0.336273 0.653558
vt 0.379776 0.658211
vt 0.388819 0.550936
vt 0.578426 0.421688
vt 0.586895 0.496272
vt 0.635163 0.489241
vt 0.628742 0.413456
vt 0.487805 0.436514
vt 0.486456 0.506529
vt 0.537544 0.498470
vt 0.532673 0.431788
vt 0.486137 0.585242
vt 0.483432 0.687492
vt 0.533895 0.693494
vt 0.539588 0.579196
vt 0.464758 0.668029
vt 0.521062 0.687921
vt 0.408355 0.646944
vt 0.488039 0.645177
vt 0.509103 0.656350
vt 0.441519 0.657323
vt 0.577371 0.643197
vt 0.667082 0.647055
vt 0.583396 0.655280
vt 0.652965 0.252237
vt 0.647332 0.344846
vt 0.658346 0.278604
vt 0.644122 0.158537
vt 0.638449 0.373312
vt 0.645042 0.457652
vt 0.644766 0.414632
vt 0.649613 0.320907
vt 0.659121 0.552892
vt 0.663274 0.519437
vt 0.624861 0.304820
vt 0.626087 0.239698
vt 0.622968 0.345316
vt 0.628371 0.161059
vt 0.634270 0.075382
vt 0.489069 0.370936
vt 0.531098 0.361809
vt 0.449459 0.375960
vt 0.575651 0.354002
vt 0.390489 0.254037
vt 0.413111 0.313242
vt 0.345677 0.176986
vt 0.435880 0.343783
vt 0.549878 0.098335
vt 0.474895 0.120138
vt 0.406021 0.156654
vn -0.9995 -0.0005 -0.0328
vn -0.6890 0.7238 -0.0368
vn -0.6094 0.5256 -0.5936
vn -0.7256 0.0114 -0.6879
vn -0.1215 0.9925 -0.0133
vn -0.6702 0.7411 0.0414
vn -0.5699 0.5515 0.6091
vn -0.1147 0.6873 0.7172
vn -0.0371 0.0480 0.9981
vn -0.7003 0.0422 0.7125
vn 1.0000 0.0047 0.0007
vn 0.7944 0.6065 -0.0320
vn 0.6042 0.5734 0.5534
vn 0.7132 0.0173 0.7008
vn 0.0414 0.0455 -0.9981
vn -0.0067 0.7208 -0.6931
vn 0.5586 0.6267 -0.5433
vn 0.7219 0.0191 -0.6917
vn 0.0216 -0.0503 -0.9985
vn 0.0557 -0.0177 -0.9983
vn 0.7735 -0.0037 -0.6338
vn 0.6785 -0.0432 -0.7334
vn -0.0390 -0.0344 -0.9986
vn -0.0570 -0.0193 -0.9982
vn -0.0170 -0.0239 -0.9995
vn -0.0013 -0.0595 -0.9982
vn -0.0410 0.0343 -0.9986
vn -0.0490 0.7273 -0.6846
vn 0.0000 0.7516 -0.6595
vn -0.0109 0.0579 -0.9983
vn 0.9995 -0.0294 -0.0113
vn 1.0000 -0.0031 0.0032
vn 0.6522 -0.0272 0.7576
vn 0.7174 -0.0311 0.6959
vn 0.9992 -0.0381 0.0125
vn 1.0000 0.0008 0.0010
vn 1.0000 0.0000 0.0000
vn 0.9989 -0.0474 -0.0027
vn 1.0000 0.0023 -0.0025
vn 0.6942 0.7196 0.0171
vn 0.7096 0.7038 0.0346
vn 1.0000 0.0016 0.0019
vn -0.0257 -0.0442 0.9987
vn -0.0412 -0.0299 0.9987
vn -0.7069 -0.0219 0.7069
vn -0.6929 -0.0429 0.7197
vn 0.0076 -0.0183 0.9998
vn -0.0067 -0.0288 0.9995
vn 0.0474 -0.0295 0.9984
vn 0.0223 -0.0260 0.9994
vn -0.0103 0.0173 0.9998
vn 0.1334 0.7779 0.6141
vn -0.0497 0.8019 0.5954
vn 0.0241 0.0344 0.9991
vn 0.1506 0.9848 -0.0861
vn -0.0305 0.9948 -0.0967
vn -0.0187 0.9996 0.0210
vn 0.0000 0.9999 0.0131
vn -0.0047 0.9976 -0.0690
vn 0.0501 0.9986 -0.0147
vn -0.0297 0.9995 -0.0058
vn -0.6887 0.7248 -0.0196
vn -0.0437 0.9986 -0.0298
vn -0.9980 0.0057 -0.0627
vn -0.9975 0.0485 -0.0508
vn -0.7144 0.0061 -0.6997
vn -0.6806 -0.0114 -0.7325
vn -0.9977 -0.0259 0.0621
vn -0.9987 -0.0002 0.0498
vn -0.9985 0.0374 -0.0400
vn -0.9999 -0.0108 0.0010
vn -0.9991 0.0261 0.0336
vn -0.9986 0.0161 -0.0498
vn -0.9927 -0.1044 0.0603
vn -0.9870 -0.1593 0.0183
vn -0.6632 -0.0370 0.7475
vn -0.9901 -0.1279 -0.0577
vn -0.6968 -0.0581 -0.7149
vn 0.0203 -0.0168 0.9996
vn 0.0000 -0.0342 0.9994
vn 0.7181 -0.0287 0.6953
vn -0.0212 -0.0173 0.9996
vn 0.9972 -0.0712 0.0212
vn 0.9955 -0.0945 -0.0055
vn 0.7494 -0.0667 -0.6588
vn 0.9976 -0.0618 -0.0312
vn -0.0231 -0.0198 -0.9995
vn 0.0086 -0.0291 -0.9995
vn 0.0005 -0.0341 -0.9994
usemtl Material.001
s 1
f 89/1/1 32/2/2 5/3/3 43/4/4
f 88/5/5 44/6/6 7/7/7 26/8/8
f 87/9/9 26/8/8 7/7/7 33/10/10
f 86/11/11 36/12/12 3/13/13 39/14/14
f 85/15/15 29/16/16 1/17/17 40/18/18
f 84/19/19 50/20/20 11/21/21 28/22/22
f 83/23/23 51/24/24 21/25/25 52/26/26
f 82/27/27 41/28/28 12/29/29 53/30/30
f 81/31/31 54/32/32 10/33/33 27/34/34
f 80/35/35 55/36/36 22/37/37 56/38/38
f 79/39/39 48/40/40 19/41/41 57/42/42
f 78/43/43 58/44/44 16/45/45 45/46/46
f 77/47/47 59/48/48 23/49/49 60/50/50
f 76/51/51 38/52/52 9/53/53 61/54/54
f 75/55/55 62/56/56 9/53/53 38/52/52
f 74/57/57 63/58/58 24/59/59 64/60/60
f 73/61/61 32/2/2 15/62/62 65/63/63
f 72/64/64 66/65/65 14/66/66 31/67/67
f 71/68/68 67/69/69 25/70/70 68/71/71
f 70/72/72 44/6/6 15/62/62 69/73/73
f 67/69/69 70/72/72 69/73/73 25/70/70
f 16/45/45 33/10/10 70/72/72 67/69/69
f 33/10/10 7/7/7 44/6/6 70/72/72
f 34/74/74 71/68/68 68/71/71 17/75/75
f 8/76/76 45/46/46 71/68/68 34/74/74
f 45/46/46 16/45/45 67/69/69 71/68/68
f 46/77/77 72/64/64 31/67/67 6/78/78
f 17/75/75 68/71/71 72/64/64 46/77/77
f 68/71/71 25/70/70 66/65/65 72/64/64
f 63/58/58 73/61/61 65/63/63 24/59/59
f 12/29/29 41/28/28 73/61/61 63/58/58
f 41/28/28 5/3/3 32/2/2 73/61/61
f 48/40/40 74/57/57 64/60/60 19/41/41
f 1/17/17 29/16/16 74/57/57 48/40/40
f 29/16/16 12/29/29 63/58/58 74/57/57
f 36/12/12 75/55/55 38/52/52 3/13/13
f 19/41/41 64/60/60 75/55/55 36/12/12
f 64/60/60 24/59/59 62/56/56 75/55/55
f 59/48/48 76/51/51 61/54/54 23/49/49
f 10/33/33 39/14/14 76/51/51 59/48/48
f 39/14/14 3/13/13 38/52/52 76/51/51
f 37/79/79 77/47/47 60/50/50 20/80/80
f 4/81/81 27/34/34 77/47/47 37/79/79
f 27/34/34 10/33/33 59/48/48 77/47/47
f 49/82/82 78/43/43 45/46/46 8/76/76
f 20/80/80 60/50/50 78/43/43 49/82/82
f 60/50/50 23/49/49 58/44/44 78/43/43
f 55/36/36 79/39/39 57/42/42 22/37/37
f 11/21/21 40/18/18 79/39/39 55/36/36
f 40/18/18 1/17/17 48/40/40 79/39/39
f 35/83/83 80/35/35 56/38/38 18/84/84
f 2/85/85 28/22/22 80/35/35 35/83/83
f 28/22/22 11/21/21 55/36/36 80/35/35
f 47/86/86 81/31/31 27/34/34 4/81/81
f 18/84/84 56/38/38 81/31/31 47/86/86
f 56/38/38 22/37/37 54/32/32 81/31/31
f 51/24/24 82/27/27 53/30/30 21/25/25
f 14/66/66 43/4/4 82/27/27 51/24/24
f 43/4/4 5/3/3 41/28/28 82/27/27
f 30/87/87 83/23/23 52/26/26 13/88/88
f 6/78/78 31/67/67 83/23/23 30/87/87
f 31/67/67 14/66/66 51/24/24 83/23/23
f 42/89/89 84/19/19 28/22/22 2/85/85
f 13/88/88 52/26/26 84/19/19 42/89/89
f 52/26/26 21/25/25 50/20/20 84/19/19
f 50/20/20 85/15/15 40/18/18 11/21/21
f 21/25/25 53/30/30 85/15/15 50/20/20
f 53/30/30 12/29/29 29/16/16 85/15/15
f 54/32/32 86/11/11 39/14/14 10/33/33
f 22/37/37 57/42/42 86/11/11 54/32/32
f 57/42/42 19/41/41 36/12/12 86/11/11
f 58/44/44 87/9/9 33/10/10 16/45/45
f 23/49/49 61/54/54 87/9/9 58/44/44
f 61/54/54 9/53/53 26/8/8 87/9/9
f 62/56/56 88/5/5 26/8/8 9/53/53
f 24/59/59 65/63/63 88/5/5 62/56/56
f 65/63/63 15/62/62 44/6/6 88/5/5
f 66/65/65 89/1/1 43/4/4 14/66/66
f 25/70/70 69/73/73 89/1/1 66/65/65
f 69/73/73 15/62/62 32/2/2 89/1/1
