<svg xmlns="http://www.w3.org/2000/svg" viewBox="0 0 100 100"><defs><style>.cls-1{fill:#0054a0;}.cls-2{fill:#0061a8;}.cls-3{fill:#0064ab;}.cls-4{fill:#006cb0;}.cls-5{fill:#fbfbfb;}.cls-6{fill:#fff;}</style></defs><title>PlaneraryClothingParticipant</title><g id="Layer_2" data-name="Layer 2"><polygon class="cls-1" points="50 2.13 16.15 16.15 2.13 50 16.15 83.85 50 97.88 50 87.05 23.8 76.2 12.95 50 23.8 23.8 50 12.95 50 2.13"/><polygon class="cls-2" points="50 2.13 83.85 16.15 97.88 50 83.85 83.85 50 97.88 50 87.05 76.2 76.2 87.05 50 76.2 23.8 50 12.95 50 2.13"/><polygon class="cls-3" points="23.8 23.8 12.95 50 23.8 76.2 50 87.05 50 12.95 23.8 23.8"/><polygon class="cls-4" points="87.05 50 76.2 76.2 50 87.05 50 58.12 55.18 58.12 58.16 39.92 58.27 39.29 59.9 39.29 60.01 39.91 63.13 58.12 69.27 58.12 65.73 33.61 59.26 33.6 59.09 33.6 52.45 33.61 50 50.49 50 12.95 76.2 23.8 87.05 50"/><polygon class="cls-5" points="5.56 62 13.43 81 50 81 50 62 7.1 62 5.56 62"/><path class="cls-5" d="M94.44,62,86.57,81H50V78a5.45,5.45,0,0,0,.92.07,5.32,5.32,0,0,0,1.43-.19,3.69,3.69,0,0,0,1.15-.53,3.28,3.28,0,0,0,.81-.81,3.34,3.34,0,0,0,.48-1.07H52.91a1.78,1.78,0,0,1-.7,1,2.34,2.34,0,0,1-1.34.35A2.57,2.57,0,0,1,50,76.7V72.12A3.08,3.08,0,0,1,51,72a2.3,2.3,0,0,1,1.22.33,1.64,1.64,0,0,1,.73.91h1.88a2.49,2.49,0,0,0-.36-1,2.83,2.83,0,0,0-.79-.79,4.07,4.07,0,0,0-1.17-.53A5.55,5.55,0,0,0,51,70.74a4.87,4.87,0,0,0-1,.08V68.89a.51.51,0,0,0,.13-.09,2.23,2.23,0,0,0,.6-1.72,2.91,2.91,0,0,0-.16-1,1.64,1.64,0,0,0-.44-.68.28.28,0,0,0-.13-.09V62Z"/><polygon class="cls-6" points="50 50.49 50 51.32 49.88 51.32 50 50.49"/><polygon class="cls-6" points="61.61 29.67 59.7 32.85 59.09 32.85 51.8 32.86 49.13 51.32 37.81 51.32 37.75 34.41 34.83 36.08 30.99 29.67 39.01 25.31 43.03 25.31 46.3 26.54 49.57 25.31 53.59 25.31 61.61 29.67"/><polygon class="cls-6" points="69.27 58.12 63.13 58.12 60.01 39.91 59.9 39.29 58.27 39.29 58.16 39.92 55.18 58.12 48.9 58.12 49.88 51.32 50 51.32 50 50.49 52.45 33.61 59.09 33.6 59.26 33.6 65.73 33.61 69.27 58.12"/><polygon class="cls-6" points="50 50.49 50 51.32 49.88 51.32 50 50.49"/></g><g id="Layer_4" data-name="Layer 4"><path class="cls-3" d="M14.39,77.84V71h4a3.93,3.93,0,0,1,1.19.17,2.55,2.55,0,0,1,.91.48,2,2,0,0,1,.58.7,2,2,0,0,1,0,1.74,2,2,0,0,1-.58.68,2.66,2.66,0,0,1-.91.44,3.94,3.94,0,0,1-1.19.16H16.27v2.5Zm3.67-3.66a1.89,1.89,0,0,0,1.17-.29.88.88,0,0,0,.35-.74.84.84,0,0,0-.35-.71,1.9,1.9,0,0,0-1.17-.28H16.27v2Z"/><path class="cls-3" d="M27.59,77.84,27,76.42H23.71l-.64,1.42h-2L24.29,71h2.18l3.16,6.87Zm-2.23-5.33h0l-1.15,2.73h2.29Z"/><path class="cls-3" d="M35,77.84V76.07a.83.83,0,0,0-.29-.71,2.07,2.07,0,0,0-1.11-.21h-2v2.69H29.79V71h4.56a4,4,0,0,1,1.13.15,3.18,3.18,0,0,1,.87.41,2,2,0,0,1,.56.63,1.69,1.69,0,0,1,.19.8,1.5,1.5,0,0,1-.34,1,1.85,1.85,0,0,1-1,.61,1.59,1.59,0,0,1,.84.44,1.36,1.36,0,0,1,.25.9v2Zm-3.4-5.68V74H34A1.73,1.73,0,0,0,35,73.73a.83.83,0,0,0,.31-.65.81.81,0,0,0-.31-.66,1.5,1.5,0,0,0-1-.26Z"/><path class="cls-3" d="M39.8,77.84V72.17H37.09V71h7.3v1.2H41.67v5.67Z"/><path class="cls-3" d="M44.58,77.84V71h1.88v6.87Z"/><path class="cls-3" d="M50,72.12v-1.3a4.8,4.8,0,0,0-.79.18,3.69,3.69,0,0,0-1.32.74,3.12,3.12,0,0,0-.83,1.18,4.11,4.11,0,0,0-.29,1.57A3.57,3.57,0,0,0,47.09,76,3.23,3.23,0,0,0,48,77.17a3.76,3.76,0,0,0,1.32.68A5.4,5.4,0,0,0,50,78V76.7a1.77,1.77,0,0,1-.78-.51,2.69,2.69,0,0,1-.54-1.79,2.62,2.62,0,0,1,.55-1.77A1.74,1.74,0,0,1,50,72.12Z"/><path class="cls-4" d="M54.79,75.48a3.34,3.34,0,0,1-.48,1.07,3.28,3.28,0,0,1-.81.81,3.69,3.69,0,0,1-1.15.53,5.32,5.32,0,0,1-1.43.19A5.45,5.45,0,0,1,50,78V76.7a2.57,2.57,0,0,0,.87.13,2.34,2.34,0,0,0,1.34-.35,1.78,1.78,0,0,0,.7-1Z"/><path class="cls-4" d="M54.79,73.22H52.91a1.64,1.64,0,0,0-.73-.91A2.3,2.3,0,0,0,51,72a3.08,3.08,0,0,0-1,.14v-1.3a4.87,4.87,0,0,1,1-.08,5.55,5.55,0,0,1,1.52.19,4.07,4.07,0,0,1,1.17.53,2.83,2.83,0,0,1,.79.79A2.49,2.49,0,0,1,54.79,73.22Z"/><path class="cls-4" d="M54.91,77.84V71h1.88v6.87Z"/><path class="cls-4" d="M57.21,77.84V71h4a4,4,0,0,1,1.19.17,2.59,2.59,0,0,1,.9.48,2,2,0,0,1,.58.7,1.91,1.91,0,0,1,0,1.74,2,2,0,0,1-.58.68,2.7,2.7,0,0,1-.9.44,4,4,0,0,1-1.19.16H59.09v2.5Zm3.66-3.66A1.89,1.89,0,0,0,62,73.89a.89.89,0,0,0,.36-.74.85.85,0,0,0-.36-.71,1.9,1.9,0,0,0-1.17-.28H59.09v2Z"/><path class="cls-4" d="M70.4,77.84l-.57-1.42H66.52l-.64,1.42h-2L67.1,71h2.18l3.16,6.87Zm-2.23-5.33h0L67,75.24h2.28Z"/><path class="cls-4" d="M78.19,77.84l-3.84-4.62v4.62H72.6V71h2l3.57,4.42V71h1.76v6.87Z"/><path class="cls-4" d="M82.78,77.84V72.17h-2.7V71h7.3v1.2H84.66v5.67Z"/><path class="cls-3" d="M41.71,69.2a1.9,1.9,0,0,1,.07-.54,1.4,1.4,0,0,1,.28-.5,2.84,2.84,0,0,1,.59-.5,9.34,9.34,0,0,1,1-.54c.23-.1.42-.2.58-.28a3.71,3.71,0,0,0,.36-.24.77.77,0,0,0,.19-.23.5.5,0,0,0,.06-.24.45.45,0,0,0-.07-.27.4.4,0,0,0-.19-.17,1,1,0,0,0-.28-.09l-.35,0a1.26,1.26,0,0,0-.69.16.63.63,0,0,0-.25.58H41.79a1.23,1.23,0,0,1,.55-1.06,2.73,2.73,0,0,1,1.55-.38,4.94,4.94,0,0,1,.89.07,2.43,2.43,0,0,1,.69.23,1.18,1.18,0,0,1,.44.38.93.93,0,0,1,.16.54,1,1,0,0,1-.09.44,1.35,1.35,0,0,1-.32.38,2.91,2.91,0,0,1-.58.38c-.24.14-.53.28-.87.44a3,3,0,0,0-.62.38.63.63,0,0,0-.27.37h2.77v.71Z"/><path class="cls-3" d="M49.43,65a3.4,3.4,0,0,0-.94-.12,3.28,3.28,0,0,0-.93.12,1.82,1.82,0,0,0-.69.4,1.76,1.76,0,0,0-.43.68,3.75,3.75,0,0,0,0,2,1.84,1.84,0,0,0,.43.7,1.7,1.7,0,0,0,.69.4,2.93,2.93,0,0,0,.93.14A2.31,2.31,0,0,0,50,68.89V65.31A1.76,1.76,0,0,0,49.43,65Zm0,2.84a1.64,1.64,0,0,1-.17.49.75.75,0,0,1-.29.27.82.82,0,0,1-.4.09.84.84,0,0,1-.4-.09.62.62,0,0,1-.29-.27,1.4,1.4,0,0,1-.17-.49,3.88,3.88,0,0,1-.06-.74,3.77,3.77,0,0,1,.06-.73,1.48,1.48,0,0,1,.17-.49.66.66,0,0,1,.29-.26.84.84,0,0,1,.4-.09.82.82,0,0,1,.4.09.75.75,0,0,1,.29.27,1.64,1.64,0,0,1,.17.49,5.06,5.06,0,0,1,0,.74A4.87,4.87,0,0,1,49.39,67.84Z"/><path class="cls-4" d="M50.73,67.08a2.23,2.23,0,0,1-.6,1.72.51.51,0,0,1-.13.09V65.31a.28.28,0,0,1,.13.09,1.64,1.64,0,0,1,.44.68A2.91,2.91,0,0,1,50.73,67.08Z"/><path class="cls-4" d="M52.2,69.2V66.31H50.88v-.57a4.64,4.64,0,0,0,.7,0,1.57,1.57,0,0,0,.46-.14.62.62,0,0,0,.27-.23.72.72,0,0,0,.12-.31h1V69.2Z"/><path class="cls-4" d="M57.34,66.91a1.73,1.73,0,0,1,.39.18,1.26,1.26,0,0,1,.31.25,1,1,0,0,1,.19.3.8.8,0,0,1,.07.34,1.15,1.15,0,0,1-.14.55,1.2,1.2,0,0,1-.41.43,2.31,2.31,0,0,1-.69.29,4.69,4.69,0,0,1-1,.1,4.07,4.07,0,0,1-1-.11,2.27,2.27,0,0,1-.7-.28,1.33,1.33,0,0,1-.43-.42,1.07,1.07,0,0,1-.14-.52.93.93,0,0,1,.25-.64,1.77,1.77,0,0,1,.76-.43,1,1,0,0,1-.56-.39,1,1,0,0,1-.17-.53.76.76,0,0,1,.15-.45,1.14,1.14,0,0,1,.41-.37,2.36,2.36,0,0,1,.62-.24,3.24,3.24,0,0,1,.79-.09,3.61,3.61,0,0,1,.84.09,2.09,2.09,0,0,1,.6.24,1.25,1.25,0,0,1,.37.35A.89.89,0,0,1,58,66a1,1,0,0,1-.15.53A1,1,0,0,1,57.34,66.91Zm-1.27,1.76a1.12,1.12,0,0,0,.71-.18A.64.64,0,0,0,57,68a.58.58,0,0,0-.23-.47,1,1,0,0,0-.7-.19,1.07,1.07,0,0,0-.7.18.58.58,0,0,0-.22.48.64.64,0,0,0,.21.51A1.1,1.1,0,0,0,56.07,68.67Zm0-2a1,1,0,0,0,.59-.15.5.5,0,0,0,.19-.41.49.49,0,0,0-.19-.41,1,1,0,0,0-.59-.15,1,1,0,0,0-.6.15.49.49,0,0,0-.19.41.5.5,0,0,0,.19.41A1,1,0,0,0,56.07,66.67Z"/></g></svg>