# Blender v2.79 (sub 0) OBJ File: 'avatar.blend'
# www.blender.org
mtllib Arms.mtl
o Right_Arm_Left_Arm_Cube.013
v -1.980000 2.020000 -0.500000
v -1.980000 3.980000 -0.499999
v -1.020000 3.980000 -0.499999
v -1.020000 2.020000 -0.500000
v -1.020000 2.020000 0.500000
v -1.020000 3.980000 0.500001
v -1.980000 3.980000 0.500001
v -1.980000 2.020000 0.500000
v -1.000000 2.020000 -0.480000
v -1.000000 3.980000 -0.479999
v -1.000000 3.980000 0.480001
v -1.000000 2.020000 0.480000
v -1.980000 4.000000 0.480001
v -1.020000 4.000000 0.480001
v -1.020000 4.000000 -0.479999
v -1.980000 4.000000 -0.479999
v -1.020000 2.000000 0.480000
v -1.980000 2.000000 0.480000
v -1.980000 2.000000 -0.480000
v -1.020000 2.000000 -0.480000
v -2.000000 2.020000 0.480000
v -2.000000 2.020000 -0.480000
v -2.000000 3.980000 0.480001
v -2.000000 3.980000 -0.479999
vt 0.756530 0.151931
vt 0.756530 0.368731
vt 0.858293 0.368731
vt 0.858293 0.151931
vt 0.530696 0.153300
vt 0.530696 0.368333
vt 0.631676 0.368333
vt 0.631676 0.153300
vt 0.869311 0.152259
vt 0.869311 0.368998
vt 0.970491 0.368998
vt 0.970491 0.152259
vt 0.630643 0.383096
vt 0.533231 0.383096
vt 0.533231 0.485079
vt 0.630643 0.485079
vt 0.530853 0.140008
vt 0.631641 0.140008
vt 0.631641 0.035876
vt 0.530853 0.035876
vt 0.633780 0.153300
vt 0.631676 0.151106
vt 0.756530 0.149718
vt 0.754410 0.151931
vt 0.869311 0.150048
vt 0.867203 0.152259
vt 0.530696 0.151106
vt 0.528592 0.153300
vt 0.631676 0.370527
vt 0.633780 0.368333
vt 0.630643 0.487203
vt 0.632672 0.485079
vt 0.531202 0.485079
vt 0.533231 0.487203
vt 0.533231 0.380972
vt 0.531202 0.383096
vt 0.632672 0.383096
vt 0.754410 0.368731
vt 0.633741 0.140008
vt 0.633741 0.035876
vt 0.867203 0.368998
vt 0.631641 0.033707
vt 0.530853 0.033707
vt 0.528592 0.368333
vt 0.528754 0.035876
vt 0.528754 0.140008
vt 0.630643 0.380972
vt 0.530853 0.142177
vt 0.631641 0.142177
vt 0.643794 0.153224
vt 0.643794 0.368447
vt 0.744692 0.368447
vt 0.744692 0.153224
vn 0.0000 0.0000 -1.0000
vn 0.0000 -0.0000 1.0000
vn 1.0000 -0.0000 0.0000
vn 0.0000 1.0000 0.0000
vn 0.0000 -1.0000 -0.0000
vn -0.5774 -0.5773 0.5773
vn -0.5774 -0.5774 -0.5774
vn 0.5774 -0.5774 -0.5774
vn 0.5774 -0.5774 0.5773
vn -0.5773 0.5773 0.5774
vn -0.5773 0.5773 -0.5774
vn 0.5773 0.5773 -0.5774
vn 0.5773 0.5773 0.5774
vn -0.7071 -0.0000 0.7071
vn -0.7071 0.7071 0.0000
vn -0.7071 0.0000 -0.7071
vn -0.7071 -0.7071 0.0000
vn 0.0000 0.7071 -0.7071
vn 0.7071 0.0000 -0.7071
vn 0.0000 -0.7071 -0.7071
vn 0.7071 0.7071 0.0000
vn 0.7071 -0.0000 0.7071
vn 0.7071 -0.7071 0.0000
vn 0.0000 0.7071 0.7071
vn 0.0000 -0.7071 0.7071
vn -1.0000 -0.0000 0.0000
usemtl RightArm
s 1
f 1/1/1 2/2/1 3/3/1 4/4/1
f 5/5/2 6/6/2 7/7/2 8/8/2
f 9/9/3 10/10/3 11/11/3 12/12/3
f 13/13/4 14/14/4 15/15/4 16/16/4
f 17/17/5 18/18/5 19/19/5 20/20/5
f 8/8/6 21/21/6 18/22/6
f 1/1/7 19/23/7 22/24/7
f 9/9/8 20/25/8 4/26/8
f 5/5/9 17/27/9 12/28/9
f 7/7/10 13/29/10 23/30/10
f 16/16/11 2/31/11 24/32/11
f 15/15/12 10/33/12 3/34/12
f 14/14/13 6/35/13 11/36/13
f 8/8/14 7/7/14 23/30/14 21/21/14
f 13/13/15 16/16/15 24/32/15 23/37/15
f 2/2/16 1/1/16 22/24/16 24/38/16
f 19/19/17 18/18/17 21/39/17 22/40/17
f 16/16/18 15/15/18 3/34/18 2/31/18
f 10/10/19 9/9/19 4/26/19 3/41/19
f 20/20/20 19/19/20 1/42/20 4/43/20
f 15/15/21 14/14/21 11/36/21 10/33/21
f 6/6/22 5/5/22 12/28/22 11/44/22
f 17/17/23 20/20/23 9/45/23 12/46/23
f 14/14/24 13/13/24 7/47/24 6/35/24
f 18/18/25 17/17/25 5/48/25 8/49/25
f 21/50/26 23/51/26 24/52/26 22/53/26
o Left_Arm_Left_Arm.001_Cube.001
v 1.031417 2.020000 -0.500000
v 1.031417 3.980000 -0.499999
v 1.991417 3.980000 -0.499999
v 1.991417 2.020000 -0.500000
v 1.991417 2.020000 0.500000
v 1.991417 3.980000 0.500001
v 1.031417 3.980000 0.500001
v 1.031417 2.020000 0.500000
v 2.011417 2.020000 -0.480000
v 2.011417 3.980000 -0.479999
v 2.011417 3.980000 0.480001
v 2.011417 2.020000 0.480000
v 1.031417 4.000000 0.480001
v 1.991417 4.000000 0.480001
v 1.991417 4.000000 -0.479999
v 1.031417 4.000000 -0.479999
v 1.991417 2.000000 0.480000
v 1.031417 2.000000 0.480000
v 1.031417 2.000000 -0.480000
v 1.991417 2.000000 -0.480000
v 1.011417 2.020000 0.480000
v 1.011417 2.020000 -0.480000
v 1.011417 3.980000 0.480001
v 1.011417 3.980000 -0.479999
vt 0.756530 0.151931
vt 0.756530 0.368731
vt 0.858293 0.368731
vt 0.858293 0.151931
vt 0.530696 0.153300
vt 0.530696 0.368333
vt 0.631676 0.368333
vt 0.631676 0.153300
vt 0.869311 0.152259
vt 0.869311 0.368998
vt 0.970491 0.368998
vt 0.970491 0.152259
vt 0.630643 0.383096
vt 0.533231 0.383096
vt 0.533231 0.485079
vt 0.630643 0.485079
vt 0.530853 0.140008
vt 0.631641 0.140008
vt 0.631641 0.035876
vt 0.530853 0.035876
vt 0.633780 0.153300
vt 0.631676 0.151106
vt 0.756530 0.149718
vt 0.754410 0.151931
vt 0.869311 0.150048
vt 0.867203 0.152259
vt 0.530696 0.151106
vt 0.528592 0.153300
vt 0.631676 0.370527
vt 0.633780 0.368333
vt 0.630643 0.487203
vt 0.632672 0.485079
vt 0.531202 0.485079
vt 0.533231 0.487203
vt 0.533231 0.380972
vt 0.531202 0.383096
vt 0.632672 0.383096
vt 0.754410 0.368731
vt 0.633741 0.140008
vt 0.633741 0.035876
vt 0.867203 0.368998
vt 0.631641 0.033707
vt 0.530853 0.033707
vt 0.528592 0.368333
vt 0.528754 0.035876
vt 0.528754 0.140008
vt 0.630643 0.380972
vt 0.530853 0.142177
vt 0.631641 0.142177
vt 0.643794 0.153224
vt 0.643794 0.368447
vt 0.744692 0.368447
vt 0.744692 0.153224
vn 0.0000 0.0000 -1.0000
vn 0.0000 -0.0000 1.0000
vn 1.0000 -0.0000 0.0000
vn 0.0000 1.0000 0.0000
vn 0.0000 -1.0000 -0.0000
vn -0.5774 -0.5773 0.5773
vn -0.5774 -0.5774 -0.5774
vn 0.5774 -0.5773 -0.5773
vn 0.5774 -0.5773 0.5773
vn -0.5773 0.5773 0.5774
vn -0.5773 0.5773 -0.5774
vn 0.5774 0.5773 -0.5774
vn 0.5774 0.5773 0.5774
vn -0.7071 -0.0000 0.7071
vn -0.7071 0.7071 0.0000
vn -0.7071 0.0000 -0.7071
vn -0.7071 -0.7071 0.0000
vn 0.0000 0.7071 -0.7071
vn 0.7071 0.0000 -0.7071
vn 0.0000 -0.7071 -0.7071
vn 0.7071 0.7071 0.0000
vn 0.7071 -0.0000 0.7071
vn 0.7071 -0.7071 0.0000
vn 0.0000 0.7071 0.7071
vn 0.0000 -0.7071 0.7071
vn -1.0000 -0.0000 0.0000
usemtl RightArm.001
s 1
f 25/54/27 26/55/27 27/56/27 28/57/27
f 29/58/28 30/59/28 31/60/28 32/61/28
f 33/62/29 34/63/29 35/64/29 36/65/29
f 37/66/30 38/67/30 39/68/30 40/69/30
f 41/70/31 42/71/31 43/72/31 44/73/31
f 32/61/32 45/74/32 42/75/32
f 25/54/33 43/76/33 46/77/33
f 33/62/34 44/78/34 28/79/34
f 29/58/35 41/80/35 36/81/35
f 31/60/36 37/82/36 47/83/36
f 40/69/37 26/84/37 48/85/37
f 39/68/38 34/86/38 27/87/38
f 38/67/39 30/88/39 35/89/39
f 32/61/40 31/60/40 47/83/40 45/74/40
f 37/66/41 40/69/41 48/85/41 47/90/41
f 26/55/42 25/54/42 46/77/42 48/91/42
f 43/72/43 42/71/43 45/92/43 46/93/43
f 40/69/44 39/68/44 27/87/44 26/84/44
f 34/63/45 33/62/45 28/79/45 27/94/45
f 44/73/46 43/72/46 25/95/46 28/96/46
f 39/68/47 38/67/47 35/89/47 34/86/47
f 30/59/48 29/58/48 36/81/48 35/97/48
f 41/70/49 44/73/49 33/98/49 36/99/49
f 38/67/50 37/66/50 31/100/50 30/88/50
f 42/71/51 41/70/51 29/101/51 32/102/51
f 45/103/52 47/104/52 48/105/52 46/106/52
