# Blender v2.79 (sub 0) OBJ File: 'avatar.blend'
# www.blender.org
mtllib Torso.mtl
o Torso_Torso_Cube.012
v 0.980000 2.020000 0.500000
v 0.980000 3.980000 0.500001
v -0.980000 3.980000 0.500001
v -0.980000 2.020000 0.500000
v -0.980000 4.000000 0.480001
v 0.980000 4.000000 0.480001
v 0.980000 4.000000 -0.479999
v -0.980000 4.000000 -0.479999
v -0.980000 2.020000 -0.500000
v -0.980000 3.980000 -0.499999
v 0.980000 3.980000 -0.499999
v 0.980000 2.020000 -0.500000
v 0.980000 2.000000 0.480000
v -0.980000 2.000000 0.480000
v -0.980000 2.000000 -0.480000
v 0.980000 2.000000 -0.480000
v 1.000000 2.020000 -0.480000
v 1.000000 3.980000 -0.479999
v 1.000000 3.980000 0.480001
v 1.000000 2.020000 0.480000
v -1.000000 2.020000 0.480000
v -1.000000 2.020000 -0.480000
v -1.000000 3.980000 0.480001
v -1.000000 3.980000 -0.479999
vt 0.520423 0.637937
vt 0.520423 0.851175
vt 0.312067 0.851175
vt 0.312067 0.637937
vt 0.313128 0.867802
vt 0.519296 0.867802
vt 0.519296 0.968062
vt 0.313128 0.968062
vt 0.856267 0.637747
vt 0.856267 0.853045
vt 0.648282 0.853045
vt 0.648282 0.637747
vt 0.520883 0.623521
vt 0.312354 0.623521
vt 0.312354 0.521077
vt 0.520883 0.521077
vt 0.633918 0.639344
vt 0.633918 0.850724
vt 0.534900 0.850724
vt 0.534900 0.639344
vt 0.309941 0.637937
vt 0.312067 0.635761
vt 0.856266 0.635550
vt 0.858389 0.637747
vt 0.633918 0.637187
vt 0.635980 0.639344
vt 0.520423 0.635761
vt 0.522549 0.637937
vt 0.312067 0.853351
vt 0.309941 0.851175
vt 0.313128 0.970151
vt 0.311024 0.968062
vt 0.521400 0.968062
vt 0.519296 0.970151
vt 0.519296 0.865713
vt 0.521400 0.867802
vt 0.311024 0.867802
vt 0.858389 0.853045
vt 0.310226 0.623521
vt 0.310226 0.521077
vt 0.635980 0.850724
vt 0.312354 0.518943
vt 0.520883 0.518943
vt 0.522549 0.851175
vt 0.523011 0.521077
vt 0.523011 0.623521
vt 0.313128 0.865713
vt 0.520883 0.625655
vt 0.312354 0.625655
vt 0.298976 0.638697
vt 0.298976 0.851802
vt 0.199588 0.851802
vt 0.199588 0.638697
vn 0.0000 -0.0000 1.0000
vn 0.0000 1.0000 0.0000
vn 0.0000 0.0000 -1.0000
vn 0.0000 -1.0000 -0.0000
vn 1.0000 0.0000 0.0000
vn -0.5774 -0.5774 0.5773
vn -0.5774 -0.5774 -0.5774
vn 0.5774 -0.5774 -0.5774
vn 0.5774 -0.5774 0.5773
vn -0.5773 0.5773 0.5774
vn -0.5773 0.5773 -0.5774
vn 0.5773 0.5773 -0.5774
vn 0.5773 0.5773 0.5774
vn -0.7071 -0.0000 0.7071
vn -0.7071 0.7071 0.0000
vn -0.7071 0.0000 -0.7071
vn -0.7071 -0.7071 0.0000
vn 0.0000 0.7071 -0.7071
vn 0.7071 0.0000 -0.7071
vn 0.0000 -0.7071 -0.7071
vn 0.7071 0.7071 0.0000
vn 0.7071 -0.0000 0.7071
vn 0.7071 -0.7071 0.0000
vn 0.0000 0.7071 0.7071
vn 0.0000 -0.7071 0.7071
vn -1.0000 -0.0000 0.0000
usemtl Torso
s 1
f 1/1/1 2/2/1 3/3/1 4/4/1
f 5/5/2 6/6/2 7/7/2 8/8/2
f 9/9/3 10/10/3 11/11/3 12/12/3
f 13/13/4 14/14/4 15/15/4 16/16/4
f 17/17/5 18/18/5 19/19/5 20/20/5
f 4/4/6 21/21/6 14/22/6
f 9/9/7 15/23/7 22/24/7
f 17/17/8 16/25/8 12/26/8
f 1/1/9 13/27/9 20/28/9
f 3/3/10 5/29/10 23/30/10
f 8/8/11 10/31/11 24/32/11
f 7/7/12 18/33/12 11/34/12
f 6/6/13 2/35/13 19/36/13
f 4/4/14 3/3/14 23/30/14 21/21/14
f 5/5/15 8/8/15 24/32/15 23/37/15
f 10/10/16 9/9/16 22/24/16 24/38/16
f 15/15/17 14/14/17 21/39/17 22/40/17
f 8/8/18 7/7/18 11/34/18 10/31/18
f 18/18/19 17/17/19 12/26/19 11/41/19
f 16/16/20 15/15/20 9/42/20 12/43/20
f 7/7/21 6/6/21 19/36/21 18/33/21
f 2/2/22 1/1/22 20/28/22 19/44/22
f 13/13/23 16/16/23 17/45/23 20/46/23
f 6/6/24 5/5/24 3/47/24 2/35/24
f 14/14/25 13/13/25 1/48/25 4/49/25
f 21/50/26 23/51/26 24/52/26 22/53/26
