# Blender v2.79 (sub 0) OBJ File: 'BPRAvatar.blend'
# www.blender.org
mtllib 2.mtl
o LongHair
v -0.768407 5.742315 0.279508
v -0.586128 5.862068 0.466758
v -0.691641 5.884633 0.264189
v -0.411422 6.100639 -0.000301
v -0.616753 5.965761 0.250968
v -0.391627 6.066650 0.271185
v -0.732519 5.896189 -0.000301
v -0.616753 5.965761 -0.251571
v -0.652802 5.992843 -0.000301
v 0.139935 6.066650 -0.271788
v 0.260140 5.950403 -0.394685
v 0.120143 5.965761 -0.498509
v -0.515000 5.950403 0.394081
v -0.384812 5.884633 0.574535
v -0.631113 5.740709 0.512793
v -0.823419 5.347139 0.370681
v -0.668725 5.380921 0.566571
v -0.829253 3.936206 -0.306898
v -0.685960 5.124308 -0.558145
v -0.679175 3.773047 -0.562395
v -0.768407 5.742315 -0.280111
v -0.814279 5.743924 -0.000301
v -0.894396 5.025140 0.010790
v -0.875669 4.824897 0.207336
v -0.631113 5.740709 -0.513398
v -0.432715 5.126362 -0.713377
v -0.125881 5.896189 0.616291
v -0.371835 5.965761 0.497905
v -0.399849 5.742315 0.653034
v -0.125920 5.743924 0.699892
v -0.399849 5.742315 -0.653639
v -0.586128 5.862068 -0.467360
v -0.384812 5.884633 -0.575140
v -0.879278 4.442775 -0.000302
v -0.839521 5.126471 -0.300170
v 0.331362 5.862068 0.466758
v 0.513687 5.742315 0.279508
v 0.436875 5.884633 0.264189
v 0.159728 6.100639 -0.000301
v 0.361891 5.965761 0.250968
v 0.397940 5.992843 -0.000301
v 0.120143 5.965761 0.497905
v 0.133051 5.884633 0.574535
v -0.125847 6.136745 -0.000301
v -0.125847 6.100639 0.291404
v 0.361891 5.965761 -0.251571
v -0.691641 5.884633 -0.264792
v -0.515000 5.950403 -0.394685
v 0.139935 6.066650 0.271185
v 0.260140 5.950403 0.394081
v -0.125847 5.992843 0.534730
v -0.125847 6.100639 -0.292007
v -0.125847 5.992843 -0.535333
v -0.391627 6.066650 -0.271788
v -0.371835 5.965761 -0.498509
v 0.331362 5.862068 -0.467360
v 0.148009 5.742315 -0.653639
v 0.133051 5.884633 -0.575140
v 0.436875 5.884633 -0.264792
v 0.413953 5.471707 0.566571
v 0.376393 5.740709 0.512793
v -0.125790 5.126529 -0.765064
v -0.125920 5.743924 -0.700497
v 0.574482 3.936206 -0.306898
v 0.431188 5.124308 -0.558145
v 0.584749 5.126471 -0.300170
v 0.477753 5.896189 -0.000301
v 0.559561 5.743924 -0.000301
v -0.125881 5.896189 -0.616895
v 0.568647 5.347139 0.370681
v 0.639624 5.025140 0.010790
v -0.126222 5.645924 0.759467
v 0.376393 5.740709 -0.513398
v 0.177943 5.126362 -0.713377
v 0.148009 5.742315 0.653034
v 0.513687 5.742315 -0.280111
v 0.265633 5.607742 0.684385
v 0.624506 4.442775 -0.000302
v -0.429049 3.710989 -0.715693
v -0.125877 3.693370 -0.766794
v 0.424404 3.773047 -0.562395
v 0.174277 3.710989 -0.715693
v 0.620898 4.824897 0.207336
v -0.442977 5.479286 0.731758
v -0.568300 5.934138 0.226608
v -0.765879 5.729952 0.000034
v -0.600966 5.954506 -0.000301
v -0.386171 6.032363 -0.000301
v -0.367103 6.007298 0.246502
v -0.501939 5.893274 0.381488
v -0.381857 5.723680 0.609824
v -0.596692 5.724836 0.479609
v -0.568300 5.934138 -0.227212
v 0.246999 5.893338 -0.382150
v 0.115230 6.007331 -0.247090
v 0.095672 5.934054 -0.449989
v -0.722785 5.728712 -0.263633
v -0.775891 5.339551 0.355797
v -0.632280 5.369686 0.533655
v -0.650236 5.121428 -0.522740
v -0.783162 3.936594 -0.286560
v -0.645559 3.773135 -0.524873
v -0.347540 5.934033 0.449361
v -0.126593 5.724613 0.653368
v -0.844153 5.123210 0.011667
v -0.383221 5.729095 -0.607958
v -0.596692 5.727657 -0.479006
v -0.501939 5.893274 -0.382093
v -0.347540 5.934033 -0.449964
v 0.246999 5.893338 0.381545
v 0.468098 5.727557 0.263957
v 0.341255 5.722743 0.481481
v -0.792265 5.142716 -0.282962
v -0.829292 4.443560 0.005909
v -0.415137 5.054029 -0.666222
v -0.825479 4.823977 0.203077
v 0.095672 5.934054 0.449386
v 0.128964 5.722370 0.610877
v 0.313424 5.934204 0.226604
v 0.134305 6.032392 -0.000301
v 0.346102 5.954566 -0.000301
v -0.125877 6.059196 -0.000301
v -0.125877 6.032339 0.265939
v 0.313424 5.934204 -0.227207
v 0.131268 5.729119 -0.607993
v 0.341898 5.727674 -0.479075
v 0.115230 6.007331 0.246487
v -0.125877 5.954346 0.482735
v -0.125877 6.032339 -0.266542
v -0.125877 5.954346 -0.483340
v -0.367103 6.007298 -0.247104
v 0.468067 5.728701 -0.263634
v 0.511163 5.729941 0.000034
v 0.375180 5.457525 0.537703
v -0.125822 5.054962 -0.714744
v -0.125929 5.730372 -0.651974
v 0.395438 5.121446 -0.522767
v 0.528391 3.936594 -0.286560
v 0.537493 5.142718 -0.282962
v 0.589381 5.123213 0.011667
v 0.520619 5.339473 0.357551
v -0.129481 5.629972 0.711792
v 0.234740 5.588514 0.649544
v 0.574521 4.443560 0.005909
v -0.412219 3.710944 -0.668210
v -0.125916 3.693289 -0.716416
v 0.390786 3.773135 -0.524873
v 0.160318 5.054044 -0.666240
v 0.157407 3.710944 -0.668224
v 0.570707 4.823977 0.203077
v -0.419799 5.464594 0.689511
v -0.118330 5.487756 0.769274
v -0.131878 5.474696 0.722542
v -0.722911 5.727798 0.263465
vt 0.828900 0.523400
vt 0.807500 0.567900
vt 0.806700 0.528700
vt 0.759700 0.508200
vt 0.793100 0.531300
vt 0.765900 0.544500
vt 0.797400 0.490700
vt 0.773600 0.470100
vt 0.784800 0.497500
vt 0.704800 0.483200
vt 0.692700 0.465300
vt 0.706100 0.456300
vt 0.789800 0.559000
vt 0.784500 0.601000
vt 0.828500 0.576100
vt 0.912500 0.509900
vt 0.905100 0.590900
vt 0.878400 0.101100
vt 0.798500 0.350200
vt 0.820900 0.053100
vt 0.794100 0.448100
vt 0.815400 0.478400
vt 0.891700 0.381800
vt 0.944900 0.356200
vt 0.771800 0.430000
vt 0.759300 0.340400
vt 0.744200 0.626500
vt 0.774600 0.583400
vt 0.804200 0.629900
vt 0.752800 0.670600
vt 0.748300 0.422300
vt 0.766600 0.444200
vt 0.747200 0.439900
vt 0.924500 0.240000
vt 0.838200 0.370900
vt 0.662800 0.593200
vt 0.631900 0.549400
vt 0.656800 0.549800
vt 0.702000 0.516000
vt 0.671700 0.549100
vt 0.675000 0.511500
vt 0.701800 0.598600
vt 0.695900 0.622000
vt 0.731300 0.515300
vt 0.735100 0.555200
vt 0.682200 0.480900
vt 0.782000 0.462100
vt 0.761300 0.457400
vt 0.702200 0.554700
vt 0.680400 0.577900
vt 0.740300 0.599100
vt 0.728500 0.480500
vt 0.726400 0.452900
vt 0.752000 0.477400
vt 0.746800 0.451600
vt 0.685500 0.453300
vt 0.700400 0.427500
vt 0.703900 0.444800
vt 0.672600 0.474800
vt 0.577100 0.632100
vt 0.640400 0.608000
vt 0.718600 0.338900
vt 0.724200 0.421900
vt 0.531400 0.135200
vt 0.641400 0.366100
vt 0.604400 0.394400
vt 0.661000 0.507500
vt 0.640700 0.498800
vt 0.725500 0.440000
vt 0.546700 0.545300
vt 0.552600 0.415200
vt 0.764000 0.704600
vt 0.678300 0.440200
vt 0.678900 0.348500
vt 0.681200 0.669800
vt 0.658300 0.463300
vt 0.631000 0.679400
vt 0.503000 0.281300
vt 0.761600 0.036000
vt 0.699400 0.036000
vt 0.582300 0.076600
vt 0.638700 0.048200
vt 0.497000 0.399800
vt 0.859500 0.675100
vt 0.208700 0.736900
vt 0.182700 0.693400
vt 0.212900 0.705100
vt 0.235900 0.710900
vt 0.233600 0.745800
vt 0.208800 0.765100
vt 0.203300 0.828700
vt 0.179800 0.781500
vt 0.220200 0.678900
vt 0.294900 0.655900
vt 0.284500 0.678000
vt 0.279700 0.654500
vt 0.199600 0.661700
vt 0.087300 0.740800
vt 0.115700 0.808400
vt 0.186000 0.568300
vt 0.091300 0.358000
vt 0.129800 0.300800
vt 0.229700 0.781800
vt 0.251600 0.866500
vt 0.112600 0.624600
vt 0.237000 0.630400
vt 0.216900 0.641700
vt 0.227600 0.661400
vt 0.242300 0.657500
vt 0.325200 0.766900
vt 0.360800 0.724800
vt 0.363100 0.782200
vt 0.151600 0.594100
vt 0.064800 0.484300
vt 0.217500 0.545100
vt 0.059200 0.585200
vt 0.301000 0.787400
vt 0.340900 0.870000
vt 0.322800 0.733400
vt 0.291400 0.708200
vt 0.314900 0.699000
vt 0.263400 0.713000
vt 0.263900 0.751800
vt 0.304400 0.672700
vt 0.282100 0.626300
vt 0.303400 0.633900
vt 0.295900 0.745700
vt 0.262200 0.792300
vt 0.262100 0.679600
vt 0.260900 0.654800
vt 0.240000 0.681100
vt 0.323700 0.651000
vt 0.345700 0.680800
vt 0.426400 0.786400
vt 0.253700 0.537200
vt 0.259300 0.625900
vt 0.324900 0.553600
vt 0.388600 0.322500
vt 0.363100 0.572000
vt 0.407000 0.593600
vt 0.450700 0.702700
vt 0.250300 0.907600
vt 0.391300 0.844300
vt 0.434000 0.441100
vt 0.178500 0.271000
vt 0.233700 0.257200
vt 0.342000 0.275400
vt 0.290200 0.537300
vt 0.289500 0.257600
vt 0.455200 0.541200
vt 0.158900 0.865200
vt 0.055500 0.481900
vt 0.083300 0.352400
vt 0.106700 0.816500
vt 0.049600 0.586000
vt 0.075300 0.744700
vt 0.124300 0.291200
vt 0.152900 0.876700
vt 0.242900 0.922200
vt 0.443000 0.436500
vt 0.395700 0.314900
vt 0.232900 0.245700
vt 0.345900 0.264600
vt 0.437600 0.794800
vt 0.463500 0.704500
vt 0.465200 0.539800
vt 0.265900 0.950300
vt 0.267600 0.936400
vt 0.350200 0.884300
vt 0.290700 0.245700
vt 0.400200 0.858200
vt 0.175100 0.735500
vt 0.175600 0.259500
vt 0.759900 0.755400
vn -0.8891 0.3364 0.3104
vn -0.5696 0.5997 0.5620
vn -0.7525 0.5855 0.3017
vn -0.2758 0.9612 -0.0000
vn -0.5657 0.7704 0.2940
vn -0.2732 0.9233 0.2700
vn -0.8252 0.5648 0.0000
vn -0.5657 0.7704 -0.2940
vn -0.6110 0.7916 -0.0000
vn 0.2760 0.9223 -0.2704
vn 0.4539 0.7726 -0.4439
vn 0.3024 0.7722 -0.5587
vn -0.4501 0.7744 0.4447
vn -0.3072 0.5915 0.7455
vn -0.6755 0.3474 0.6504
vn -0.7718 -0.2257 0.5945
vn -0.4935 -0.5366 0.6845
vn -0.8295 -0.5297 0.1769
vn -0.7119 0.0555 -0.7001
vn -0.6674 -0.6461 -0.3702
vn -0.8983 0.2954 -0.3253
vn -0.9532 0.3021 -0.0073
vn -0.9989 0.0395 -0.0239
vn -0.6385 -0.2666 0.7219
vn -0.6808 0.2881 -0.6734
vn -0.3512 0.0542 -0.9347
vn -0.0000 0.5733 0.8194
vn -0.2984 0.7733 0.5594
vn -0.3335 0.4113 0.8483
vn 0.0001 0.5015 0.8652
vn -0.3319 0.2939 -0.8964
vn -0.5696 0.5997 -0.5620
vn -0.3072 0.5915 -0.7455
vn -0.7773 -0.3525 0.5211
vn -0.9393 0.0580 -0.3381
vn 0.5713 0.5999 0.5601
vn 0.8889 0.3351 0.3122
vn 0.7523 0.5858 0.3016
vn 0.2783 0.9605 -0.0000
vn 0.5673 0.7691 0.2943
vn 0.6126 0.7904 -0.0000
vn 0.3024 0.7722 0.5587
vn 0.3102 0.5913 0.7444
vn -0.0000 1.0000 0.0000
vn -0.0000 0.9619 0.2735
vn 0.5673 0.7691 -0.2943
vn -0.7525 0.5855 -0.3017
vn -0.4501 0.7744 -0.4447
vn 0.2760 0.9223 0.2704
vn 0.4539 0.7726 0.4439
vn 0.0000 0.7956 0.6058
vn -0.0000 0.9619 -0.2735
vn 0.0000 0.7956 -0.6058
vn -0.2732 0.9233 -0.2700
vn -0.2984 0.7733 -0.5594
vn 0.5713 0.5999 -0.5601
vn 0.3349 0.2932 -0.8955
vn 0.3102 0.5913 -0.7444
vn 0.7523 0.5858 -0.3016
vn 0.4600 -0.4112 0.7870
vn 0.6926 0.3812 0.6124
vn 0.0008 0.0528 -0.9986
vn -0.0000 0.2933 -0.9560
vn 0.8295 -0.5297 0.1769
vn 0.7119 0.0555 -0.7001
vn 0.9393 0.0580 -0.3381
vn 0.8250 0.5651 0.0000
vn 0.9532 0.3022 -0.0073
vn -0.0000 0.5733 -0.8194
vn 0.7271 -0.2132 0.6526
vn 0.9989 0.0395 -0.0239
vn -0.0679 0.0767 0.9947
vn 0.6825 0.2878 -0.6719
vn 0.3521 0.0539 -0.9344
vn 0.2537 0.1193 0.9599
vn 0.8983 0.2955 -0.3253
vn 0.1092 -0.1400 0.9841
vn 0.7773 -0.3525 0.5211
vn -0.3305 -0.6776 -0.6570
vn 0.0008 -0.6843 -0.7292
vn 0.6674 -0.6461 -0.3702
vn 0.3312 -0.6776 -0.6566
vn 0.6389 -0.2674 0.7213
vn -0.1531 -0.4014 0.9030
vn 0.5725 -0.7741 -0.2702
vn 0.9267 -0.3756 0.0068
vn 0.6078 -0.7941 0.0001
vn 0.2302 -0.9732 -0.0000
vn 0.2381 -0.9423 -0.2355
vn 0.4981 -0.7131 -0.4934
vn 0.3235 -0.4809 -0.8149
vn 0.6494 -0.4293 -0.6277
vn 0.5722 -0.7744 0.2700
vn -0.5011 -0.7138 0.4893
vn -0.2406 -0.9416 0.2357
vn -0.2778 -0.7766 0.5655
vn 0.8723 -0.3720 0.3174
vn 0.7954 -0.5856 0.1562
vn 0.4902 -0.8492 -0.1963
vn 0.7065 -0.0555 0.7055
vn 0.3412 -0.5389 0.7701
vn 0.1960 -0.7306 0.6540
vn 0.2754 -0.7750 -0.5688
vn -0.0010 -0.5658 -0.8246
vn 0.9983 -0.0547 0.0183
vn 0.3239 -0.3653 0.8727
vn 0.6586 -0.3742 0.6529
vn 0.4977 -0.7152 0.4907
vn 0.2747 -0.7773 0.5660
vn -0.5019 -0.7108 -0.4929
vn -0.8606 -0.4070 -0.3060
vn -0.6652 -0.4591 -0.5889
vn 0.9375 -0.0573 0.3432
vn 0.6180 -0.3448 0.7065
vn 0.3456 -0.0445 0.9373
vn 0.7314 -0.2778 0.6228
vn -0.2788 -0.7739 -0.5687
vn -0.2302 -0.8286 -0.5104
vn -0.5743 -0.7727 -0.2704
vn -0.2324 -0.9726 -0.0000
vn -0.6093 -0.7929 0.0001
vn 0.0000 -1.0000 0.0000
vn 0.0000 -0.9736 -0.2283
vn -0.5740 -0.7730 0.2702
vn -0.3265 -0.3651 0.8718
vn -0.6604 -0.3744 0.6509
vn -0.2406 -0.9416 -0.2357
vn -0.0001 -0.7960 -0.6053
vn 0.0000 -0.9736 0.2283
vn 0.0000 -0.7980 0.6027
vn 0.2381 -0.9423 0.2355
vn -0.8722 -0.3720 0.3175
vn -0.9267 -0.3756 0.0067
vn -0.6412 -0.7655 0.0543
vn -0.0008 -0.0471 0.9989
vn 0.0001 -0.3591 0.9333
vn -0.7068 -0.0550 0.7053
vn -0.3412 -0.5389 0.7701
vn -0.9375 -0.0572 0.3433
vn -0.9983 -0.0548 0.0181
vn -0.7845 -0.5346 0.3142
vn -0.2827 -0.6210 -0.7310
vn -0.6970 -0.7017 0.1474
vn -0.6180 -0.3448 0.7065
vn 0.1156 -0.7604 0.6391
vn -0.0003 -0.7599 0.6501
vn -0.1960 -0.7306 0.6540
vn -0.3463 -0.0439 0.9371
vn -0.1161 -0.7601 0.6393
vn -0.7316 -0.2789 0.6220
vn 0.5042 -0.8463 -0.1719
vn -0.1658 -0.6510 0.7407
vn -0.4464 -0.8422 -0.3024
vn 0.8610 -0.4088 -0.3026
usemtl LongHair
s 1
f 1/1/1 2/2/2 3/3/3
f 4/4/4 5/5/5 6/6/6
f 7/7/7 1/1/1 3/3/3
f 4/4/4 8/8/8 9/9/9
f 10/10/10 11/11/11 12/12/12
f 13/13/13 6/6/6 5/5/5
f 14/14/14 13/13/13 2/2/2
f 15/15/15 16/16/16 17/17/17
f 18/18/18 19/19/19 20/20/20
f 7/7/7 21/21/21 22/22/22
f 7/7/7 5/5/5 9/9/9
f 23/23/23 24/24/24 16/16/16
f 25/25/25 26/26/26 19/19/19
f 27/27/27 28/28/28 14/14/14
f 27/27/27 29/29/29 30/30/30
f 31/31/31 32/32/32 33/33/33
f 29/29/29 2/2/2 15/15/15
f 8/8/8 7/7/7 9/9/9
f 34/34/34 35/35/35 18/18/18
f 3/3/3 13/13/13 5/5/5
f 21/21/21 19/19/19 35/35/35
f 22/22/22 35/35/35 23/23/23
f 26/26/26 20/20/20 19/19/19
f 23/23/23 34/34/34 24/24/24
f 36/36/36 37/37/37 38/38/38
f 39/39/39 40/40/40 41/41/41
f 42/42/42 27/27/27 43/43/43
f 44/44/44 6/6/6 45/45/45
f 39/39/39 46/46/46 10/10/10
f 47/47/47 48/48/48 32/32/32
f 44/44/44 49/49/49 39/39/39
f 45/45/45 42/42/42 49/49/49
f 49/49/49 50/50/50 40/40/40
f 45/45/45 28/28/28 51/51/51
f 52/52/52 12/12/12 53/53/53
f 44/44/44 54/54/54 4/4/4
f 52/52/52 55/55/55 54/54/54
f 56/56/56 57/57/57 58/58/58
f 59/59/59 11/11/11 46/46/46
f 43/43/43 50/50/50 42/42/42
f 60/60/60 37/37/37 61/61/61
f 57/57/57 62/62/62 63/63/63
f 64/64/64 65/65/65 66/66/66
f 67/67/67 37/37/37 68/68/68
f 44/44/44 10/10/10 52/52/52
f 55/55/55 69/69/69 33/33/33
f 33/33/33 48/48/48 55/55/55
f 11/11/11 58/58/58 12/12/12
f 70/70/70 71/71/71 68/68/68
f 29/29/29 72/72/72 30/30/30
f 73/73/73 74/74/74 57/57/57
f 75/75/75 27/27/27 30/30/30
f 76/76/76 67/67/67 68/68/68
f 12/12/12 69/69/69 53/53/53
f 69/69/69 57/57/57 63/63/63
f 75/75/75 36/36/36 43/43/43
f 72/72/72 75/75/75 30/30/30
f 77/77/77 61/61/61 75/75/75
f 40/40/40 67/67/67 41/41/41
f 31/31/31 69/69/69 63/63/63
f 46/46/46 67/67/67 59/59/59
f 50/50/50 38/38/38 40/40/40
f 76/76/76 56/56/56 59/59/59
f 78/78/78 66/66/66 71/71/71
f 79/79/79 62/62/62 80/80/80
f 21/21/21 32/32/32 25/25/25
f 65/65/65 76/76/76 66/66/66
f 66/66/66 68/68/68 71/71/71
f 74/74/74 81/81/81 82/82/82
f 71/71/71 83/83/83 78/78/78
f 62/62/62 82/82/82 80/80/80
f 62/62/62 31/31/31 63/63/63
f 48/48/48 54/54/54 55/55/55
f 84/84/84 15/15/15 17/17/17
f 85/85/85 86/86/86 87/87/87
f 85/85/85 88/88/88 89/89/89
f 90/90/90 91/91/91 92/92/92
f 93/93/93 88/88/88 87/87/87
f 94/94/94 95/95/95 96/96/96
f 89/89/89 90/90/90 85/85/85
f 93/93/93 86/86/86 97/97/97
f 98/98/98 92/92/92 99/99/99
f 100/100/100 101/101/101 102/102/102
f 103/103/103 104/104/104 91/91/91
f 105/105/105 86/86/86 98/98/98
f 100/100/100 106/106/106 107/107/107
f 108/108/108 106/106/106 109/109/109
f 110/110/110 111/111/111 112/112/112
f 113/113/113 114/114/114 101/101/101
f 107/107/107 113/113/113 100/100/100
f 113/113/113 86/86/86 105/105/105
f 102/102/102 115/115/115 100/100/100
f 116/116/116 114/114/114 105/105/105
f 104/104/104 117/117/117 118/118/118
f 119/119/119 120/120/120 121/121/121
f 108/108/108 97/97/97 107/107/107
f 89/89/89 122/122/122 123/123/123
f 124/124/124 120/120/120 95/95/95
f 94/94/94 125/125/125 126/126/126
f 127/127/127 122/122/122 120/120/120
f 117/117/117 123/123/123 127/127/127
f 110/110/110 127/127/127 119/119/119
f 103/103/103 123/123/123 128/128/128
f 96/96/96 129/129/129 130/130/130
f 131/131/131 122/122/122 88/88/88
f 109/109/109 129/129/129 131/131/131
f 94/94/94 132/132/132 124/124/124
f 110/110/110 118/118/118 117/117/117
f 119/119/119 133/133/133 111/111/111
f 111/111/111 134/134/134 112/112/112
f 135/135/135 125/125/125 136/136/136
f 137/137/137 138/138/138 139/139/139
f 136/136/136 109/109/109 106/106/106
f 95/95/95 122/122/122 129/129/129
f 136/136/136 96/96/96 130/130/130
f 140/140/140 141/141/141 133/133/133
f 142/142/142 91/91/91 104/104/104
f 125/125/125 137/137/137 126/126/126
f 133/133/133 124/124/124 132/132/132
f 118/118/118 142/142/142 104/104/104
f 112/112/112 143/143/143 118/118/118
f 139/139/139 144/144/144 140/140/140
f 135/135/135 145/145/145 146/146/146
f 126/126/126 139/139/139 132/132/132
f 133/133/133 139/139/139 140/140/140
f 147/147/147 148/148/148 149/149/149
f 144/144/144 150/150/150 140/140/140
f 149/149/149 135/135/135 146/146/146
f 106/106/106 135/135/135 136/136/136
f 131/131/131 108/108/108 109/109/109
f 92/92/92 151/151/151 99/99/99
f 34/152/34 101/101/101 114/114/114
f 18/153/18 102/102/102 101/101/101
f 17/154/17 98/98/98 99/99/99
f 24/155/24 98/98/98 16/156/16
f 20/157/20 145/145/145 102/102/102
f 24/155/24 114/114/114 116/116/116
f 84/158/84 142/142/142 72/159/72
f 78/160/78 138/138/138 64/161/64
f 80/162/80 149/149/149 146/146/146
f 64/161/64 147/147/147 81/163/81
f 60/164/60 141/141/141 70/165/70
f 83/166/83 141/141/141 150/150/150
f 152/167/152 142/142/142 153/168/153
f 60/164/60 143/143/143 134/134/134
f 152/167/152 118/118/118 75/169/75
f 81/163/81 149/149/149 82/170/82
f 75/169/75 143/143/143 77/171/77
f 83/166/83 144/144/144 78/160/78
f 17/154/17 151/151/151 84/158/84
f 90/90/90 154/172/154 85/85/85
f 80/162/80 145/145/145 79/173/79
f 1/1/1 15/15/15 2/2/2
f 4/4/4 9/9/9 5/5/5
f 7/7/7 22/22/22 1/1/1
f 4/4/4 54/54/54 8/8/8
f 10/10/10 46/46/46 11/11/11
f 13/13/13 28/28/28 6/6/6
f 14/14/14 28/28/28 13/13/13
f 15/15/15 1/1/1 16/16/16
f 18/18/18 35/35/35 19/19/19
f 7/7/7 47/47/47 21/21/21
f 7/7/7 3/3/3 5/5/5
f 16/16/16 1/1/1 22/22/22
f 22/22/22 23/23/23 16/16/16
f 25/25/25 31/31/31 26/26/26
f 27/27/27 51/51/51 28/28/28
f 27/27/27 14/14/14 29/29/29
f 31/31/31 25/25/25 32/32/32
f 29/29/29 14/14/14 2/2/2
f 8/8/8 47/47/47 7/7/7
f 34/34/34 23/23/23 35/35/35
f 3/3/3 2/2/2 13/13/13
f 21/21/21 25/25/25 19/19/19
f 22/22/22 21/21/21 35/35/35
f 26/26/26 79/79/79 20/20/20
f 36/36/36 61/61/61 37/37/37
f 39/39/39 49/49/49 40/40/40
f 42/42/42 51/51/51 27/27/27
f 44/44/44 4/4/4 6/6/6
f 39/39/39 41/41/41 46/46/46
f 47/47/47 8/8/8 48/48/48
f 44/44/44 45/45/45 49/49/49
f 45/45/45 51/51/51 42/42/42
f 49/49/49 42/42/42 50/50/50
f 45/45/45 6/6/6 28/28/28
f 52/52/52 10/10/10 12/12/12
f 44/44/44 52/52/52 54/54/54
f 52/52/52 53/53/53 55/55/55
f 56/56/56 73/73/73 57/57/57
f 59/59/59 56/56/56 11/11/11
f 43/43/43 36/36/36 50/50/50
f 60/60/60 70/70/70 37/37/37
f 57/57/57 74/74/74 62/62/62
f 64/64/64 81/81/81 65/65/65
f 67/67/67 38/38/38 37/37/37
f 44/44/44 39/39/39 10/10/10
f 55/55/55 53/53/53 69/69/69
f 33/33/33 32/32/32 48/48/48
f 11/11/11 56/56/56 58/58/58
f 68/68/68 37/37/37 70/70/70
f 70/70/70 83/83/83 71/71/71
f 29/29/29 84/84/84 72/72/72
f 73/73/73 65/65/65 74/74/74
f 75/75/75 43/43/43 27/27/27
f 76/76/76 59/59/59 67/67/67
f 12/12/12 58/58/58 69/69/69
f 69/69/69 58/58/58 57/57/57
f 75/75/75 61/61/61 36/36/36
f 72/72/72 152/174/152 75/75/75
f 77/77/77 60/60/60 61/61/61
f 40/40/40 38/38/38 67/67/67
f 31/31/31 33/33/33 69/69/69
f 46/46/46 41/41/41 67/67/67
f 50/50/50 36/36/36 38/38/38
f 76/76/76 73/73/73 56/56/56
f 78/78/78 64/64/64 66/66/66
f 79/79/79 26/26/26 62/62/62
f 21/21/21 47/47/47 32/32/32
f 65/65/65 73/73/73 76/76/76
f 66/66/66 76/76/76 68/68/68
f 74/74/74 65/65/65 81/81/81
f 62/62/62 74/74/74 82/82/82
f 62/62/62 26/26/26 31/31/31
f 48/48/48 8/8/8 54/54/54
f 84/84/84 29/29/29 15/15/15
f 85/85/85 154/172/154 86/86/86
f 85/85/85 87/87/87 88/88/88
f 90/90/90 103/103/103 91/91/91
f 93/93/93 131/131/131 88/88/88
f 94/94/94 124/124/124 95/95/95
f 89/89/89 103/103/103 90/90/90
f 93/93/93 87/87/87 86/86/86
f 98/98/98 154/172/154 92/92/92
f 100/100/100 113/113/113 101/101/101
f 103/103/103 128/128/128 104/104/104
f 154/172/154 98/98/98 86/86/86
f 116/116/116 105/105/105 98/98/98
f 100/100/100 115/115/115 106/106/106
f 108/108/108 107/107/107 106/106/106
f 110/110/110 119/119/119 111/111/111
f 113/113/113 105/105/105 114/114/114
f 107/107/107 97/97/97 113/113/113
f 113/113/113 97/97/97 86/86/86
f 102/102/102 145/145/145 115/115/115
f 104/104/104 128/128/128 117/117/117
f 119/119/119 127/127/127 120/120/120
f 108/108/108 93/93/93 97/97/97
f 89/89/89 88/88/88 122/122/122
f 124/124/124 121/121/121 120/120/120
f 94/94/94 96/96/96 125/125/125
f 127/127/127 123/123/123 122/122/122
f 117/117/117 128/128/128 123/123/123
f 110/110/110 117/117/117 127/127/127
f 103/103/103 89/89/89 123/123/123
f 96/96/96 95/95/95 129/129/129
f 131/131/131 129/129/129 122/122/122
f 109/109/109 130/130/130 129/129/129
f 94/94/94 126/126/126 132/132/132
f 110/110/110 112/112/112 118/118/118
f 119/119/119 121/121/121 133/133/133
f 111/111/111 141/141/141 134/134/134
f 135/135/135 148/148/148 125/125/125
f 137/137/137 147/147/147 138/138/138
f 136/136/136 130/130/130 109/109/109
f 95/95/95 120/120/120 122/122/122
f 136/136/136 125/125/125 96/96/96
f 111/111/111 133/133/133 141/141/141
f 140/140/140 150/150/150 141/141/141
f 142/142/142 151/151/151 91/91/91
f 125/125/125 148/148/148 137/137/137
f 133/133/133 121/121/121 124/124/124
f 118/118/118 153/168/153 142/142/142
f 112/112/112 134/134/134 143/143/143
f 139/139/139 138/138/138 144/144/144
f 135/135/135 115/115/115 145/145/145
f 126/126/126 137/137/137 139/139/139
f 133/133/133 132/132/132 139/139/139
f 147/147/147 137/137/137 148/148/148
f 149/149/149 148/148/148 135/135/135
f 106/106/106 115/115/115 135/135/135
f 131/131/131 93/93/93 108/108/108
f 92/92/92 91/91/91 151/151/151
f 34/152/34 18/153/18 101/101/101
f 18/153/18 20/157/20 102/102/102
f 17/154/17 16/156/16 98/98/98
f 24/155/24 116/116/116 98/98/98
f 20/157/20 79/173/79 145/145/145
f 24/155/24 34/152/34 114/114/114
f 84/158/84 151/151/151 142/142/142
f 78/160/78 144/144/144 138/138/138
f 80/162/80 82/170/82 149/149/149
f 64/161/64 138/138/138 147/147/147
f 60/164/60 134/134/134 141/141/141
f 83/166/83 70/165/70 141/141/141
f 152/167/152 72/159/72 142/142/142
f 60/164/60 77/171/77 143/143/143
f 152/167/152 153/168/153 118/118/118
f 81/163/81 147/147/147 149/149/149
f 75/169/75 118/118/118 143/143/143
f 83/166/83 150/150/150 144/144/144
f 17/154/17 99/99/99 151/151/151
f 90/90/90 92/92/92 154/172/154
f 80/162/80 146/146/146 145/145/145
