# Blender v2.79 (sub 0) OBJ File: 'BPRAvatar.blend'
# www.blender.org
mtllib 5.mtl
o TetrisTopHat_TopHat_Cylinder.001
v 0.258263 5.629963 0.509584
v 0.083483 5.601423 0.626522
v 0.083483 5.869512 0.626522
v 0.258263 5.898053 0.509584
v 0.468980 6.250698 0.377141
v 0.330248 6.234310 0.584768
v 0.330352 5.930696 0.584872
v 0.469117 5.963472 0.377197
v 0.480059 5.651098 -0.470127
v 0.480059 5.719247 -0.470127
v 0.664718 5.751233 -0.193765
v 0.664718 5.683085 -0.193765
v -0.619365 5.649872 -0.070800
v -0.502852 5.629963 -0.245132
v -0.502852 5.898053 -0.245132
v -0.619365 5.917961 -0.070800
v -0.574836 6.234310 0.584768
v -0.713569 6.250698 0.377141
v -0.713705 5.963472 0.377197
v -0.574941 5.930696 0.584872
v -0.909307 5.683085 0.458218
v -0.909307 5.751233 0.458218
v -0.974149 5.772051 0.132226
v -0.974149 5.703904 0.132226
v 0.374777 5.649872 0.335253
v 0.374777 5.917961 0.335253
v 0.122621 6.213551 0.723502
v -0.122294 6.206995 0.772217
v -0.122294 5.876068 0.772365
v 0.122676 5.889179 0.723637
v 0.729561 5.703904 0.132226
v 0.729561 5.772051 0.132226
v 0.664718 5.751233 0.458218
v 0.664718 5.683085 0.458218
v -0.659395 5.665453 0.132226
v -0.659395 5.934284 0.132226
v 0.330144 6.537923 0.584664
v 0.122565 6.537923 0.723365
v 0.475640 5.764503 -0.115446
v 0.335344 5.731365 -0.325413
v 0.335344 5.922016 -0.325413
v 0.475640 5.955155 -0.115446
v 0.414807 5.665453 0.132226
v 0.414807 5.934284 0.132226
v -0.574836 6.234310 -0.320316
v -0.574732 6.537923 -0.320212
v -0.367153 6.537923 -0.458912
v -0.367209 6.213551 -0.459048
v -0.122294 5.597788 0.984081
v -0.122294 5.665937 0.984081
v -0.448286 5.678731 0.919239
v -0.448286 5.610582 0.919239
v -0.619365 5.649872 0.335253
v -0.619365 5.917961 0.335253
v -0.762285 6.255422 0.132226
v -0.762433 5.972178 0.132226
v 0.480059 5.651098 0.734579
v 0.480059 5.719247 0.734579
v 0.203697 5.678731 0.919239
v 0.203697 5.610582 0.919239
v 0.374777 5.649872 -0.070800
v 0.374777 5.917961 -0.070800
v 0.468980 6.250698 -0.112689
v 0.517699 6.255422 0.132226
v 0.517844 5.972178 0.132226
v 0.469117 5.963472 -0.112744
v -0.502852 5.629963 0.509584
v -0.502852 5.898053 0.509584
v -0.713569 6.250698 -0.112689
v -0.713434 6.537923 -0.112631
v -0.909305 5.751233 -0.193765
v -0.909305 5.683085 -0.193765
v 0.258263 5.629963 -0.245132
v 0.258263 5.898053 -0.245132
v -0.713705 5.963472 -0.112744
v -0.724648 5.651098 0.734579
v -0.724648 5.719247 0.734579
v -0.328071 5.601423 0.626522
v -0.328071 5.869512 0.626522
v -0.122294 6.537923 -0.507618
v -0.122294 6.206995 -0.507765
v -0.448284 5.610582 -0.654787
v -0.448284 5.678731 -0.654787
v -0.122294 5.665937 -0.719629
v -0.122294 5.597788 -0.719629
v 0.083483 5.601423 -0.362069
v 0.083483 5.869512 -0.362069
v 0.122621 6.213551 -0.459048
v 0.330248 6.234310 -0.320316
v 0.330352 5.930696 -0.320420
v 0.122676 5.889179 -0.459185
v 0.203697 5.610582 -0.654787
v 0.203697 5.678731 -0.654787
v -0.122294 5.593663 0.667450
v -0.122294 5.861753 0.667450
v -0.367209 6.213551 0.723502
v -0.367265 5.889179 0.723637
v -0.328071 5.601423 -0.362071
v -0.122294 5.593663 -0.402998
v -0.122294 5.861753 -0.402998
v -0.328071 5.869512 -0.362071
v 0.122565 6.537923 -0.458912
v 0.330144 6.537923 -0.320212
v -0.724646 5.651098 -0.470127
v -0.724646 5.719247 -0.470127
v -0.762138 6.537923 0.132226
v -0.122294 5.665513 -0.507913
v 0.122676 5.678624 -0.459185
v 0.330352 5.720141 -0.320420
v 0.469117 5.752919 -0.112744
v 0.517844 5.774270 0.132226
v 0.469117 5.752919 0.377197
v 0.330352 5.720141 0.584872
v 0.122676 5.678624 0.723637
v -0.122294 5.665513 0.772365
v -0.367265 5.678624 0.723637
v -0.574941 5.720141 0.584872
v -0.713705 5.752919 0.377197
v -0.762433 5.774270 0.132226
v -0.713705 5.752919 -0.112744
v -0.574941 5.720141 -0.320420
v -0.367265 5.678624 -0.459185
v -0.122294 6.537923 0.132226
v 0.468845 6.537923 -0.112631
v 0.517551 6.537923 0.132226
v 0.468845 6.537923 0.377085
v -0.122294 6.537923 0.772070
v -0.367153 6.537923 0.723365
v -0.574732 6.537923 0.584664
v -0.713434 6.537923 0.377085
v 0.475638 5.955155 0.379898
v 0.524904 5.963964 0.132226
v 0.524904 5.786098 0.132226
v 0.475638 5.764503 0.379898
v -0.574941 5.930696 -0.320420
v -0.579931 5.922016 -0.325413
v -0.720226 5.955155 -0.115446
v -0.769491 5.963964 0.132226
v 0.125377 5.880041 0.730158
v 0.335344 5.922016 0.589865
v -0.367265 5.889179 -0.459185
v -0.369966 5.880041 -0.465708
v -0.369966 5.689389 -0.465708
v -0.122294 5.676134 -0.514973
v 0.125377 5.689389 -0.465706
v -0.122294 5.866786 0.779425
v -0.579931 5.731365 -0.325413
v -0.122294 5.876068 -0.507913
v 0.125377 5.880041 -0.465706
v -0.122294 5.866786 -0.514973
v -0.720226 5.764503 -0.115446
v -0.568267 6.141137 0.314383
v -0.463733 6.123274 0.470793
v 0.323679 6.141137 -0.049929
v 0.219145 6.123274 -0.206341
v -0.306919 6.097669 0.575711
v 0.062331 6.097669 -0.311257
v -0.122294 6.090708 0.612431
v -0.122294 6.090708 -0.347977
v -0.306919 6.097669 -0.311257
v 0.062331 6.097669 0.575711
v -0.463733 6.123274 -0.206341
v 0.219145 6.123274 0.470793
v -0.568267 6.141137 -0.049929
v 0.323679 6.141137 0.314383
v -0.604185 6.155784 0.132226
v 0.359597 6.155784 0.132226
v -0.122294 6.184379 0.132226
v -0.369966 5.689389 0.730158
v -0.122294 5.676134 0.779425
v -0.369966 5.880041 0.730158
v -0.579933 5.731365 0.589865
v -0.579933 5.922016 0.589865
v -0.769491 5.786098 0.132226
v -0.720226 5.764503 0.379898
v -0.720226 5.955155 0.379898
v 0.335344 5.731365 0.589865
v 0.125377 5.689389 0.730158
vt 0.799000 0.674500
vt 0.731100 0.675800
vt 0.746100 0.602700
vt 0.797700 0.597700
vt 0.327100 0.286000
vt 0.279700 0.282600
vt 0.270800 0.211300
vt 0.331300 0.210900
vt 0.836700 0.840300
vt 0.842500 0.827000
vt 0.899200 0.847000
vt 0.892900 0.861000
vt 0.537200 0.364700
vt 0.567900 0.301100
vt 0.627100 0.346700
vt 0.609200 0.390600
vt 0.136800 0.364800
vt 0.120700 0.405700
vt 0.059800 0.387000
vt 0.081900 0.329100
vt 0.442800 0.790300
vt 0.443200 0.776200
vt 0.500000 0.774400
vt 0.500000 0.788600
vt 0.866400 0.661400
vt 0.850200 0.582100
vt 0.234900 0.287800
vt 0.195600 0.304300
vt 0.160300 0.244000
vt 0.211900 0.220100
vt 0.042900 0.886800
vt 0.035800 0.870400
vt 0.100800 0.847000
vt 0.107100 0.861000
vt 0.526800 0.436500
vt 0.605900 0.436500
vt 0.288600 0.353800
vt 0.257900 0.355500
vt 0.891200 0.088600
vt 0.835300 0.098300
vt 0.833900 0.055600
vt 0.889200 0.045900
vt 0.931400 0.638900
vt 0.905600 0.554300
vt 0.137000 0.535800
vt 0.191900 0.500000
vt 0.208600 0.520300
vt 0.162100 0.570900
vt 0.273600 0.811500
vt 0.270700 0.797500
vt 0.327800 0.787300
vt 0.329000 0.801400
vt 0.537200 0.508300
vt 0.609200 0.482400
vt 0.114000 0.450300
vt 0.049800 0.450300
vt 0.163300 0.840300
vt 0.157500 0.827000
vt 0.214200 0.810900
vt 0.218800 0.824400
vt 0.866400 0.211600
vt 0.931400 0.234200
vt 0.905600 0.318800
vt 0.850200 0.291000
vt 0.327100 0.614500
vt 0.376500 0.603900
vt 0.392000 0.688000
vt 0.331300 0.689500
vt 0.964200 0.870400
vt 0.957100 0.886800
vt 0.567900 0.572000
vt 0.627100 0.526400
vt 0.120700 0.494700
vt 0.181500 0.476000
vt 0.556800 0.776200
vt 0.557200 0.790300
vt 0.799000 0.198500
vt 0.797700 0.275300
vt 0.059800 0.513500
vt 0.385700 0.793800
vt 0.385700 0.779600
vt 0.612600 0.624400
vt 0.656300 0.565100
vt 0.230900 0.536000
vt 0.195600 0.596200
vt 0.671000 0.801400
vt 0.672200 0.787300
vt 0.729300 0.797500
vt 0.726400 0.811500
vt 0.731100 0.197300
vt 0.746100 0.270300
vt 0.234900 0.612700
vt 0.279700 0.617900
vt 0.270900 0.689200
vt 0.211900 0.680400
vt 0.781200 0.824400
vt 0.785800 0.810900
vt 0.668900 0.657200
vt 0.697500 0.591500
vt 0.162100 0.329600
vt 0.115500 0.279100
vt 0.612600 0.248600
vt 0.668900 0.215900
vt 0.697500 0.281600
vt 0.656300 0.308000
vt 0.257900 0.545000
vt 0.288600 0.546700
vt 0.614300 0.793800
vt 0.614300 0.779600
vt 0.376500 0.296600
vt 0.392000 0.212400
vt 0.178200 0.450300
vt 0.738100 0.755500
vt 0.797600 0.764600
vt 0.856000 0.784400
vt 0.912100 0.805300
vt 0.968300 0.821200
vt 0.031700 0.821200
vt 0.087900 0.805300
vt 0.144000 0.784400
vt 0.202400 0.764600
vt 0.261900 0.755500
vt 0.320000 0.740000
vt 0.381400 0.734700
vt 0.441300 0.732500
vt 0.500000 0.733800
vt 0.558700 0.732500
vt 0.618600 0.734700
vt 0.680000 0.740000
vt 0.268500 0.450300
vt 0.322800 0.539500
vt 0.361000 0.519800
vt 0.322800 0.361000
vt 0.361000 0.380700
vt 0.230900 0.364500
vt 0.208600 0.380200
vt 0.191800 0.400600
vt 0.181500 0.424500
vt 0.052200 0.036200
vt 0.108800 0.043500
vt 0.108600 0.045900
vt 0.051700 0.038600
vt 0.106500 0.091700
vt 0.048900 0.084600
vt 0.048800 0.081300
vt 0.106600 0.088600
vt 0.554200 0.055100
vt 0.609900 0.060700
vt 0.609900 0.063200
vt 0.554100 0.057500
vt 0.498900 0.053400
vt 0.498900 0.055800
vt 0.948900 0.084600
vt 0.891300 0.091700
vt 0.949100 0.081400
vt 0.164100 0.053100
vt 0.219600 0.063900
vt 0.219500 0.066400
vt 0.163900 0.055600
vt 0.835400 0.101300
vt 0.666000 0.067700
vt 0.666100 0.070300
vt 0.723900 0.116900
vt 0.667900 0.115900
vt 0.667800 0.113000
vt 0.723800 0.114100
vt 0.779600 0.112100
vt 0.779500 0.109200
vt 0.275600 0.068600
vt 0.275500 0.071300
vt 0.611500 0.108900
vt 0.611400 0.105900
vt 0.722200 0.068600
vt 0.778200 0.063900
vt 0.778300 0.066400
vt 0.722300 0.071300
vt 0.555200 0.103200
vt 0.555200 0.100100
vt 0.160300 0.656500
vt 0.082000 0.571500
vt 0.115600 0.621400
vt 0.765300 0.888200
vt 0.711900 0.881400
vt 0.815000 0.905300
vt 0.863000 0.925900
vt 0.907600 0.952300
vt 0.137000 0.925900
vt 0.092400 0.952300
vt 0.185000 0.905300
vt 0.234700 0.888200
vt 0.288100 0.881400
vt 0.339800 0.866500
vt 0.392500 0.862500
vt 0.445800 0.861900
vt 0.500000 0.864900
vt 0.554200 0.861900
vt 0.607500 0.862500
vt 0.660200 0.866500
vt 0.652700 0.467500
vt 0.665100 0.497700
vt 0.829600 0.346200
vt 0.791900 0.329200
vt 0.686700 0.524600
vt 0.753700 0.323100
vt 0.717300 0.543300
vt 0.717300 0.329800
vt 0.686700 0.348400
vt 0.753700 0.550000
vt 0.665100 0.375300
vt 0.791900 0.543900
vt 0.652700 0.405500
vt 0.829600 0.526900
vt 0.650100 0.436500
vt 0.865400 0.496200
vt 0.865400 0.376800
vt 0.752700 0.436500
vt 0.329900 0.113000
vt 0.274000 0.114100
vt 0.331700 0.070300
vt 0.386300 0.105900
vt 0.387800 0.063200
vt 0.498900 0.095800
vt 0.442600 0.100100
vt 0.443600 0.057500
vt 0.162500 0.098300
vt 0.218300 0.109200
vt 0.946200 0.038600
vt 0.162400 0.101200
vt 0.443600 0.055100
vt 0.218200 0.112100
vt 0.889000 0.043500
vt 0.945600 0.036200
vt 0.273900 0.116900
vt 0.387800 0.060700
vt 0.329900 0.115900
vt 0.833700 0.053100
vt 0.386200 0.108900
vt 0.331700 0.067700
vt 0.442500 0.103200
vt 0.498900 0.098900
vn -0.6971 0.0000 -0.7170
vn -0.3725 0.0000 -0.9280
vn -0.3722 -0.1128 -0.9213
vn -0.6928 -0.1193 -0.7112
vn 0.9239 0.0005 0.3827
vn 0.7071 0.0005 0.7071
vn 0.6939 0.0005 0.7201
vn 0.9199 0.0005 0.3921
vn 0.5879 -0.6358 -0.5001
vn 0.4757 0.6640 -0.5769
vn 0.6674 0.6661 -0.3330
vn 0.7369 -0.6253 -0.2569
vn 0.9200 -0.0000 0.3919
vn 0.6971 -0.0000 0.7170
vn 0.6928 -0.1193 0.7112
vn 0.9137 -0.1197 0.3883
vn -0.7071 0.0005 0.7071
vn -0.9239 0.0005 0.3827
vn -0.9199 0.0005 0.3921
vn -0.6939 0.0005 0.7201
vn -0.7369 -0.6253 0.2569
vn -0.6674 0.6661 0.3330
vn -0.7317 0.6817 -0.0000
vn -0.7945 -0.6072 -0.0000
vn -0.9200 0.0000 -0.3919
vn -0.9137 -0.1197 -0.3883
vn 0.3827 0.0005 0.9239
vn 0.0000 0.0004 1.0000
vn 0.3694 0.0005 0.9293
vn 0.7945 -0.6072 -0.0000
vn 0.7317 0.6817 0.0000
vn 0.6674 0.6661 0.3330
vn 0.7369 -0.6253 0.2569
vn 1.0000 0.0000 0.0000
vn 0.9920 -0.1259 0.0000
vn 0.5275 0.6659 0.5275
vn 0.2855 0.6659 0.6893
vn 0.9020 -0.2581 -0.3460
vn 0.7068 -0.2649 -0.6559
vn 0.6368 0.3243 -0.6995
vn 0.8585 0.3400 -0.3839
vn -1.0000 0.0000 0.0000
vn -0.9920 -0.1259 0.0000
vn -0.7071 0.0005 -0.7071
vn -0.5275 0.6659 -0.5275
vn -0.2855 0.6659 -0.6893
vn -0.3827 0.0005 -0.9239
vn 0.0000 -0.6701 0.7422
vn 0.0000 0.6540 0.7565
vn -0.2426 0.6503 0.7199
vn -0.3296 -0.6648 0.6704
vn 0.9200 0.0000 -0.3919
vn 0.9137 -0.1197 -0.3883
vn -1.0000 0.0005 -0.0000
vn 0.5879 -0.6358 0.5001
vn 0.4757 0.6640 0.5769
vn 0.2426 0.6503 0.7199
vn 0.3296 -0.6648 0.6704
vn -0.9200 0.0000 0.3919
vn -0.9137 -0.1197 0.3883
vn 0.9239 0.0005 -0.3827
vn 1.0000 0.0005 -0.0000
vn 0.9199 0.0005 -0.3921
vn 0.6971 -0.0000 -0.7170
vn 0.6928 -0.1193 -0.7112
vn -0.9239 0.0005 -0.3827
vn -0.6892 0.6659 -0.2855
vn -0.6674 0.6661 -0.3330
vn -0.7369 -0.6253 -0.2569
vn -0.6971 -0.0000 0.7170
vn -0.6928 -0.1193 0.7112
vn -0.9199 0.0005 -0.3921
vn -0.5879 -0.6358 0.5001
vn -0.4757 0.6640 0.5769
vn 0.3725 0.0000 -0.9280
vn 0.3722 -0.1128 -0.9213
vn 0.0000 0.6659 -0.7461
vn 0.0000 0.0005 -1.0000
vn -0.3296 -0.6648 -0.6704
vn -0.2426 0.6503 -0.7199
vn -0.0000 0.6540 -0.7565
vn -0.0000 -0.6701 -0.7422
vn -0.3725 -0.0000 0.9280
vn -0.3722 -0.1128 0.9213
vn 0.3827 0.0005 -0.9239
vn 0.7071 0.0005 -0.7071
vn 0.6939 0.0005 -0.7201
vn 0.3694 0.0005 -0.9293
vn 0.3296 -0.6648 -0.6704
vn 0.2426 0.6503 -0.7199
vn 0.0000 0.0000 -1.0000
vn 0.0000 -0.1133 -0.9936
vn -0.3827 0.0005 0.9239
vn -0.3694 0.0005 0.9293
vn 0.3725 -0.0000 0.9280
vn -0.0000 0.0000 1.0000
vn -0.0000 -0.1133 0.9936
vn 0.3722 -0.1128 0.9213
vn 0.2855 0.6659 -0.6893
vn 0.5275 0.6659 -0.5275
vn -0.5879 -0.6358 -0.5001
vn -0.4757 0.6640 -0.5769
vn -0.7460 0.6659 -0.0000
vn 0.0000 1.0000 -0.0074
vn -0.0795 0.9959 -0.0433
vn -0.0857 0.9925 -0.0873
vn -0.0306 0.9960 -0.0840
vn -0.0049 1.0000 0.0000
vn -0.0306 0.9960 0.0840
vn -0.0857 0.9925 0.0873
vn -0.0795 0.9959 0.0433
vn 0.0000 1.0000 0.0074
vn 0.0795 0.9959 0.0433
vn 0.0857 0.9925 0.0873
vn 0.0306 0.9960 0.0840
vn 0.0049 1.0000 -0.0000
vn 0.0306 0.9960 -0.0840
vn 0.0857 0.9925 -0.0873
vn 0.0795 0.9959 -0.0433
vn 0.0000 1.0000 0.0000
vn 0.6892 0.6659 -0.2855
vn 0.7460 0.6659 -0.0000
vn 0.6892 0.6659 0.2855
vn 0.0000 0.6659 0.7461
vn -0.2855 0.6659 0.6893
vn -0.5275 0.6659 0.5275
vn -0.6892 0.6659 0.2855
vn 0.7585 0.6517 0.0000
vn 0.6860 0.6465 0.3339
vn 0.8585 0.3400 0.3839
vn 0.9402 0.3406 0.0000
vn 0.8062 -0.5197 0.2826
vn 0.8586 -0.5126 0.0000
vn 0.9696 -0.2448 0.0000
vn 0.9020 -0.2580 0.3460
vn -0.6860 0.6465 -0.3339
vn -0.4891 0.6289 -0.6044
vn -0.6368 0.3243 -0.6995
vn -0.8585 0.3400 -0.3839
vn -0.7586 0.6516 0.0000
vn -0.9402 0.3406 0.0000
vn 0.8062 -0.5197 -0.2826
vn 0.4891 0.6289 0.6044
vn 0.2459 0.6102 0.7531
vn 0.3378 0.3009 0.8919
vn 0.6369 0.3243 0.6995
vn 0.6445 -0.5313 -0.5499
vn -0.2459 0.6102 -0.7531
vn -0.3378 0.3009 -0.8919
vn 0.0000 -0.5536 -0.8328
vn -0.3637 -0.5478 -0.7534
vn -0.3938 -0.2854 -0.8738
vn 0.0000 -0.2881 -0.9576
vn 0.3637 -0.5477 -0.7535
vn 0.3938 -0.2854 -0.8738
vn 0.0000 0.6053 0.7960
vn 0.0000 0.2987 0.9543
vn -0.6445 -0.5312 -0.5499
vn -0.7068 -0.2649 -0.6559
vn 0.0000 0.6053 -0.7960
vn 0.2459 0.6102 -0.7531
vn 0.3378 0.3008 -0.8919
vn 0.0000 0.2988 -0.9543
vn -0.8063 -0.5197 -0.2826
vn -0.9021 -0.2580 -0.3460
vn -0.6939 0.0005 -0.7201
vn -0.3694 0.0005 -0.9293
vn 0.0868 -0.9962 0.0078
vn 0.0000 -0.9999 -0.0136
vn 0.1289 -0.9912 0.0297
vn 0.1260 -0.9914 0.0366
vn 0.1264 -0.9920 -0.0000
vn 0.1260 -0.9914 -0.0366
vn 0.1289 -0.9912 -0.0297
vn 0.0868 -0.9962 -0.0078
vn 0.0000 -0.9999 0.0136
vn -0.0868 -0.9962 -0.0078
vn -0.1289 -0.9912 -0.0297
vn -0.1260 -0.9914 -0.0366
vn -0.1264 -0.9920 -0.0000
vn -0.1260 -0.9914 0.0366
vn -0.1289 -0.9912 0.0297
vn -0.0868 -0.9962 0.0078
vn 0.6138 -0.7238 -0.3154
vn 0.4410 -0.7124 -0.5459
vn -0.6138 -0.7238 0.3154
vn -0.4410 -0.7124 0.5459
vn 0.2287 -0.6844 -0.6923
vn -0.2287 -0.6844 0.6923
vn 0.0000 -0.6835 -0.7299
vn -0.0000 -0.6835 0.7299
vn 0.2287 -0.6844 0.6923
vn -0.2287 -0.6844 -0.6923
vn 0.4410 -0.7124 0.5459
vn -0.4410 -0.7124 -0.5459
vn 0.6138 -0.7238 0.3154
vn -0.6138 -0.7238 -0.3154
vn 0.6643 -0.7475 0.0000
vn -0.6643 -0.7475 0.0000
vn -0.0000 -1.0000 0.0000
vn -0.3938 -0.2854 0.8738
vn 0.0000 -0.2881 0.9576
vn -0.3378 0.3008 0.8919
vn -0.7068 -0.2649 0.6559
vn -0.6368 0.3243 0.6995
vn -0.9696 -0.2448 0.0000
vn -0.9020 -0.2580 0.3460
vn -0.8585 0.3400 0.3839
vn 0.7068 -0.2649 0.6559
vn 0.3938 -0.2854 0.8738
vn 0.6445 -0.5312 0.5499
vn -0.6860 0.6465 0.3339
vn 0.3637 -0.5477 0.7535
vn 0.6859 0.6465 -0.3339
vn 0.0000 -0.5535 0.8328
vn -0.4891 0.6289 0.6044
vn -0.3637 -0.5477 0.7535
vn 0.4891 0.6289 -0.6044
vn -0.6445 -0.5312 0.5499
vn -0.2459 0.6102 0.7531
vn -0.8063 -0.5197 0.2826
vn -0.8587 -0.5126 -0.0000
usemtl TetrisTopHat
s 1
f 1/1/1 2/2/2 3/3/3 4/4/4
f 5/5/5 6/6/6 7/7/7 8/8/8
f 9/9/9 10/10/10 11/11/11 12/12/12
f 13/13/13 14/14/14 15/15/15 16/16/16
f 17/17/17 18/18/18 19/19/19 20/20/20
f 21/21/21 22/22/22 23/23/23 24/24/24
f 25/25/25 1/1/1 4/4/4 26/26/26
f 27/27/27 28/28/28 29/29/28 30/30/29
f 31/31/30 32/32/31 33/33/32 34/34/33
f 35/35/34 13/13/13 16/16/16 36/36/35
f 6/6/6 37/37/36 38/38/37 27/27/27
f 39/39/38 40/40/39 41/41/40 42/42/41
f 43/43/42 25/25/25 26/26/26 44/44/43
f 45/45/44 46/46/45 47/47/46 48/48/47
f 49/49/48 50/50/49 51/51/50 52/52/51
f 53/53/52 35/35/34 36/36/35 54/54/53
f 18/18/18 55/55/54 56/56/54 19/19/19
f 57/57/55 58/58/56 59/59/57 60/60/58
f 61/61/59 43/62/42 44/63/43 62/64/60
f 63/65/61 64/66/62 65/67/62 66/68/63
f 12/12/12 11/11/11 32/69/31 31/70/30
f 67/71/64 53/53/52 54/54/53 68/72/65
f 69/73/66 70/74/67 46/46/45 45/45/44
f 24/24/24 23/23/23 71/75/68 72/76/69
f 73/77/70 61/61/59 62/64/60 74/78/71
f 55/55/54 69/73/66 75/79/72 56/56/54
f 76/80/73 77/81/74 22/22/22 21/21/21
f 78/82/75 67/71/64 68/72/65 79/83/76
f 47/47/46 80/84/77 81/85/78 48/48/47
f 82/86/79 83/87/80 84/88/81 85/89/82
f 86/90/83 73/77/70 74/78/71 87/91/84
f 88/92/85 89/93/86 90/94/87 91/95/88
f 92/96/89 93/97/90 10/10/10 9/9/9
f 94/98/91 78/82/75 79/83/76 95/99/92
f 96/100/93 17/17/17 20/20/20 97/101/94
f 34/34/33 33/33/32 58/58/56 57/57/55
f 98/102/95 99/103/96 100/104/97 101/105/98
f 102/106/99 103/107/100 89/93/86 88/92/85
f 85/89/82 84/88/81 93/97/90 92/96/89
f 99/103/96 86/90/83 87/91/84 100/104/97
f 28/28/28 96/100/93 97/101/94 29/29/28
f 104/108/101 105/109/102 83/87/80 82/86/79
f 2/2/2 94/98/91 95/99/92 3/3/3
f 64/110/62 5/5/5 8/8/8 65/111/62
f 52/52/51 51/51/50 77/81/74 76/80/73
f 14/14/14 98/102/95 101/105/98 15/15/15
f 106/112/103 70/74/67 69/73/66 55/55/54
f 60/60/58 59/59/57 50/50/49 49/49/48
f 107/113/104 108/114/105 93/97/90 84/88/81
f 108/114/105 109/115/106 10/10/10 93/97/90
f 109/115/106 110/116/107 11/11/11 10/10/10
f 110/116/107 111/117/108 32/69/31 11/11/11
f 111/118/108 112/119/109 33/33/32 32/32/31
f 112/119/109 113/120/110 58/58/56 33/33/32
f 113/120/110 114/121/111 59/59/57 58/58/56
f 114/121/111 115/122/112 50/50/49 59/59/57
f 115/122/112 116/123/113 51/51/50 50/50/49
f 116/123/113 117/124/114 77/81/74 51/51/50
f 117/124/114 118/125/115 22/22/22 77/81/74
f 118/125/115 119/126/116 23/23/23 22/22/22
f 119/126/116 120/127/117 71/75/68 23/23/23
f 120/127/117 121/128/118 105/109/102 71/75/68
f 121/128/118 122/129/119 83/87/80 105/109/102
f 122/129/119 107/113/104 84/88/81 83/87/80
f 123/130/120 102/106/99 80/84/77
f 123/130/120 103/107/100 102/106/99
f 123/130/120 124/131/121 103/107/100
f 123/130/120 125/132/122 124/131/121
f 123/130/120 126/133/123 125/134/122
f 123/130/120 37/37/36 126/133/123
f 123/130/120 38/38/37 37/37/36
f 123/130/120 127/135/124 38/38/37
f 123/130/120 128/136/125 127/135/124
f 123/130/120 129/137/126 128/136/125
f 123/130/120 130/138/127 129/137/126
f 123/130/120 106/112/103 130/138/127
f 123/130/120 70/74/67 106/112/103
f 123/130/120 46/46/45 70/74/67
f 123/130/120 47/47/46 46/46/45
f 123/130/120 80/84/77 47/47/46
f 81/85/78 80/84/77 102/106/99 88/92/85
f 65/139/128 8/140/129 131/141/130 132/142/131
f 112/143/132 111/144/133 133/145/134 134/146/135
f 75/147/136 135/148/137 136/149/138 137/150/139
f 56/151/140 75/147/136 137/150/139 138/152/141
f 111/153/133 110/154/142 39/39/38 133/155/134
f 7/156/143 30/157/144 139/158/145 140/159/146
f 8/140/129 7/156/143 140/159/146 131/141/130
f 110/154/142 109/160/147 40/40/39 39/39/38
f 135/148/137 141/161/148 142/162/149 136/149/138
f 107/163/150 122/164/151 143/165/152 144/166/153
f 109/160/147 108/167/154 145/168/155 40/40/39
f 30/157/144 29/169/156 146/170/157 139/158/145
f 122/164/151 121/171/158 147/172/159 143/165/152
f 108/167/154 107/163/150 144/166/153 145/168/155
f 148/173/160 91/174/161 149/175/162 150/176/163
f 121/171/158 120/177/164 151/178/165 147/172/159
f 125/134/122 126/133/123 5/5/5 64/110/62
f 124/131/121 125/132/122 64/66/62 63/65/61
f 130/138/127 106/112/103 55/55/54 18/18/18
f 126/133/123 37/37/36 6/6/6 5/5/5
f 127/135/124 128/136/125 96/100/93 28/28/28
f 148/179/78 81/85/78 88/92/85 91/95/88
f 135/180/166 45/45/44 48/48/47 141/181/167
f 103/107/100 124/131/121 63/65/61 89/93/86
f 38/38/37 127/135/124 28/28/28 27/27/27
f 7/7/7 6/6/6 27/27/27 30/30/29
f 129/137/126 130/138/127 18/18/18 17/17/17
f 75/79/72 69/73/66 45/45/44 135/180/166
f 89/93/86 63/65/61 66/68/63 90/94/87
f 86/182/168 99/183/169 85/89/82 92/96/89
f 73/184/170 86/182/168 92/96/89 9/9/9
f 61/185/171 73/184/170 9/9/9 12/12/12
f 43/186/172 61/185/171 12/12/12 31/70/30
f 25/187/173 43/188/172 31/31/30 34/34/33
f 1/189/174 25/187/173 34/34/33 57/57/55
f 2/190/175 1/189/174 57/57/55 60/60/58
f 94/191/176 2/190/175 60/60/58 49/49/48
f 78/192/177 94/191/176 49/49/48 52/52/51
f 67/193/178 78/192/177 52/52/51 76/80/73
f 53/194/179 67/193/178 76/80/73 21/21/21
f 35/195/180 53/194/179 21/21/21 24/24/24
f 13/196/181 35/195/180 24/24/24 72/76/69
f 14/197/182 13/196/181 72/76/69 104/108/101
f 98/198/183 14/197/182 104/108/101 82/86/79
f 99/183/169 98/198/183 82/86/79 85/89/82
f 68/72/65 54/54/53 152/199/184 153/200/185
f 74/78/71 62/64/60 154/201/186 155/202/187
f 79/83/76 68/72/65 153/200/185 156/203/188
f 87/91/84 74/78/71 155/202/187 157/204/189
f 95/99/92 79/83/76 156/203/188 158/205/190
f 101/105/98 100/104/97 159/206/191 160/207/192
f 100/104/97 87/91/84 157/204/189 159/206/191
f 3/3/3 95/99/92 158/205/190 161/208/193
f 15/15/15 101/105/98 160/207/192 162/209/194
f 4/4/4 3/3/3 161/208/193 163/210/195
f 16/16/16 15/15/15 162/209/194 164/211/196
f 26/26/26 4/4/4 163/210/195 165/212/197
f 36/36/35 16/16/16 164/211/196 166/213/198
f 44/44/43 26/26/26 165/212/197 167/214/199
f 54/54/53 36/36/35 166/213/198 152/199/184
f 62/64/60 44/63/43 167/215/199 154/201/186
f 168/216/200 159/206/191 157/204/189
f 168/216/200 157/204/189 155/202/187
f 168/216/200 155/202/187 154/201/186
f 168/216/200 154/201/186 167/215/199
f 168/216/200 167/214/199 165/212/197
f 168/216/200 165/212/197 163/210/195
f 168/216/200 163/210/195 161/208/193
f 168/216/200 161/208/193 158/205/190
f 168/216/200 158/205/190 156/203/188
f 168/216/200 156/203/188 153/200/185
f 168/216/200 153/200/185 152/199/184
f 168/216/200 152/199/184 166/213/198
f 168/216/200 166/213/198 164/211/196
f 168/216/200 164/211/196 162/209/194
f 168/216/200 162/209/194 160/207/192
f 168/216/200 160/207/192 159/206/191
f 169/217/201 170/218/202 146/170/157 171/219/203
f 147/172/159 151/178/165 137/150/139 136/149/138
f 172/220/204 169/217/201 171/219/203 173/221/205
f 151/178/165 174/222/206 138/152/141 137/150/139
f 175/223/207 172/220/204 173/221/205 176/224/208
f 174/222/206 175/223/207 176/224/208 138/152/141
f 177/225/209 134/146/135 131/141/130 140/159/146
f 178/226/210 177/225/209 140/159/146 139/158/145
f 134/146/135 133/145/134 132/142/131 131/141/130
f 133/155/134 39/39/38 42/42/41 132/227/131
f 40/40/39 145/168/155 149/175/162 41/41/40
f 145/168/155 144/166/153 150/176/163 149/175/162
f 144/166/153 143/165/152 142/162/149 150/176/163
f 170/218/202 178/226/210 139/158/145 146/170/157
f 143/165/152 147/172/159 136/149/138 142/162/149
f 113/228/211 112/143/132 134/146/135 177/225/209
f 19/229/212 56/151/140 138/152/141 176/224/208
f 114/230/213 113/228/211 177/225/209 178/226/210
f 66/231/214 65/232/128 132/227/131 42/42/41
f 115/233/215 114/230/213 178/226/210 170/218/202
f 20/234/216 19/229/212 176/224/208 173/221/205
f 116/235/217 115/233/215 170/218/202 169/217/201
f 90/236/218 66/231/214 42/42/41 41/41/40
f 117/237/219 116/235/217 169/217/201 172/220/204
f 97/238/220 20/234/216 173/221/205 171/219/203
f 118/239/221 117/237/219 172/220/204 175/223/207
f 91/174/161 90/236/218 41/41/40 149/175/162
f 119/240/222 118/239/221 175/223/207 174/222/206
f 29/169/156 97/238/220 171/219/203 146/170/157
f 120/177/164 119/240/222 174/222/206 151/178/165
f 141/161/148 148/173/160 150/176/163 142/162/149
f 48/48/47 81/85/78 148/179/78 141/181/167
f 72/76/69 71/75/68 105/109/102 104/108/101
f 128/136/125 129/137/126 17/17/17 96/100/93
