# Blender v2.79 (sub 0) OBJ File: 'BPRAvatar.blend'
# www.blender.org
mtllib 6.mtl
o Shades_Cylinder.000
v -0.650416 5.524714 -0.175228
v -0.730556 5.548855 0.079644
v -0.742039 5.443316 0.077380
v -0.650416 5.467451 -0.175228
v -0.690245 5.443316 0.376585
v -0.661028 5.548855 0.405786
v -0.763532 5.548855 0.074715
v -0.661363 5.524714 -0.198814
v -0.661363 5.467451 -0.198814
v -0.763532 5.443316 0.074715
v -0.708895 5.443316 0.425277
v -0.707605 5.548855 0.420481
v -0.752785 5.443316 0.076049
v -0.655891 5.467451 -0.187019
v -0.699567 5.443316 0.400934
v -0.553189 5.443316 0.567123
v -0.548108 5.443316 0.608198
v -0.501816 5.217704 0.613499
v -0.508031 5.217704 0.638167
v -0.558276 5.443316 0.526043
v -0.496852 5.540823 0.591836
v -0.495608 5.217704 0.588825
v -0.406833 5.217704 0.660654
v -0.278420 5.548855 0.743437
v -0.278420 5.217704 0.716760
v -0.150362 5.411119 0.749730
v -0.195878 5.217704 0.753544
v -0.102898 5.548855 0.778072
v -0.102898 5.443316 0.765497
v -0.533669 5.548855 0.615541
v -0.212313 5.217704 0.794882
v -0.150362 5.411119 0.805271
v -0.332238 5.548855 0.755093
v -0.332238 5.217704 0.753186
v -0.501429 5.217704 0.655330
v -0.102898 5.443316 0.804245
v -0.102898 5.548855 0.788943
v -0.454128 5.217704 0.657995
v -0.305333 5.217704 0.734972
v -0.204096 5.217704 0.774214
v -0.150362 5.411119 0.777500
v -0.102898 5.443316 0.784871
v -0.305333 5.548855 0.749265
v -0.102898 5.548855 0.783508
v -0.515261 5.544839 0.603689
v -0.684316 5.548855 0.413133
v -0.747043 5.548855 0.077182
v -0.655891 5.524714 -0.187019
v 0.444621 5.524714 -0.175228
v 0.444621 5.467451 -0.175228
v 0.536243 5.443316 0.077380
v 0.524761 5.548855 0.079644
v 0.484449 5.443316 0.376585
v 0.455232 5.548855 0.405786
v 0.557736 5.548855 0.074715
v 0.557736 5.443316 0.074715
v 0.455568 5.467451 -0.198814
v 0.455568 5.524714 -0.198814
v 0.501810 5.548855 0.420481
v 0.503099 5.443316 0.425277
v 0.546989 5.443316 0.076049
v 0.450095 5.467451 -0.187019
v 0.493771 5.443316 0.400934
v 0.347394 5.443316 0.567123
v 0.342312 5.443316 0.608198
v 0.302235 5.217704 0.638167
v 0.296021 5.217704 0.613499
v 0.352480 5.443316 0.526043
v 0.291056 5.540823 0.591836
v 0.289812 5.217704 0.588825
v 0.201037 5.217704 0.660654
v 0.072624 5.548855 0.743437
v 0.072624 5.217704 0.716760
v -0.009918 5.217704 0.753544
v -0.055434 5.411119 0.749730
v 0.327874 5.548855 0.615541
v 0.006518 5.217704 0.794882
v 0.126443 5.217704 0.753186
v 0.126443 5.548855 0.755093
v -0.055434 5.411119 0.805271
v 0.295634 5.217704 0.655330
v 0.248333 5.217704 0.657995
v 0.099537 5.217704 0.734972
v -0.001700 5.217704 0.774214
v -0.055434 5.411119 0.777500
v 0.099537 5.548855 0.749265
v 0.309466 5.544839 0.603689
v 0.478520 5.548855 0.413133
v 0.541247 5.548855 0.077182
v 0.450095 5.524714 -0.187019
vt 0.033200 0.643400
vt 0.111400 0.602800
vt 0.087500 0.565000
vt 0.024600 0.628300
vt 0.193800 0.487400
vt 0.227400 0.521000
vt 0.118600 0.313400
vt 0.033800 0.325000
vt 0.032900 0.322200
vt 0.100600 0.269600
vt 0.221400 0.225700
vt 0.236000 0.261700
vt 0.085000 0.561700
vt 0.020000 0.628900
vt 0.197400 0.476900
vt 0.282200 0.177000
vt 0.301600 0.176900
vt 0.212000 0.223100
vt 0.303200 0.066500
vt 0.315900 0.069300
vt 0.293300 0.439200
vt 0.329800 0.487000
vt 0.354600 0.384200
vt 0.391100 0.382600
vt 0.429900 0.513800
vt 0.436200 0.392600
vt 0.477900 0.452300
vt 0.459700 0.398000
vt 0.500300 0.513100
vt 0.500300 0.465200
vt 0.326400 0.218800
vt 0.441800 0.702400
vt 0.476000 0.798100
vt 0.383900 0.870000
vt 0.378400 0.704500
vt 0.280700 0.707500
vt 0.261500 0.873900
vt 0.251700 0.821400
vt 0.271500 0.707600
vt 0.499800 0.814100
vt 0.499800 0.867500
vt 0.331600 0.055500
vt 0.322700 0.065100
vt 0.395100 0.048500
vt 0.387700 0.059300
vt 0.463500 0.392200
vt 0.433000 0.382500
vt 0.485000 0.446400
vt 0.492600 0.116100
vt 0.509900 0.131000
vt 0.508900 0.139800
vt 0.485400 0.125100
vt 0.420200 0.518900
vt 0.500300 0.515300
vt 0.331800 0.225800
vt 0.411900 0.190100
vt 0.421600 0.194000
vt 0.327800 0.496200
vt 0.229700 0.531200
vt 0.113800 0.609100
vt 0.030300 0.648200
vt 0.034000 0.328200
vt 0.030100 0.320100
vt 0.967400 0.643400
vt 0.976000 0.628300
vt 0.913200 0.565000
vt 0.889200 0.602800
vt 0.806800 0.487400
vt 0.773200 0.521000
vt 0.890200 0.315200
vt 0.906700 0.273500
vt 0.971600 0.322500
vt 0.970700 0.325200
vt 0.778200 0.267900
vt 0.791500 0.233300
vt 0.915700 0.561700
vt 0.980600 0.628900
vt 0.803200 0.476900
vt 0.733300 0.188000
vt 0.800400 0.230800
vt 0.716100 0.188400
vt 0.700500 0.099500
vt 0.709700 0.095200
vt 0.707300 0.439200
vt 0.670800 0.487000
vt 0.646000 0.384200
vt 0.609600 0.382600
vt 0.570700 0.513800
vt 0.564400 0.392600
vt 0.540900 0.398000
vt 0.522700 0.452300
vt 0.692100 0.228000
vt 0.557800 0.702400
vt 0.621200 0.704500
vt 0.615700 0.870000
vt 0.523600 0.798100
vt 0.718900 0.707500
vt 0.728100 0.707600
vt 0.747900 0.821400
vt 0.738100 0.873900
vt 0.694200 0.098100
vt 0.685200 0.085800
vt 0.629300 0.075200
vt 0.624100 0.062400
vt 0.537100 0.392200
vt 0.567600 0.382500
vt 0.515600 0.446400
vt 0.529000 0.120800
vt 0.535200 0.130700
vt 0.580400 0.518900
vt 0.686900 0.234700
vt 0.597100 0.200900
vt 0.608000 0.197200
vt 0.672900 0.496200
vt 0.770900 0.531200
vt 0.886800 0.609100
vt 0.970400 0.648200
vt 0.970600 0.328200
vt 0.974200 0.320400
vt 0.888400 0.320300
vt 0.773500 0.275200
vt 0.502700 0.190900
vt 0.502800 0.188600
vt 0.500300 0.455100
vt 0.583700 0.072700
vt 0.579700 0.065000
vt 0.625100 0.371800
vt 0.646200 0.376600
vt 0.700600 0.415000
vt 0.908100 0.270500
vt 0.120600 0.318700
vt 0.241100 0.269400
vt 0.432100 0.066000
vt 0.436600 0.058900
vt 0.375500 0.371800
vt 0.354400 0.376600
vt 0.300000 0.415000
vt 0.099000 0.266500
vn 0.8053 0.5873 -0.0811
vn 0.6816 0.7317 0.0094
vn 0.5965 -0.8026 0.0103
vn 0.7837 -0.6166 -0.0751
vn 0.5444 -0.8067 -0.2298
vn 0.5998 0.7259 -0.3366
vn -0.7347 0.6717 -0.0952
vn -0.0568 0.5204 -0.8521
vn -0.0523 -0.5213 -0.8518
vn -0.7367 -0.6697 -0.0941
vn -0.6942 -0.6380 0.3331
vn -0.6740 0.6719 0.3071
vn 0.0284 -0.9990 -0.0351
vn 0.6554 -0.6775 -0.3338
vn 0.0000 -1.0000 0.0000
vn -0.6209 -0.7838 -0.0106
vn -0.8491 -0.1514 0.5060
vn -0.6231 -0.7821 -0.0107
vn -0.6663 -0.6902 0.2822
vn 0.4037 -0.6301 -0.6634
vn 0.4572 0.6916 -0.5591
vn -0.1830 -0.7153 -0.6745
vn 0.3930 -0.7341 -0.5538
vn 0.2343 0.7634 -0.6020
vn 0.2644 -0.7040 -0.6591
vn 0.6303 -0.2459 -0.7364
vn 0.6273 -0.6267 -0.4623
vn 0.0000 0.7947 -0.6069
vn 0.0000 -0.5055 -0.8628
vn -0.4527 0.7242 0.5201
vn 0.2933 -0.6734 0.6786
vn 0.3431 -0.3167 0.8843
vn -0.2691 0.7031 0.6582
vn -0.3052 -0.6817 0.6649
vn -0.4987 -0.6169 0.6089
vn 0.0000 -0.4148 0.9099
vn 0.0000 0.7342 0.6789
vn 0.5965 -0.7962 0.1012
vn 0.8070 -0.5843 0.0860
vn 0.0240 0.9984 -0.0514
vn 0.0000 1.0000 -0.0000
vn 0.0629 0.9955 -0.0707
vn 0.0371 0.9990 -0.0238
vn 0.0241 0.9990 -0.0371
vn 0.6514 0.6797 -0.3373
vn -0.8053 0.5873 -0.0810
vn -0.7837 -0.6166 -0.0751
vn -0.5965 -0.8026 0.0103
vn -0.6816 0.7317 0.0094
vn -0.5444 -0.8067 -0.2298
vn -0.5998 0.7259 -0.3366
vn 0.7347 0.6717 -0.0952
vn 0.7367 -0.6697 -0.0941
vn 0.0523 -0.5213 -0.8518
vn 0.0568 0.5204 -0.8521
vn 0.6740 0.6719 0.3071
vn 0.6942 -0.6380 0.3331
vn -0.0284 -0.9990 -0.0351
vn -0.6554 -0.6775 -0.3338
vn 0.6209 -0.7838 -0.0106
vn 0.8491 -0.1514 0.5060
vn 0.6663 -0.6902 0.2822
vn 0.6231 -0.7821 -0.0107
vn -0.4037 -0.6301 -0.6634
vn -0.4572 0.6916 -0.5591
vn 0.1830 -0.7153 -0.6745
vn -0.3930 -0.7341 -0.5538
vn -0.2343 0.7634 -0.6020
vn -0.2644 -0.7040 -0.6591
vn -0.6273 -0.6267 -0.4623
vn -0.6303 -0.2459 -0.7364
vn 0.4527 0.7242 0.5201
vn -0.2934 -0.6734 0.6786
vn 0.3052 -0.6817 0.6649
vn 0.2691 0.7031 0.6582
vn -0.3431 -0.3167 0.8843
vn 0.4987 -0.6169 0.6089
vn -0.5965 -0.7962 0.1012
vn -0.8070 -0.5843 0.0860
vn -0.0240 0.9984 -0.0514
vn -0.0629 0.9955 -0.0707
vn -0.0371 0.9990 -0.0238
vn -0.0241 0.9990 -0.0371
vn -0.6514 0.6797 -0.3373
usemtl Shades.001
s 1
f 1/1/1 2/2/2 3/3/3 4/4/4
f 5/5/5 3/3/3 2/2/2 6/6/6
f 7/7/7 8/8/8 9/9/9 10/10/10
f 7/7/7 10/10/10 11/11/11 12/12/12
f 13/13/13 14/14/14 4/4/4 3/3/3
f 13/13/13 3/3/3 5/5/5 15/15/15
f 16/16/16 17/17/17 11/11/11 15/18/15
f 16/16/16 18/19/18 19/20/19 17/17/17
f 20/21/20 5/5/5 6/6/6 21/22/21
f 22/23/22 20/21/20 21/22/21 23/24/23
f 24/25/24 25/26/25 23/24/23 21/22/21
f 25/26/25 24/25/24 26/27/26 27/28/27
f 26/27/26 24/25/24 28/29/28 29/30/29
f 30/31/30 12/12/12 11/11/11 17/17/17
f 31/32/31 32/33/32 33/34/33 34/35/34
f 35/36/35 30/37/30 17/38/17 19/39/19
f 30/37/30 35/36/35 34/35/34 33/34/33
f 32/33/32 36/40/36 37/41/37 33/34/33
f 18/19/18 38/42/15 35/43/35 19/20/19
f 38/42/15 39/44/15 34/45/34 35/43/35
f 40/46/38 39/47/15 25/26/25 27/28/27
f 40/46/38 27/28/27 26/27/26 41/48/39
f 41/49/39 42/50/15 36/51/36 32/52/32
f 43/53/40 44/54/41 28/29/28 24/25/24
f 45/55/42 30/31/30 33/56/33 43/57/40
f 45/58/42 21/22/21 6/6/6 46/59/43
f 46/59/43 6/6/6 2/2/2 47/60/44
f 47/60/44 2/2/2 1/1/1 48/61/45
f 48/62/45 14/63/14 9/9/9 8/8/8
f 49/64/46 50/65/47 51/66/48 52/67/49
f 53/68/50 54/69/51 52/67/49 51/66/48
f 55/70/52 56/71/53 57/72/54 58/73/55
f 55/70/52 59/74/56 60/75/57 56/71/53
f 61/76/58 51/66/48 50/65/47 62/77/59
f 61/76/58 63/78/15 53/68/50 51/66/48
f 64/79/60 63/80/15 60/75/57 65/81/61
f 64/79/60 65/81/61 66/82/62 67/83/63
f 68/84/64 69/85/65 54/69/51 53/68/50
f 70/86/66 71/87/67 69/85/65 68/84/64
f 72/88/68 69/85/65 71/87/67 73/89/69
f 73/89/69 74/90/70 75/91/71 72/88/68
f 75/91/71 29/30/29 28/29/28 72/88/68
f 76/92/72 65/81/61 60/75/57 59/74/56
f 77/93/73 78/94/74 79/95/75 80/96/76
f 81/97/77 66/98/62 65/99/61 76/100/72
f 76/100/72 79/95/75 78/94/74 81/97/77
f 80/96/76 79/95/75 37/41/37 36/40/36
f 67/83/63 66/82/62 81/101/77 82/102/15
f 82/102/15 81/101/77 78/103/74 83/104/15
f 84/105/78 74/90/70 73/89/69 83/106/15
f 84/105/78 85/107/79 75/91/71 74/90/70
f 85/108/79 80/109/76 36/51/36 42/50/15
f 86/110/80 72/88/68 28/29/28 44/54/41
f 87/111/81 86/112/80 79/113/75 76/92/72
f 87/114/81 88/115/82 54/69/51 69/85/65
f 88/115/82 89/116/83 52/67/49 54/69/51
f 89/116/83 90/117/84 49/64/46 52/67/49
f 90/118/84 58/73/55 57/72/54 62/119/59
f 49/64/46 90/117/84 62/77/59 50/65/47
f 55/70/52 58/73/55 90/118/84 89/120/83
f 59/74/56 55/70/52 89/120/83 88/121/82
f 76/92/72 59/74/56 88/121/82 87/111/81
f 69/85/65 72/88/68 86/110/80 87/114/81
f 79/113/75 86/112/80 44/122/41 37/123/37
f 75/91/71 85/107/79 42/124/15 29/30/29
f 77/125/73 80/109/76 85/108/79 84/126/78
f 77/125/73 84/126/78 83/104/15 78/103/74
f 71/87/67 82/127/15 83/106/15 73/89/69
f 70/86/66 67/128/63 82/127/15 71/87/67
f 68/84/64 64/129/60 67/128/63 70/86/66
f 68/84/64 53/68/50 63/78/15 64/129/60
f 56/71/53 60/75/57 63/80/15 61/130/58
f 56/71/53 61/130/58 62/119/59 57/72/54
f 1/1/1 4/4/4 14/14/14 48/61/45
f 7/7/7 47/131/44 48/62/45 8/8/8
f 12/12/12 46/132/43 47/131/44 7/7/7
f 30/31/30 45/55/42 46/132/43 12/12/12
f 21/22/21 45/58/42 43/53/40 24/25/24
f 33/56/33 37/123/37 44/122/41 43/57/40
f 26/27/26 29/30/29 42/124/15 41/48/39
f 31/133/31 40/134/38 41/49/39 32/52/32
f 31/133/31 34/45/34 39/44/15 40/134/38
f 23/24/23 25/26/25 39/47/15 38/135/15
f 22/23/22 23/24/23 38/135/15 18/136/18
f 20/21/20 22/23/22 18/136/18 16/137/16
f 20/21/20 16/137/16 15/15/15 5/5/5
f 10/10/10 13/138/13 15/18/15 11/11/11
f 10/10/10 9/9/9 14/63/14 13/138/13
