# Exported from Wings 3D 2.1.5
mtllib piratescleaver.mtl
o cleaver_Untitled
#75 vertices, 81 faces
v -1.25793524 3.31241550 1.19654324
v -1.08025113 3.42702696 1.09569711
v -1.26245624 3.31241550 1.00326940
v -1.44014035 3.42702696 1.10411553
v -1.25773137 4.04649292 1.20525851
v -1.15484355 4.04649292 1.09744195
v -1.26266010 4.04649292 0.99455413
v -1.36554793 4.04649292 1.10237068
v -1.13869468 3.50522941 1.09706421
v -1.25735363 3.50522941 1.22140738
v -1.26303785 3.50522941 0.97840526
v -1.38169680 3.50522941 1.10274843
v -1.25869074 3.77598937 1.16424549
v -1.19585657 3.77598937 1.09840132
v -1.26170074 3.77598937 1.03556715
v -1.32453491 3.77598937 1.10141132
v -1.29327004 4.08546595 1.57181834
v -1.22712143 4.08546595 0.62799430
v -1.20509206 4.08546595 1.56975571
v -1.31529942 4.08546595 0.63005693
v -1.13126107 4.01675035 1.09689032
v -1.38913041 4.01675035 1.10292232
v -1.38913041 4.15392514 1.10292232
v -1.13126107 4.15392514 1.09689032
v -1.25674203 4.09982443 1.24755318
v -1.20969846 4.09982443 1.09872510
v -1.26364945 4.09982443 0.95225946
v -1.31069302 4.09982443 1.10108753
v -1.24865340 5.75284475 1.59334418
v -1.27486800 5.70310286 0.47266349
v -1.20912284 4.30443281 1.12333291
v -1.25128565 4.24622967 1.48081472
v -1.26375138 4.30443281 0.94790182
v -1.31011740 4.30443281 1.12569535
v -1.24865940 5.02876698 1.59308785
v -1.19096979 5.02876698 1.13188479
v -1.26567610 5.02876698 0.86561946
v -1.32785073 5.02876698 1.13508666
v -1.19212702 5.83181640 1.08241284
v -1.26797857 5.60951632 0.76718822
v -1.32900796 5.83181640 1.08561471
v -1.22863848 5.49798168 0.95785228
v -1.19578312 5.40234393 1.11250554
v -1.29836061 5.49798168 0.95948320
v -1.22520574 5.63464367 0.95110372
v -1.30210515 5.63464367 0.95290253
v -1.32941270 5.72310217 1.09024067
v -1.20298290 5.66669385 1.25424628
v -1.19151842 5.72335858 1.08650215
v -1.31012941 5.66669385 1.25675262
v -1.20258416 5.46926471 1.24936400
v -1.31075600 5.46926471 1.25189432
v -1.32394880 5.40234393 1.11550355
v -1.26068142 6.00129778 1.07914348
v -1.26019574 2.97960638 1.09990632
v -1.25913444 3.05806523 1.14527697
v -1.26125703 3.05806523 1.05453567
v -1.44680497 3.06960330 1.10427142
v -1.38448048 3.11857598 1.14820902
v -1.38660307 3.11857598 1.05746772
v -1.49294461 3.27139126 1.10535071
v -1.41524024 3.25395596 1.14892855
v -1.41736283 3.25395596 1.05818724
v -1.36375361 3.43343699 1.10232871
v -1.32860024 3.36267019 1.14690189
v -1.33072283 3.36267019 1.05616059
v -1.15663787 3.43343699 1.09748393
v -1.18966865 3.36267019 1.14365205
v -1.19179124 3.36267019 1.05291075
v -1.02744687 3.27139126 1.09446193
v -1.10302865 3.25395596 1.14162539
v -1.10515124 3.25395596 1.05088409
v -1.07358651 3.06960330 1.09554122
v -1.13378841 3.11857598 1.14234492
v -1.13591100 3.11857598 1.05160361
vt 6.6450000e-3 4.3771000e-2
vt 6.6450000e-3 0.10557800
vt 6.6450000e-3 0.13997100
vt 7.9460000e-3 0.88131600
vt 1.2990000e-2 0.88270700
vt 2.0895000e-2 0.57317900
vt 2.2445000e-2 0.57460100
vt 0.12863400 0.24356600
vt 0.13285000 0.24174000
vt 0.30462600 0.84686600
vt 0.30943600 0.84724500
vt 0.31308500 0.76341300
vt 0.31658300 0.76372400
vt 0.32788600 0.18061100
vt 0.33131200 0.18181200
vt 0.37960400 1.7069000e-2
vt 0.37960400 7.0474000e-2
vt 0.37960400 7.2548000e-2
vt 0.37960400 0.17300100
vt 0.42255100 0.57722800
vt 0.42349300 0.57704800
vt 0.43300100 0.73614300
vt 0.43614800 0.73600100
vt 0.43650900 0.26810800
vt 0.44005300 0.26926900
vt 0.44857900 0.87141200
vt 0.44896900 0.99409600
vt 0.44969300 0.91708600
vt 0.45321100 0.87131000
vt 0.45526500 0.91703200
vt 0.45558500 0.99403600
vt 0.46263700 0.18216500
vt 0.46438900 0.18465500
vt 0.56862700 0.77799900
vt 0.57165900 0.83584400
vt 0.57217800 0.77742100
vt 0.57595800 0.83530300
vt 0.59621500 0.27048900
vt 0.59740800 0.18309600
vt 0.59779600 0.18438800
vt 0.59881600 0.27021700
vt 0.66135200 0.57902700
vt 0.66212200 0.57816200
vt 0.73546100 0.82745600
vt 0.73614400 0.34435100
vt 0.73614400 0.38424100
vt 0.73614400 0.42413100
vt 0.73614400 0.46402200
vt 0.73614400 0.50391200
vt 0.73614400 0.54380300
vt 0.73614400 0.58369300
vt 0.73614400 0.62358400
vt 0.73962600 0.82633400
vt 0.75256200 4.3771000e-2
vt 0.75256200 0.10557800
vt 0.75256200 0.13997100
vt 0.76666800 0.34435100
vt 0.76666800 0.38424100
vt 0.76666800 0.42413100
vt 0.76666800 0.46402200
vt 0.76666800 0.50391200
vt 0.76666800 0.54380300
vt 0.76666800 0.58369300
vt 0.76666800 0.62358400
vt 0.78446700 9.5940000e-2
vt 0.79719100 0.34435100
vt 0.79719100 0.38424100
vt 0.79719100 0.42413100
vt 0.79719100 0.46402200
vt 0.79719100 0.50391200
vt 0.79719100 0.54380300
vt 0.79719100 0.58369300
vt 0.79719100 0.62358400
vt 0.79855300 0.32611800
vt 0.80598500 1.3973000e-2
vt 0.82771400 0.34435100
vt 0.82771400 0.38424100
vt 0.82771400 0.42413100
vt 0.82771400 0.46402200
vt 0.82771400 0.50391200
vt 0.82771400 0.54380300
vt 0.82771400 0.58369300
vt 0.82771400 0.62358400
vt 0.83401200 0.21102900
vt 0.87414300 0.41620300
vt 0.87840500 0.63977600
vt 0.88712300 0.57514600
vt 0.88743800 0.49113300
vt 0.88954300 6.3263000e-2
vt 0.88954300 9.6353000e-2
vt 0.88954300 0.21124700
vt 0.88954300 0.32647600
vt 0.90057000 0.34694700
vt 0.90063500 0.77551100
vt 0.90354300 0.71730800
vt 0.94507300 0.21102900
vt 0.96402800 0.71730600
vt 0.96690900 0.34694700
vt 0.96697500 0.77550600
vt 0.97310000 1.3973000e-2
vt 0.98005000 0.49112900
vt 0.98043600 0.57514200
vt 0.98053200 0.32611800
vt 0.98490200 0.87555000
vt 0.98916100 0.63977600
vt 0.98978400 0.87355100
vt 0.99327600 0.41607300
vt 0.99461700 9.5940000e-2
vn 1.5520518e-2 -0.74800997 0.66350599
vn 0.99872574 -4.4733781e-2 -2.3361870e-2
vn -1.5520518e-2 -0.74800997 -0.66350599
vn -0.99872574 -4.4733781e-2 2.3361870e-2
vn 2.3120897e-2 -0.14994418 0.98842408
vn 0.98842408 -0.14994418 -2.3120897e-2
vn -2.3120897e-2 -0.14994418 -0.98842408
vn -0.98842408 -0.14994418 2.3120897e-2
vn 0.90674492 0.42114578 -2.1210284e-2
vn 2.2774154e-2 0.22711880 0.97360073
vn -2.2774154e-2 0.22711880 -0.97360073
vn -0.90674492 0.42114578 2.1210284e-2
vn 2.3375265e-2 2.9263641e-2 0.99929837
vn 0.99929837 2.9263641e-2 -2.3375265e-2
vn -2.3375265e-2 2.9263641e-2 -0.99929837
vn -0.99929837 2.9263641e-2 2.3375265e-2
vn -0.89372250 7.0555027e-5 0.44862020
vn 0.89372250 7.0555027e-5 -0.44862020
vn 0.91372148 7.0555027e-5 0.40634106
vn -0.91372148 7.0555027e-5 -0.40634106
vn 0.70498619 -0.70902928 -1.6490809e-2
vn -0.70498619 -0.70902928 1.6490809e-2
vn -0.70495868 0.70905665 1.6490166e-2
vn 0.70495868 0.70905665 -1.6490166e-2
vn 1.8844431e-2 -0.59215445 0.80560412
vn 0.99462672 -6.0727481e-2 -8.3844236e-2
vn -2.3356684e-2 4.9438219e-2 -0.99850404
vn -0.99745923 -6.0727481e-2 -3.7246005e-2
vn 1.7413268e-2 0.66819057 0.74378636
vn -1.9676508e-2 0.54040396 -0.84117560
vn 0.99562626 -4.2593424e-2 -8.3151396e-2
vn 2.1064308e-2 -0.43433644 0.90050439
vn -2.3381243e-2 -1.8579373e-2 -0.99955396
vn -0.99842527 -4.2593424e-2 -3.6507187e-2
vn 2.3342430e-2 -6.0509283e-2 0.99789466
vn 0.99683926 -1.6830450e-2 -7.7641592e-2
vn -2.3250065e-2 -0.10738102 -0.99394605
vn -0.99937933 -1.6830450e-2 -3.0946692e-2
vn 0.99162842 0.11815625 -5.2078572e-2
vn -2.1550826e-2 -0.39390650 -0.91889784
vn -0.99298394 0.11811900 -5.5500566e-3
vn 0.93038677 0.25712489 0.26128002
vn 0.74985309 0.66122117 -2.2514495e-2
vn -0.91715230 0.25712489 0.30449706
vn 0.82216218 -0.34604298 0.45199956
vn -0.79937184 -0.34664450 0.49075682
vn -0.74445709 -0.66349045 7.4592598e-2
vn 0.81519284 -0.36501380 -0.44969496
vn 0.74803487 -0.66248831 3.9409028e-2
vn -0.83527025 -0.36506487 -0.41115843
vn 0.79072081 0.37274154 -0.48561748
vn -0.81256236 0.37274154 -0.44811400
vn -0.75008568 0.66122117 1.2571588e-2
vn 3.6651387e-5 0.99999877 1.5668559e-3
vn 1.4261335e-16 -1.00000000 -1.4261335e-15
vn 2.0983043e-2 0.44147064 0.89703032
vn -2.0983043e-2 0.44147064 -0.89703032
vn -0.78176380 -0.62330647 1.8286766e-2
vn 0.36664819 0.27480490 0.88884834
vn 0.32468661 0.27480490 -0.90501982
vn -0.97468261 0.22242752 2.2799461e-2
vn 0.45173658 -9.8759144e-2 0.88666831
vn 0.40978387 -9.8759144e-2 -0.90682072
vn -0.43373496 0.90098338 1.0145788e-2
vn 0.21273644 -0.39805290 0.89235480
vn 0.17077924 -0.39805290 -0.90132588
vn 0.43373496 0.90098338 -1.0145788e-2
vn -0.17077924 -0.39805290 0.90132588
vn -0.21273644 -0.39805290 -0.89235480
vn 0.97468261 0.22242752 -2.2799461e-2
vn -0.40978387 -9.8759144e-2 0.90682072
vn -0.45173658 -9.8759144e-2 -0.88666831
vn 0.78176380 -0.62330647 -1.8286766e-2
vn -0.32468661 0.27480490 0.90501982
vn -0.36664819 0.27480490 -0.88884834
g cleaver_Untitled_cleaver
usemtl cleaver
s 1
f 1/75/1 3/100/3 2/89/2
f 1/100/1 4/89/4 3/75/3
f 1/100/1 10/108/10 4/89/4
f 2/89/2 10/65/10 1/75/1
f 2/89/2 11/108/11 9/90/9
f 3/100/3 11/108/11 2/89/2
f 4/89/4 11/65/11 3/75/3
f 4/89/4 12/90/12 11/65/11
f 5/74/5 13/84/13 14/91/14 6/92/6
f 6/92/6 14/91/14 15/96/15 7/103/7
f 7/74/7 15/84/15 16/91/16 8/92/8
f 8/92/8 16/91/16 13/96/13 5/103/5
f 9/90/9 10/65/10 2/89/2
f 9/90/9 14/91/14 13/84/13 10/65/10
f 10/108/10 12/90/12 4/89/4
f 10/108/10 13/96/13 16/91/16 12/90/12
f 11/108/11 15/96/15 14/91/14 9/90/9
f 12/90/12 16/91/16 15/84/15 11/65/11
f 17/56/17 22/19/22 21/18/21 19/55/19
f 17/54/17 23/17/23 22/16/22
f 18/2/18 21/18/21 22/19/22 20/3/20
f 18/54/18 24/17/24 21/16/21
f 19/56/19 24/19/24 23/18/23 17/55/17
f 20/2/20 23/18/23 24/19/24 18/3/18
f 21/16/21 24/17/24 19/1/19
f 22/16/22 23/17/23 20/1/20
f 25/15/25 32/8/32 34/24/34 28/33/28
f 26/32/26 31/25/31 32/9/32 25/14/25
f 27/39/27 33/41/33 31/25/31 26/32/26
f 28/33/28 34/24/34 33/38/33 27/40/27
f 29/4/29 48/10/48 49/26/49 39/28/39
f 29/5/29 50/11/50 52/13/52 35/7/35
f 29/5/29 54/31/54 41/30/41
f 30/104/30 54/27/54 39/28/39
f 31/25/31 36/20/36 35/6/35 32/9/32
f 32/8/32 35/7/35 38/21/38 34/24/34
f 33/41/33 37/42/37 36/20/36 31/25/31
f 34/24/34 38/21/38 37/43/37 33/38/33
f 35/6/35 51/12/51 48/10/48 29/4/29
f 35/7/35 52/13/52 53/23/53 38/21/38
f 36/20/36 43/22/43 51/12/51 35/6/35
f 37/42/37 42/34/42 43/22/43 36/20/36
f 37/43/37 44/36/44 40/53/40
f 38/21/38 53/23/53 44/36/44 37/43/37
f 39/28/39 40/44/40 30/104/30
f 39/28/39 49/26/49 45/35/45 40/44/40
f 39/28/39 54/27/54 29/4/29
f 40/53/40 41/30/41 30/106/30
f 40/44/40 42/34/42 37/42/37
f 40/44/40 45/35/45 42/34/42
f 40/53/40 46/37/46 47/29/47 41/30/41
f 41/30/41 47/29/47 50/11/50 29/5/29
f 41/30/41 54/31/54 30/106/30
f 42/97/42 44/95/44 53/86/53 43/105/43
f 42/97/42 45/99/45 46/94/46 44/95/44
f 43/105/43 53/86/53 52/87/52 51/102/51
f 44/36/44 46/37/46 40/53/40
f 45/98/45 49/107/49 47/85/47 46/93/46
f 48/101/48 51/102/51 52/87/52 50/88/50
f 49/107/49 48/101/48 50/88/50 47/85/47
f 55/76/55 58/77/58 60/67/60 57/66/57
f 55/52/55 73/51/73 74/63/74 56/64/56
f 56/57/56 59/58/59 58/46/58 55/45/55
f 56/64/56 74/63/74 75/72/75 57/73/57
f 57/66/57 60/67/60 59/58/59 56/57/56
f 57/73/57 75/72/75 73/82/73 55/83/55
f 58/77/58 61/78/61 63/68/63 60/67/60
f 59/58/59 62/59/62 61/47/61 58/46/58
f 60/67/60 63/68/63 62/59/62 59/58/59
f 61/78/61 64/79/64 66/69/66 63/68/63
f 62/59/62 65/60/65 64/48/64 61/47/61
f 63/68/63 66/69/66 65/60/65 62/59/62
f 64/79/64 67/80/67 69/70/69 66/69/66
f 65/60/65 68/61/68 67/49/67 64/48/64
f 66/69/66 69/70/69 68/61/68 65/60/65
f 67/80/67 70/81/70 72/71/72 69/70/69
f 68/61/68 71/62/71 70/50/70 67/49/67
f 69/70/69 72/71/72 71/62/71 68/61/68
f 70/81/70 73/82/73 75/72/75 72/71/72
f 71/62/71 74/63/74 73/51/73 70/50/70
f 72/71/72 75/72/75 74/63/74 71/62/71
