# Blender v2.79 (sub 0) OBJ File: 'avatar.blend'
# www.blender.org
mtllib 186.mtl
o Sphere_Sphere.000
v -0.100862 6.089568 0.106359
v -0.100862 6.112808 0.106359
v -0.079176 6.112808 0.113406
v -0.079176 6.089568 0.113406
v -0.065774 6.112808 0.131853
v -0.065774 6.089568 0.131853
v -0.065774 6.112808 0.154654
v -0.065774 6.089568 0.154654
v -0.079176 6.112808 0.173102
v -0.079176 6.089568 0.173102
v -0.100862 6.112808 0.180148
v -0.100862 6.089568 0.180148
v -0.122548 6.112808 0.173102
v -0.122548 6.089568 0.173102
v -0.135950 6.112808 0.154654
v -0.135950 6.089568 0.154654
v -0.135950 6.112808 0.131853
v -0.135950 6.089568 0.131853
v -0.122548 6.112808 0.113406
v -0.122548 6.089568 0.113406
v -0.603611 5.815719 0.143253
v -0.511355 5.935948 0.143253
v -0.497367 5.935948 0.037011
v -0.586479 5.815719 0.013133
v -0.251114 6.086200 0.143253
v -0.100862 6.105980 0.143253
v -0.245993 6.086200 0.104366
v -0.661605 5.675707 0.143253
v -0.642498 5.675707 -0.001877
v -0.391124 6.028206 0.143253
v -0.381234 6.028206 0.068129
v -0.681386 5.525456 0.143253
v -0.661605 5.525456 -0.006997
v -0.230983 6.086200 0.068129
v -0.352237 6.028206 -0.001877
v -0.586479 5.675707 -0.137118
v -0.603611 5.525456 -0.147008
v -0.456359 5.935948 -0.061992
v -0.536255 5.815719 -0.108121
v -0.207106 6.086200 0.037011
v -0.456359 5.815719 -0.212242
v -0.497367 5.675707 -0.253252
v -0.306109 6.028206 -0.061992
v -0.511355 5.525456 -0.267238
v -0.391124 5.935948 -0.147008
v -0.245993 6.028206 -0.108121
v -0.306109 5.935948 -0.212242
v -0.352237 5.815719 -0.292139
v -0.175986 6.086200 0.013133
v -0.381234 5.675707 -0.342365
v -0.391124 5.525456 -0.359496
v -0.139750 6.086200 -0.001877
v -0.175986 6.028206 -0.137118
v -0.245993 5.675707 -0.398383
v -0.251114 5.525456 -0.417490
v -0.207106 5.935948 -0.253252
v -0.230983 5.815719 -0.342365
v -0.100862 5.935948 -0.267238
v -0.100862 5.815719 -0.359496
v -0.100862 6.086200 -0.006997
v -0.100862 5.675707 -0.417490
v -0.100862 6.028206 -0.147008
v -0.100862 5.525456 -0.437271
v -0.025736 6.028206 -0.137118
v 0.005381 5.935948 -0.253252
v 0.029258 5.815719 -0.342365
v -0.061975 6.086200 -0.001877
v 0.044269 5.675707 -0.398383
v 0.049388 5.525456 -0.417490
v 0.150512 5.815719 -0.292139
v 0.179509 5.675707 -0.342365
v -0.025738 6.086200 0.013133
v 0.044269 6.028206 -0.108121
v 0.189399 5.525456 -0.359496
v 0.104383 5.935948 -0.212242
v 0.189399 5.935948 -0.147008
v 0.254634 5.815719 -0.212242
v 0.005381 6.086200 0.037011
v 0.295643 5.675707 -0.253252
v 0.104383 6.028206 -0.061992
v 0.309630 5.525456 -0.267238
v 0.384756 5.675707 -0.137118
v 0.401887 5.525456 -0.147008
v 0.150512 6.028206 -0.001877
v 0.254634 5.935948 -0.061992
v 0.334530 5.815719 -0.108121
v 0.029258 6.086200 0.068129
v 0.384756 5.815719 0.013133
v 0.440774 5.675707 -0.001877
v 0.044269 6.086200 0.104366
v 0.179509 6.028206 0.068129
v 0.459881 5.525456 -0.006997
v 0.295643 5.935948 0.037011
v 0.309630 5.935948 0.143253
v 0.401887 5.815719 0.143253
v 0.049388 6.086200 0.143253
v 0.459881 5.675707 0.143253
v 0.189399 6.028206 0.143253
v 0.479662 5.525456 0.143253
v 0.440774 5.675707 0.288384
v 0.459767 5.522468 0.293505
v 0.179509 6.028206 0.218379
v 0.295643 5.935948 0.249497
v 0.384756 5.815719 0.273374
v 0.044269 6.086200 0.182141
v 0.334530 5.815719 0.394628
v 0.385041 5.675382 0.423625
v 0.029258 6.086200 0.218379
v 0.150512 6.028206 0.288384
v 0.400240 5.506243 0.433516
v 0.254634 5.935948 0.348500
v 0.189399 5.935948 0.433516
v 0.254634 5.815719 0.498752
v 0.005381 6.086200 0.249497
v 0.295643 5.675707 0.539758
v 0.104383 6.028206 0.348500
v 0.309630 5.525456 0.553746
v 0.179509 5.675707 0.628870
v 0.189399 5.525456 0.646002
v 0.044269 6.028206 0.394628
v 0.104383 5.935948 0.498750
v 0.150512 5.815719 0.578646
v -0.025738 6.086200 0.273374
v -0.061975 6.086200 0.288384
v 0.029258 5.815719 0.628870
v 0.044269 5.675707 0.684890
v -0.025738 6.028206 0.423625
v 0.049388 5.525456 0.703996
v 0.005381 5.935948 0.539758
v -0.100862 5.935948 0.553746
v -0.100862 5.815719 0.646002
v -0.100862 6.086200 0.293505
v -0.100862 5.675707 0.703996
v -0.100862 6.028206 0.433516
v -0.100862 5.525456 0.723777
v -0.139750 6.086200 0.288384
v -0.175986 6.028206 0.423625
v -0.245993 5.675707 0.684890
v -0.251114 5.525456 0.703996
v -0.207106 5.935948 0.539758
v -0.230983 5.815719 0.628870
v -0.175986 6.086200 0.273374
v -0.352237 5.815719 0.578646
v -0.381234 5.675707 0.628870
v -0.245993 6.028206 0.394628
v -0.391124 5.525456 0.646002
v -0.306109 5.935948 0.498750
v -0.306109 6.028206 0.348500
v -0.391124 5.935948 0.433516
v -0.456359 5.815719 0.498752
v -0.207106 6.086200 0.249497
v -0.497367 5.675707 0.539758
v -0.511355 5.525456 0.553746
v -0.230983 6.086200 0.218379
v -0.352237 6.028206 0.288384
v -0.586679 5.675489 0.423625
v -0.602849 5.511761 0.433516
v -0.456359 5.935948 0.348500
v -0.536255 5.815719 0.394628
v -0.497367 5.935948 0.249497
v -0.586479 5.815719 0.273374
v -0.245993 6.086200 0.182141
v -0.642498 5.675707 0.288384
v -0.381234 6.028206 0.218379
v -0.661551 5.523273 0.293505
v -0.094102 5.558760 1.139497
v -0.092534 5.524239 0.952127
v 0.331115 5.480071 0.957469
v 0.240463 5.507723 1.033193
v 0.144564 5.534769 1.088650
v 0.035602 5.552459 1.115446
v 0.332464 5.492338 0.954852
v 0.241815 5.520238 1.030482
v 0.036951 5.564499 1.120553
v -0.093518 5.569315 1.146617
v 0.375582 5.465968 0.797418
v 0.407173 5.503604 0.405278
v 0.408531 5.516853 0.405278
v 0.376932 5.478376 0.795379
v 0.145913 5.547769 1.086977
v -0.534215 5.481146 0.952654
v -0.444602 5.496971 1.031662
v -0.446589 5.509367 1.031094
v -0.536174 5.493657 0.952095
v -0.609942 5.509931 0.405278
v -0.581200 5.477257 0.791258
v -0.582878 5.489939 0.790920
v -0.610864 5.523217 0.405278
v -0.351456 5.518685 1.090388
v -0.245935 5.542724 1.117499
v -0.247740 5.553589 1.124678
v -0.353473 5.531413 1.091170
v 0.365016 5.468028 0.862386
v 0.366366 5.480415 0.860227
v -0.050105 5.522380 0.405278
v -0.568962 5.475327 0.856626
v -0.570928 5.487312 0.856072
v -0.088713 5.536364 0.907010
v -0.048970 5.535698 0.405278
vt 0.251696 0.857368
vt 0.254808 0.850347
vt 0.260526 0.850591
vt 0.261449 0.858969
vt 0.266074 0.847273
vt 0.271287 0.855175
vt 0.270927 0.839987
vt 0.279345 0.847492
vt 0.239093 0.853733
vt 0.232426 0.858969
vt 0.228427 0.852553
vt 0.233956 0.847192
vt 0.223750 0.848608
vt 0.226861 0.841587
vt 0.218031 0.848364
vt 0.217109 0.839987
vt 0.212483 0.851683
vt 0.207270 0.843781
vt 0.207630 0.858969
vt 0.199212 0.851464
vt 0.250131 0.846403
vt 0.246131 0.839987
vt 0.239464 0.845223
vt 0.244601 0.851764
vt 0.217041 0.392072
vt 0.176947 0.394810
vt 0.174903 0.364071
vt 0.214397 0.360385
vt 0.070316 0.392612
vt 0.000185 0.385923
vt 0.069966 0.376550
vt 0.250306 0.388321
vt 0.247910 0.358281
vt 0.128621 0.395315
vt 0.127516 0.369346
vt 0.277873 0.384996
vt 0.276815 0.358100
vt 0.066455 0.360767
vt 0.122963 0.343566
vt 0.247688 0.326790
vt 0.278815 0.329375
vt 0.170960 0.333174
vt 0.211980 0.327900
vt 0.059688 0.345621
vt 0.209115 0.292603
vt 0.249376 0.292068
vt 0.114541 0.317567
vt 0.284897 0.297484
vt 0.164469 0.300758
vt 0.101201 0.291165
vt 0.153468 0.264815
vt 0.205424 0.253117
vt 0.049471 0.331622
vt 0.252776 0.251942
vt 0.295039 0.260517
vt 0.035582 0.319564
vt 0.080997 0.264488
vt 0.257909 0.202593
vt 0.311502 0.216402
vt 0.137666 0.225889
vt 0.198228 0.205264
vt 0.110645 0.180522
vt 0.184677 0.144550
vt 0.018083 0.310607
vt 0.265441 0.137867
vt 0.052900 0.239203
vt 0.338837 0.162606
vt 0.558197 0.000185
vt 0.659005 0.020354
vt 0.647264 0.065095
vt 0.565305 0.064655
vt 0.457828 0.022911
vt 0.492865 0.089658
vt 0.739776 0.073816
vt 0.796236 0.140768
vt 0.727110 0.093068
vt 0.379750 0.082578
vt 0.437566 0.132829
vt 0.401733 0.185190
vt 0.521341 0.138010
vt 0.478624 0.171090
vt 0.720031 0.112955
vt 0.644839 0.103915
vt 0.448232 0.208729
vt 0.577184 0.113920
vt 0.590865 0.153567
vt 0.545102 0.176139
vt 0.717661 0.132413
vt 0.509764 0.202579
vt 0.648303 0.137602
vt 0.483253 0.231378
vt 0.534166 0.230032
vt 0.510038 0.251375
vt 0.655771 0.167282
vt 0.605295 0.187216
vt 0.565419 0.208456
vt 0.719253 0.150861
vt 0.583189 0.237917
vt 0.553301 0.256025
vt 0.724268 0.167979
vt 0.666357 0.194013
vt 0.529468 0.271919
vt 0.620283 0.217384
vt 0.636224 0.246002
vt 0.599306 0.266805
vt 0.732381 0.183539
vt 0.568362 0.282532
vt 0.679879 0.218656
vt 0.543245 0.294505
vt 0.581028 0.311753
vt 0.551188 0.320322
vt 0.696744 0.241793
vt 0.654115 0.274740
vt 0.614890 0.297366
vt 0.743440 0.197265
vt 0.632281 0.332925
vt 0.590104 0.346283
vt 0.757395 0.208721
vt 0.717934 0.263541
vt 0.553178 0.348836
vt 0.675983 0.305248
vt 0.704835 0.338665
vt 0.651550 0.376850
vt 0.774140 0.217221
vt 0.594456 0.391513
vt 0.744823 0.283078
vt 0.544484 0.384793
vt 0.593026 0.459942
vt 0.529777 0.432755
vt 0.778761 0.297745
vt 0.747818 0.375599
vt 0.680608 0.436881
vt 0.793290 0.221831
vt 0.813941 0.221624
vt 0.198841 0.852122
vt 0.187065 0.902322
vt 0.143444 0.893851
vt 0.149844 0.843183
vt 0.818638 0.303326
vt 0.544035 0.512807
vt 0.500865 0.472539
vt 0.811003 0.390323
vt 0.172518 0.952464
vt 0.136400 0.944828
vt 0.099731 0.942272
vt 0.099747 0.891127
vt 0.834808 0.215994
vt 0.099908 0.839987
vt 0.861337 0.298448
vt 0.499336 0.546346
vt 0.463830 0.500669
vt 0.875575 0.387709
vt 0.018727 0.550175
vt 0.000186 0.466469
vt 0.020615 0.461226
vt 0.056716 0.532975
vt 0.456910 0.569828
vt 0.390752 0.560820
vt 0.406788 0.497663
vt 0.050565 0.630647
vt 0.104830 0.602363
vt 0.063147 0.944751
vt 0.056077 0.894146
vt 0.049788 0.843058
vt 0.037911 0.451570
vt 0.012559 0.903000
vt 0.000185 0.852296
vt 0.086835 0.508042
vt 0.324555 0.538732
vt 0.358982 0.482859
vt 0.152443 0.560220
vt 0.027445 0.952464
vt 0.107139 0.478865
vt 0.168893 0.505093
vt 0.244312 0.571969
vt 0.233831 0.506970
vt 0.051485 0.438837
vt 0.287105 0.488958
vt 0.322347 0.459871
vt 0.061273 0.424236
vt 0.119507 0.449815
vt 0.266887 0.450757
vt 0.297675 0.433609
vt 0.175171 0.462790
vt 0.225695 0.462471
vt 0.177220 0.427005
vt 0.220562 0.425061
vt 0.067471 0.408637
vt 0.255978 0.418510
vt 0.126184 0.421985
vt 0.284180 0.410394
vt 0.673357 0.901747
vt 0.703593 0.827483
vt 0.834526 0.905651
vt 0.789643 0.906553
vt 0.754458 0.906836
vt 0.719430 0.901736
vt 0.834526 0.910577
vt 0.789646 0.910896
vt 0.718773 0.906006
vt 0.672858 0.906515
vt 0.513813 0.788208
vt 0.511250 0.660537
vt 0.515391 0.656828
vt 0.519340 0.787117
vt 0.754053 0.910894
vt 0.719434 0.728619
vt 0.755166 0.726491
vt 0.755442 0.730241
vt 0.719475 0.732933
vt 0.172024 0.799785
vt 0.184041 0.689497
vt 0.188100 0.690413
vt 0.175820 0.803261
vt 0.785460 0.724230
vt 0.817416 0.719963
vt 0.818442 0.724172
vt 0.786123 0.727716
vt 0.514483 0.836818
vt 0.515764 0.807520
vt 0.517776 0.807177
vt 0.519601 0.836286
vt 0.361110 0.631018
vt 0.672859 0.730037
vt 0.672858 0.736455
vt 0.874816 0.711727
vt 0.876576 0.716650
vt 0.184575 0.653276
vt 0.194660 0.654942
vt 0.839296 0.827112
vt 0.671740 0.675671
vt 0.657967 0.847864
vt 0.360740 0.811343
vt 0.360079 0.815677
vt 0.000185 0.839616
vt 0.000186 0.631018
vt 0.354883 0.645693
vt 0.712364 0.999815
vt 0.830508 0.631018
vt 0.361110 0.857670
vt 0.672488 0.671154
vn 0.0000 0.0000 -1.0000
vn 0.0000 0.6437 -0.7653
vn 0.4498 0.6437 -0.6191
vn 0.5878 0.0000 -0.8090
vn 0.7278 0.6437 -0.2365
vn 0.9511 0.0000 -0.3090
vn 0.7278 0.6437 0.2365
vn 0.9511 0.0000 0.3090
vn 0.4498 0.6437 0.6191
vn 0.5878 0.0000 0.8090
vn 0.0000 0.6437 0.7653
vn 0.0000 0.0000 1.0000
vn -0.4498 0.6437 0.6191
vn -0.5878 0.0000 0.8090
vn -0.7278 0.6437 0.2365
vn -0.9511 0.0000 0.3090
vn -0.7278 0.6437 -0.2365
vn -0.9511 0.0000 -0.3090
vn -0.4498 0.6437 -0.6191
vn -0.5878 0.0000 -0.8090
vn -0.8687 0.4954 0.0000
vn -0.7125 0.7017 -0.0000
vn -0.6882 0.7017 -0.1844
vn -0.8391 0.4954 -0.2248
vn -0.2689 0.9632 -0.0000
vn 0.0000 1.0000 -0.0000
vn -0.2597 0.9632 -0.0696
vn -0.9667 0.2559 0.0003
vn -0.9337 0.2561 -0.2502
vn -0.5081 0.8613 -0.0000
vn -0.4908 0.8613 -0.1315
vn -0.7784 -0.6277 -0.0010
vn -0.7502 -0.6294 -0.2027
vn -0.2329 0.9632 -0.1344
vn -0.4400 0.8613 -0.2540
vn -0.8371 0.2561 -0.4833
vn -0.6725 -0.6292 -0.3898
vn -0.6170 0.7017 -0.3562
vn -0.7523 0.4954 -0.4343
vn -0.1901 0.9632 -0.1901
vn -0.6143 0.4954 -0.6143
vn -0.6835 0.2561 -0.6835
vn -0.3593 0.8613 -0.3593
vn -0.5490 -0.6290 -0.5503
vn -0.5038 0.7017 -0.5038
vn -0.2540 0.8613 -0.4400
vn -0.3562 0.7017 -0.6170
vn -0.4343 0.4954 -0.7523
vn -0.1345 0.9632 -0.2329
vn -0.4833 0.2561 -0.8371
vn -0.3884 -0.6290 -0.6735
vn -0.0696 0.9632 -0.2597
vn -0.1315 0.8613 -0.4908
vn -0.2502 0.2561 -0.9337
vn -0.2013 -0.6289 -0.7510
vn -0.1844 0.7017 -0.6882
vn -0.2248 0.4954 -0.8391
vn -0.0000 0.7017 -0.7125
vn 0.0000 0.4954 -0.8687
vn -0.0000 0.9632 -0.2689
vn 0.0000 0.2561 -0.9666
vn -0.0000 0.8613 -0.5081
vn -0.0006 -0.6290 -0.7774
vn 0.1315 0.8613 -0.4908
vn 0.1844 0.7017 -0.6882
vn 0.2248 0.4954 -0.8391
vn 0.0696 0.9632 -0.2597
vn 0.2502 0.2561 -0.9337
vn 0.2002 -0.6291 -0.7511
vn 0.4343 0.4954 -0.7523
vn 0.4833 0.2561 -0.8371
vn 0.1345 0.9632 -0.2329
vn 0.2540 0.8613 -0.4400
vn 0.3874 -0.6292 -0.6738
vn 0.3562 0.7017 -0.6170
vn 0.5038 0.7017 -0.5038
vn 0.6143 0.4954 -0.6143
vn 0.1901 0.9632 -0.1901
vn 0.6835 0.2561 -0.6835
vn 0.3593 0.8613 -0.3593
vn 0.5482 -0.6294 -0.5507
vn 0.8371 0.2561 -0.4833
vn 0.6718 -0.6297 -0.3901
vn 0.4400 0.8613 -0.2540
vn 0.6170 0.7017 -0.3562
vn 0.7523 0.4954 -0.4343
vn 0.2329 0.9632 -0.1345
vn 0.8391 0.4954 -0.2248
vn 0.9337 0.2561 -0.2502
vn 0.2597 0.9632 -0.0696
vn 0.4908 0.8613 -0.1315
vn 0.7497 -0.6299 -0.2029
vn 0.6882 0.7017 -0.1844
vn 0.7125 0.7017 -0.0000
vn 0.8687 0.4954 -0.0000
vn 0.2689 0.9632 -0.0000
vn 0.9667 0.2558 0.0004
vn 0.5081 0.8613 -0.0000
vn 0.7786 -0.6276 -0.0006
vn 0.9339 0.2524 0.2533
vn 0.7568 -0.6189 0.2104
vn 0.4908 0.8613 0.1315
vn 0.6882 0.7017 0.1844
vn 0.8391 0.4954 0.2247
vn 0.2597 0.9632 0.0696
vn 0.7522 0.4955 0.4343
vn 0.8390 0.2494 0.4837
vn 0.2329 0.9632 0.1345
vn 0.4400 0.8613 0.2540
vn 0.6543 -0.6565 0.3754
vn 0.6170 0.7017 0.3562
vn 0.5038 0.7017 0.5038
vn 0.6142 0.4954 0.6143
vn 0.1901 0.9632 0.1901
vn 0.6861 0.2533 0.6820
vn 0.3593 0.8613 0.3593
vn 0.5667 -0.6107 0.5530
vn 0.4833 0.2561 0.8371
vn 0.3883 -0.6308 0.6718
vn 0.2540 0.8613 0.4400
vn 0.3562 0.7017 0.6170
vn 0.4343 0.4954 0.7523
vn 0.1344 0.9632 0.2329
vn 0.0696 0.9632 0.2597
vn 0.2248 0.4954 0.8391
vn 0.2502 0.2561 0.9337
vn 0.1315 0.8613 0.4908
vn 0.2007 -0.6308 0.7495
vn 0.1844 0.7017 0.6882
vn 0.0000 0.7017 0.7125
vn 0.0000 0.4954 0.8687
vn 0.0000 0.9632 0.2689
vn 0.0000 0.2561 0.9666
vn 0.0000 0.8613 0.5081
vn -0.0006 -0.6308 0.7759
vn -0.0696 0.9632 0.2597
vn -0.1315 0.8613 0.4908
vn -0.2502 0.2561 0.9337
vn -0.2019 -0.6307 0.7493
vn -0.1844 0.7017 0.6882
vn -0.2248 0.4954 0.8391
vn -0.1344 0.9632 0.2329
vn -0.4343 0.4954 0.7523
vn -0.4833 0.2561 0.8371
vn -0.2540 0.8613 0.4400
vn -0.3893 -0.6305 0.6715
vn -0.3562 0.7017 0.6170
vn -0.3593 0.8613 0.3593
vn -0.5038 0.7017 0.5038
vn -0.6142 0.4954 0.6143
vn -0.1901 0.9632 0.1901
vn -0.6851 0.2544 0.6826
vn -0.5619 -0.6169 0.5512
vn -0.2329 0.9632 0.1344
vn -0.4400 0.8613 0.2540
vn -0.8383 0.2518 0.4835
vn -0.6594 -0.6501 0.3777
vn -0.6170 0.7017 0.3562
vn -0.7522 0.4955 0.4343
vn -0.6882 0.7017 0.1844
vn -0.8391 0.4954 0.2247
vn -0.2597 0.9632 0.0696
vn -0.9338 0.2538 0.2521
vn -0.4908 0.8613 0.1315
vn -0.7552 -0.6221 0.2065
vn 0.0301 -0.7923 0.6093
vn 0.0014 -0.9963 0.0864
vn 0.5743 -0.6680 0.4732
vn 0.3596 -0.5912 0.7219
vn 0.2133 -0.6128 0.7609
vn 0.0709 -0.7290 0.6808
vn 0.6728 0.6272 0.3923
vn 0.4945 0.7410 0.4543
vn 0.2816 0.6430 0.7122
vn 0.0427 0.5388 0.8414
vn 0.6392 -0.7662 0.0659
vn 0.5564 -0.6044 -0.5702
vn 0.6410 0.5400 -0.5455
vn 0.7900 0.6042 0.1044
vn 0.3761 0.7179 0.5858
vn -0.5327 -0.7110 0.4590
vn -0.3255 -0.6891 0.6474
vn -0.5325 0.6509 0.5411
vn -0.7193 0.5884 0.3693
vn -0.5632 -0.6018 -0.5662
vn -0.6439 -0.7624 0.0640
vn -0.7766 0.6198 0.1131
vn -0.6304 0.5446 -0.5532
vn -0.1751 -0.7150 0.6769
vn -0.0188 -0.7912 0.6112
vn -0.2403 0.5512 0.7990
vn -0.3931 0.6086 0.6892
vn 0.6429 -0.7471 0.1690
vn 0.7611 0.6169 0.2005
vn -0.0126 -0.6875 -0.7260
vn -0.6151 -0.7685 0.1763
vn -0.7827 0.5950 0.1826
vn 0.0015 0.9983 -0.0577
vn 0.0139 0.7257 -0.6879
usemtl Material.002
s 1
f 1/1/1 2/2/2 3/3/3 4/4/4
f 4/4/4 3/3/3 5/5/5 6/6/6
f 6/6/6 5/5/5 7/7/7 8/8/8
f 8/9/8 7/10/7 9/11/9 10/12/10
f 10/12/10 9/11/9 11/13/11 12/14/12
f 12/14/12 11/13/11 13/15/13 14/16/14
f 14/16/14 13/15/13 15/17/15 16/18/16
f 16/18/16 15/17/15 17/19/17 18/20/18
f 3/3/3 2/2/2 19/21/19 17/22/17 7/7/7 5/5/5
f 18/23/18 17/22/17 19/21/19 20/24/20
f 20/24/20 19/21/19 2/2/2 1/1/1
f 21/25/21 22/26/22 23/27/23 24/28/24
f 25/29/25 26/30/26 27/31/27
f 28/32/28 21/25/21 24/28/24 29/33/29
f 30/34/30 25/29/25 27/31/27 31/35/31
f 32/36/32 28/32/28 29/33/29 33/37/33
f 22/26/22 30/34/30 31/35/31 23/27/23
f 31/35/31 27/31/27 34/38/34 35/39/35
f 33/37/33 29/33/29 36/40/36 37/41/37
f 23/27/23 31/35/31 35/39/35 38/42/38
f 24/28/24 23/27/23 38/42/38 39/43/39
f 27/31/27 26/30/26 34/38/34
f 29/33/29 24/28/24 39/43/39 36/40/36
f 34/38/34 26/30/26 40/44/40
f 36/40/36 39/43/39 41/45/41 42/46/42
f 35/39/35 34/38/34 40/44/40 43/47/43
f 37/41/37 36/40/36 42/46/42 44/48/44
f 38/42/38 35/39/35 43/47/43 45/49/45
f 39/43/39 38/42/38 45/49/45 41/45/41
f 45/49/45 43/47/43 46/50/46 47/51/47
f 41/45/41 45/49/45 47/51/47 48/52/48
f 40/44/40 26/30/26 49/53/49
f 42/46/42 41/45/41 48/52/48 50/54/50
f 43/47/43 40/44/40 49/53/49 46/50/46
f 44/48/44 42/46/42 50/54/50 51/55/51
f 46/50/46 49/53/49 52/56/52 53/57/53
f 51/55/51 50/54/50 54/58/54 55/59/55
f 47/51/47 46/50/46 53/57/53 56/60/56
f 48/52/48 47/51/47 56/60/56 57/61/57
f 49/53/49 26/30/26 52/56/52
f 50/54/50 48/52/48 57/61/57 54/58/54
f 57/61/57 56/60/56 58/62/58 59/63/59
f 52/56/52 26/30/26 60/64/60
f 54/58/54 57/61/57 59/63/59 61/65/61
f 53/57/53 52/56/52 60/64/60 62/66/62
f 55/59/55 54/58/54 61/65/61 63/67/63
f 56/60/56 53/57/53 62/66/62 58/62/58
f 58/68/58 62/69/62 64/70/64 65/71/65
f 59/72/59 58/68/58 65/71/65 66/73/66
f 60/74/60 26/75/26 67/76/67
f 61/77/61 59/72/59 66/73/66 68/78/68
f 62/69/62 60/74/60 67/76/67 64/70/64
f 63/67/63 61/77/61 68/78/68 69/79/69
f 68/78/68 66/73/66 70/80/70 71/81/71
f 64/70/64 67/76/67 72/82/72 73/83/73
f 69/79/69 68/78/68 71/81/71 74/84/74
f 65/71/65 64/70/64 73/83/73 75/85/75
f 66/73/66 65/71/65 75/85/75 70/80/70
f 67/76/67 26/75/26 72/82/72
f 70/80/70 75/85/75 76/86/76 77/87/77
f 72/82/72 26/75/26 78/88/78
f 71/81/71 70/80/70 77/87/77 79/89/79
f 73/83/73 72/82/72 78/88/78 80/90/80
f 74/84/74 71/81/71 79/89/79 81/91/81
f 75/85/75 73/83/73 80/90/80 76/86/76
f 81/91/81 79/89/79 82/92/82 83/93/83
f 76/86/76 80/90/80 84/94/84 85/95/85
f 77/87/77 76/86/76 85/95/85 86/96/86
f 78/88/78 26/75/26 87/97/87
f 79/89/79 77/87/77 86/96/86 82/92/82
f 80/90/80 78/88/78 87/97/87 84/94/84
f 82/92/82 86/96/86 88/98/88 89/99/89
f 84/94/84 87/97/87 90/100/90 91/101/91
f 83/93/83 82/92/82 89/99/89 92/102/92
f 85/95/85 84/94/84 91/101/91 93/103/93
f 86/96/86 85/95/85 93/103/93 88/98/88
f 87/97/87 26/75/26 90/100/90
f 88/98/88 93/103/93 94/104/94 95/105/95
f 90/100/90 26/75/26 96/106/96
f 89/99/89 88/98/88 95/105/95 97/107/97
f 91/101/91 90/100/90 96/106/96 98/108/98
f 92/102/92 89/99/89 97/107/97 99/109/99
f 93/103/93 91/101/91 98/108/98 94/104/94
f 99/109/99 97/107/97 100/110/100 101/111/101
f 94/104/94 98/108/98 102/112/102 103/113/103
f 95/105/95 94/104/94 103/113/103 104/114/104
f 96/106/96 26/75/26 105/115/105
f 97/107/97 95/105/95 104/114/104 100/110/100
f 98/108/98 96/106/96 105/115/105 102/112/102
f 100/110/100 104/114/104 106/116/106 107/117/107
f 102/112/102 105/115/105 108/118/108 109/119/109
f 101/111/101 100/110/100 107/117/107 110/120/110
f 103/113/103 102/112/102 109/119/109 111/121/111
f 104/114/104 103/113/103 111/121/111 106/116/106
f 105/115/105 26/75/26 108/118/108
f 106/116/106 111/121/111 112/122/112 113/123/113
f 108/118/108 26/75/26 114/124/114
f 107/117/107 106/116/106 113/123/113 115/125/115
f 109/119/109 108/118/108 114/124/114 116/126/116
f 110/120/110 107/117/107 115/125/115 117/127/117
f 111/121/111 109/119/109 116/126/116 112/122/112
f 117/127/117 115/125/115 118/128/118 119/129/119
f 112/122/112 116/126/116 120/130/120 121/131/121
f 113/123/113 112/122/112 121/131/121 122/132/122
f 114/124/114 26/75/26 123/133/123
f 115/125/115 113/123/113 122/132/122 118/128/118
f 116/126/116 114/124/114 123/133/123 120/130/120
f 123/133/123 26/75/26 124/134/124
f 118/135/118 122/136/122 125/137/125 126/138/126
f 120/130/120 123/133/123 124/134/124 127/139/127
f 119/129/119 118/128/118 126/140/126 128/141/128
f 121/131/121 120/130/120 127/139/127 129/142/129
f 122/136/122 121/143/121 129/144/129 125/137/125
f 125/137/125 129/144/129 130/145/130 131/146/131
f 124/134/124 26/75/26 132/147/132
f 126/138/126 125/137/125 131/146/131 133/148/133
f 127/139/127 124/134/124 132/147/132 134/149/134
f 128/141/128 126/140/126 133/150/133 135/151/135
f 129/142/129 127/139/127 134/149/134 130/152/130
f 134/153/134 132/154/132 136/155/136 137/156/137
f 135/151/135 133/157/133 138/158/138 139/159/139
f 130/160/130 134/153/134 137/156/137 140/161/140
f 131/146/131 130/145/130 140/162/140 141/163/141
f 132/154/132 26/30/26 136/155/136
f 133/148/133 131/146/131 141/163/141 138/164/138
f 136/155/136 26/30/26 142/165/142
f 138/164/138 141/163/141 143/166/143 144/167/144
f 137/156/137 136/155/136 142/165/142 145/168/145
f 139/159/139 138/158/138 144/169/144 146/170/146
f 140/161/140 137/156/137 145/168/145 147/171/147
f 141/163/141 140/162/140 147/172/147 143/166/143
f 147/171/147 145/168/145 148/173/148 149/174/149
f 143/175/143 147/171/147 149/174/149 150/176/150
f 142/165/142 26/30/26 151/177/151
f 144/169/144 143/175/143 150/176/150 152/178/152
f 145/168/145 142/165/142 151/177/151 148/173/148
f 146/170/146 144/169/144 152/178/152 153/179/153
f 148/173/148 151/177/151 154/180/154 155/181/155
f 153/179/153 152/178/152 156/182/156 157/183/157
f 149/174/149 148/173/148 155/181/155 158/184/158
f 150/176/150 149/174/149 158/184/158 159/185/159
f 151/177/151 26/30/26 154/180/154
f 152/178/152 150/176/150 159/185/159 156/182/156
f 159/185/159 158/184/158 160/186/160 161/187/161
f 154/180/154 26/30/26 162/188/162
f 156/182/156 159/185/159 161/187/161 163/189/163
f 155/181/155 154/180/154 162/188/162 164/190/164
f 157/183/157 156/182/156 163/189/163 165/191/165
f 158/184/158 155/181/155 164/190/164 160/186/160
f 160/186/160 164/190/164 30/34/30 22/26/22
f 161/187/161 160/186/160 22/26/22 21/25/21
f 33/37/33 37/41/37 44/48/44 51/55/51 55/59/55 63/67/63 69/79/69 74/84/74 81/91/81 83/93/83 92/102/92 99/109/99 101/111/101 110/120/110 117/127/117 119/129/119 128/141/128 135/151/135 139/159/139 146/170/146 153/179/153 157/183/157 165/191/165 32/36/32
f 162/188/162 26/30/26 25/29/25
f 163/189/163 161/187/161 21/25/21 28/32/28
f 164/190/164 162/188/162 25/29/25 30/34/30
f 165/191/165 163/189/163 28/32/28 32/36/32
f 166/192/166 167/193/167 168/194/168 169/195/169 170/196/170 171/197/171
f 169/195/169 168/194/168 172/198/172 173/199/173
f 166/192/166 171/197/171 174/200/174 175/201/175
f 176/202/176 177/203/177 178/204/178 179/205/179
f 171/197/171 170/196/170 180/206/180 174/200/174
f 181/207/181 182/208/182 183/209/183 184/210/184
f 185/211/185 186/212/186 187/213/187 188/214/188
f 189/215/189 190/216/190 191/217/191 192/218/192
f 168/219/168 193/220/193 194/221/194 172/222/172
f 177/203/177 195/223/195 178/204/178
f 193/220/193 176/202/176 179/205/179 194/221/194
f 170/196/170 169/195/169 173/199/173 180/206/180
f 196/224/196 181/207/181 184/210/184 197/225/197
f 190/216/190 166/226/166 175/227/175 191/217/191
f 186/212/186 196/228/196 197/229/197 187/213/187
f 182/208/182 189/215/189 192/218/192 183/209/183
f 191/217/191 175/227/175 198/230/198 197/225/197 184/210/184 183/209/183 192/218/192
f 199/231/199 198/232/198 172/222/172 194/221/194 179/205/179 178/204/178
f 199/233/199 195/234/195 188/214/188
f 195/235/195 167/236/167 196/228/196 186/212/186 185/211/185
f 197/229/197 198/237/198 199/233/199 188/214/188 187/213/187
f 172/198/172 198/238/198 175/201/175 174/200/174 180/206/180 173/199/173
f 181/207/181 167/239/167 166/226/166 190/216/190 189/215/189 182/208/182
f 168/219/168 167/240/167 195/223/195 177/203/177 176/202/176 193/220/193
f 178/204/178 195/241/195 199/231/199
f 188/214/188 195/235/195 185/211/185
f 7/10/7 17/19/17 15/17/15 13/15/13 11/13/11 9/11/9
f 196/224/196 167/239/167 181/207/181
