# Exported from Wings 3D 2.1.5
mtllib face_resized.mtl
o Head.000_Head_Circle.002
#80 vertices, 78 faces
v -8.4169905e-2 4.77216596 0.14140030
v -8.4169905e-2 4.93359877 0.14140030
v -7.1359449e-2 4.93192416 0.14266115
v -5.9992287e-2 4.92038758 0.14378081
v -5.0848167e-2 4.90340471 0.14468219
v -4.5290019e-2 4.88503394 0.14522954
v -9.8840679e-2 4.78244712 0.13694987
v -0.11104732 4.79962547 0.13324661
v -0.11737544 4.82434174 0.13132765
v -0.12039018 4.85066312 0.13041215
v -0.11788152 4.88322683 0.13117344
v -0.11032947 4.90938532 0.13346490
v -9.9019869e-2 4.92478262 0.13689557
v -5.0754771e-2 4.80335588 0.14469088
v -4.3596945e-2 4.82807107 0.14539569
v -4.2756381e-2 4.86237563 0.14547823
v -6.6962235e-2 4.78237436 0.14309446
v 0.10241032 4.47701722 0.14774254
v 0.16680578 4.58026107 0.14140030
v 4.1317395e-2 4.45212502 0.15375898
v 0.11709739 4.42630537 0.14629599
v 4.1317395e-2 4.39829091 0.15375898
v -8.4169905e-2 4.56610940 0.14140030
v -8.4169905e-2 4.56741260 0.14140030
v -2.5781115e-2 4.48635248 0.14715067
v 0.20779359 4.54078388 0.12896669
v 0.18678818 4.61621527 0.13533825
v 9.9929901e-2 4.48558142 0.14798580
v 4.1317395e-2 4.43744773 0.15375898
v -0.10669463 4.60178233 0.13456719
v 5.9241825e-2 4.45780697 0.15199314
v 7.7973153e-2 4.46803709 0.15014912
v -1.0831239e-2 4.47208135 0.14862329
v 4.8668909e-3 4.46195223 0.15016866
v 2.1197073e-2 4.45571642 0.15177703
v 0.11853417 4.50493502 0.14615372
v 0.13933324 4.53537017 0.14410553
v -7.0056249e-2 4.54274629 0.14279038
v -5.4309249e-2 4.51706347 0.14434119
v -3.5172843e-2 4.49497097 0.14622540
v -2.1410671e-3 4.40472329 0.14947905
v 0.16680578 4.47801634 0.14140030
v 0.16680578 4.51872614 0.14140030
v 9.1677387e-2 4.41104164 0.14879922
v 6.0435339e-2 4.40164122 0.15187586
v 1.8461439e-2 4.39970705 0.15150770
v 0.20008842 4.62271715 0.13130376
v 0.21559433 4.62126191 0.12660029
v 0.22903141 4.61060608 0.12252453
v 0.23199945 4.59690076 0.12162315
v 0.23055289 4.58498408 0.12206298
v -8.4169905e-2 4.46630057 0.14140030
v -3.0209823e-2 4.41670404 0.14671410
v -5.3127681e-2 4.43565583 0.14445739
v -0.11157729 4.50693761 0.13308588
v -0.13847099 4.55452396 0.12492785
v -0.15004232 4.57488646 0.12141790
v -0.14924085 4.59018494 0.12166116
v -0.13962650 4.60208858 0.12457707
v -0.12570723 4.60874902 0.12879944
v 0.16680578 4.91168655 0.14140030
v 9.8446425e-2 4.88524028 0.14813241
v 0.10394810 4.90423659 0.14759050
v 0.15361631 4.92927323 0.14269916
v 0.14536380 4.93570778 0.14351148
v 0.12872845 4.93627250 0.14515026
v 0.11803243 4.92588166 0.14620368
v 9.8661453e-2 4.86758518 0.14811178
v 9.8129313e-2 4.84622356 0.14816391
v 0.10192380 4.82245210 0.14779032
v 0.11070845 4.79874798 0.14692478
v 0.11909780 4.78461912 0.14609834
v 0.13167585 4.77691178 0.14486030
v 0.16680578 4.80076903 0.14140030
v 0.17257787 4.81768782 0.13964858
v 0.17555242 4.83811222 0.13874720
v 0.17678612 4.86397531 0.13837253
v 0.17431330 4.88500136 0.13912296
v 0.14096658 4.77801733 0.14394480
v 0.15272036 4.78431830 0.14278712
vt 0.0000000e+0 0.51518600
vt 8.1160000e-3 0.57505300
vt 8.5710000e-3 0.46518400
vt 2.8076000e-2 0.62859500
vt 3.5848000e-2 0.38303600
vt 7.2666000e-2 0.70096500
vt 8.3783000e-2 0.31534000
vt 0.13236200 0.51079000
vt 0.14006600 0.75902400
vt 0.18197800 0.50914200
vt 0.19704900 0.56157900
vt 0.19860200 0.46197700
vt 0.22050600 0.60376500
vt 0.23048400 0.41220600
vt 0.24817900 0.83710700
vt 0.25142600 0.18050500
vt 0.25703200 0.64385400
vt 0.25732100 0.34776700
vt 0.28662900 0.35324300
vt 0.30745400 0.68151200
vt 0.33795300 0.70521100
vt 0.34937100 0.30278100
vt 0.38903800 0.17593500
vt 0.38958300 0.90539200
vt 0.41542300 0.75298500
vt 0.43270000 0.46388700
vt 0.43608700 0.53161900
vt 0.44147500 0.40889300
vt 0.44539700 0.58515000
vt 0.44925600 0.24537600
vt 0.45776800 6.8364000e-2
vt 0.46408000 0.62956000
vt 0.46710300 0.33919100
vt 0.50453500 0.79145900
vt 0.51092600 0.67291900
vt 0.51186800 0.29342600
vt 0.53975200 0.27675400
vt 0.55021800 0.68966400
vt 0.55441200 0.97153200
vt 0.58138300 0.69275000
vt 0.58556600 0.82590100
vt 0.58996900 0.82575400
vt 0.59562200 0.27562500
vt 0.59704700 0.16902400
vt 0.60394200 5.0490000e-3
vt 0.62382600 0.67283700
vt 0.62494700 1.00000000
vt 0.63125300 0.30305100
vt 0.64402200 0.0000000e+0
vt 0.65238100 0.63602700
vt 0.67654300 0.99615400
vt 0.67795400 0.36001000
vt 0.68252100 0.57415400
vt 0.69076800 6.0740000e-3
vt 0.69470500 0.45606800
vt 0.69590700 0.40985500
vt 0.69590700 0.51200300
vt 0.70926300 0.31869500
vt 0.70947200 0.88176400
vt 0.71517500 0.40408400
vt 0.71536600 0.96926300
vt 0.71574100 0.11375200
vt 0.72181900 0.25000600
vt 0.72870100 3.9327000e-2
vt 0.73582500 7.8922000e-2
vt 0.73582500 0.93151700
vt 0.73895600 0.47304000
vt 0.74562900 0.18573200
vt 0.77654700 0.51407700
vt 0.78901700 0.14157300
vt 0.82685600 0.53812500
vt 0.84030000 0.11562500
vt 0.87050000 0.53457000
vt 0.89789200 0.14345600
vt 0.91007000 0.50511200
vt 0.94253700 0.46125500
vt 0.95118700 0.19941900
vt 0.96294500 0.41353700
vt 0.97343700 0.26456500
vt 0.97343700 0.35440000
vn -0.18432518 -4.5929291e-6 0.98286532
vn -0.19507208 1.7648733e-5 0.98078891
vn -9.7939142e-2 8.5556978e-5 0.99519240
vn -9.7938549e-2 8.6652392e-5 0.99519246
vn -9.7979920e-2 4.0987899e-5 0.99518839
vn -9.7990259e-2 -1.1268015e-5 0.99518737
vn -0.29026688 3.6979681e-5 0.95694573
vn -0.29030320 -1.8412996e-6 0.95693472
vn -0.29027833 1.8641191e-6 0.95694226
vn -0.29026995 1.1972619e-5 0.95694480
vn -0.29027360 -1.8606045e-5 0.95694369
vn -0.29027624 -9.2751985e-6 0.95694290
vn -0.29029273 1.0189031e-5 0.95693789
vn -9.7973580e-2 -3.0418682e-5 0.99518902
vn -9.8007323e-2 5.2271530e-6 0.99518569
vn -9.7971960e-2 -1.0505134e-5 0.99518918
vn -9.7942287e-2 -6.4269900e-5 0.99519209
vn 9.7988928e-2 2.8863009e-5 0.99518750
vn 0.22716431 2.3765971e-6 0.97385644
vn 5.4172936e-6 0.0000000e+0 1.00000000
vn 9.8008961e-2 -2.3891660e-6 0.99518553
vn 7.5124312e-7 0.0000000e+0 1.00000000
vn -0.21437218 1.3752136e-6 0.97675205
vn -0.19509670 0.0000000e+0 0.98078401
vn -9.8023651e-2 3.3357960e-6 0.99518409
vn 0.29028487 2.0473689e-6 0.95694028
vn 0.29028073 4.5562894e-6 0.95694153
vn 9.7938777e-2 9.7929752e-5 0.99519244
vn 1.9683730e-2 9.8579100e-6 0.99980626
vn -0.29029274 1.1440555e-5 0.95693789
vn 9.7974711e-2 5.9114677e-5 0.99518890
vn 9.7960723e-2 7.4646180e-5 0.99519028
vn -9.7999999e-2 5.7684471e-8 0.99518641
vn -9.7989555e-2 7.2598104e-6 0.99518744
vn -9.8020584e-2 7.6916950e-6 0.99518439
vn 9.7964427e-2 4.5776215e-5 0.99518992
vn 9.7997052e-2 1.1420450e-6 0.99518670
vn -9.8015312e-2 -4.2166296e-7 0.99518491
vn -9.8004499e-2 -5.0005097e-6 0.99518597
vn -9.8008866e-2 9.6520028e-6 0.99518554
vn -9.8010234e-2 2.9683453e-7 0.99518541
vn 0.16280204 -2.3662285e-7 0.98665875
vn 0.16279136 8.0013444e-6 0.98666052
vn 9.8006354e-2 -6.4952890e-6 0.99518579
vn 9.8016150e-2 -5.1715143e-6 0.99518482
vn -9.8010316e-2 -8.5189486e-6 0.99518540
vn 0.29029965 1.3443949e-5 0.95693579
vn 0.29023267 -6.5787435e-5 0.95695611
vn 0.29019505 -9.3458270e-5 0.95696752
vn 0.29027265 -1.9535272e-5 0.95694398
vn 0.29030061 2.6512883e-5 0.95693550
vn -0.16283068 -1.5627255e-5 0.98665403
vn -9.7991763e-2 2.1724732e-5 0.99518723
vn -9.7933658e-2 7.5571179e-5 0.99519294
vn -0.29039378 -6.9041464e-5 0.95690723
vn -0.29046039 -1.1381367e-4 0.95688701
vn -0.29032276 -2.9000504e-5 0.95692878
vn -0.29021863 -1.2331353e-5 0.95696037
vn -0.29026870 8.8621943e-6 0.95694518
vn -0.29029373 1.9847500e-5 0.95693759
vn 0.13688476 2.8238306e-6 0.99058698
vn 9.8000080e-2 1.8229447e-5 0.99518641
vn 9.8005761e-2 -2.0590523e-6 0.99518585
vn 9.8008831e-2 3.3366296e-5 0.99518554
vn 9.8021401e-2 1.7912616e-5 0.99518431
vn 9.8036521e-2 -2.4550638e-5 0.99518282
vn 9.8015217e-2 8.0623833e-6 0.99518492
vn 9.8009394e-2 8.6921991e-6 0.99518549
vn 9.8015310e-2 -4.6224814e-6 0.99518491
vn 9.7987705e-2 -1.1495672e-5 0.99518763
vn 9.7927472e-2 -5.8284293e-5 0.99519355
vn 9.7909025e-2 -7.6168907e-5 0.99519537
vn 9.8003722e-2 -4.8358472e-5 0.99518605
vn 0.19520300 -4.4730892e-5 0.98076286
vn 0.29069630 -1.0949830e-4 0.95681537
vn 0.29042592 -2.4895167e-5 0.95689748
vn 0.29045076 7.3019492e-6 0.95688994
vn 0.29036957 4.9588144e-6 0.95691458
vn 9.8076732e-2 -1.0691760e-4 0.99517885
vn 9.8070048e-2 -8.7739846e-5 0.99517951
g Head.000_Head_Circle.002_None
usemtl None
s 1
f 1/72/1 6/78/6 2/71/2
f 1/72/1 8/68/8 7/70/7
f 1/72/1 9/63/9 8/68/8
f 1/72/1 10/58/10 9/63/9
f 1/72/1 16/80/16 6/78/6
f 1/72/1 17/74/17 14/77/14
f 2/71/2 4/75/4 3/73/3
f 2/71/2 5/76/5 4/75/4
f 2/71/2 6/78/6 5/76/5
f 2/71/2 10/58/10 1/72/1
f 2/71/2 11/60/11 10/58/10
f 2/71/2 12/67/12 11/60/11
f 2/71/2 13/69/13 12/67/12
f 14/77/14 15/79/15 1/72/1
f 15/79/15 16/80/16 1/72/1
f 18/18/18 32/14/32 29/8/29
f 18/18/18 36/22/36 28/19/28
f 18/18/18 43/23/43 36/22/36
f 18/18/18 44/5/44 21/7/21
f 19/44/19 43/23/43 26/31/26
f 20/10/20 35/11/35 29/8/29
f 21/7/21 42/16/42 18/18/18
f 22/1/22 45/3/45 29/8/29
f 23/41/23 38/34/38 24/42/24
f 23/41/23 52/15/52 38/34/38
f 23/41/23 57/47/57 52/15/52
f 24/42/24 30/59/30 23/41/23
f 25/20/25 41/4/41 33/17/33
f 25/20/25 53/6/53 41/4/41
f 26/31/26 27/62/27 19/44/19
f 26/31/26 43/23/43 42/16/42
f 26/31/26 51/45/51 27/62/27
f 27/62/27 51/45/51 47/65/47
f 28/19/28 32/14/32 18/18/18
f 29/8/29 31/12/31 20/10/20
f 29/8/29 32/14/32 31/12/31
f 29/8/29 44/5/44 18/18/18
f 29/8/29 45/3/45 44/5/44
f 29/8/29 46/2/46 22/1/22
f 30/59/30 57/47/57 23/41/23
f 30/59/30 59/61/59 57/47/57
f 30/59/30 60/66/60 59/61/59
f 33/17/33 41/4/41 34/13/34
f 34/13/34 41/4/41 35/11/35
f 35/11/35 41/4/41 29/8/29
f 36/22/36 43/23/43 37/30/37
f 37/30/37 43/23/43 19/44/19
f 38/34/38 52/15/52 39/25/39
f 39/25/39 52/15/52 40/21/40
f 40/21/40 52/15/52 25/20/25
f 41/4/41 46/2/46 29/8/29
f 42/16/42 43/23/43 18/18/18
f 47/65/47 50/49/50 48/64/48
f 47/65/47 51/45/51 50/49/50
f 48/64/48 50/49/50 49/54/49
f 52/15/52 53/6/53 25/20/25
f 52/15/52 54/9/54 53/6/53
f 52/15/52 56/39/56 55/24/55
f 52/15/52 57/47/57 56/39/56
f 57/47/57 59/61/59 58/51/58
f 61/33/61 63/52/63 62/56/62
f 61/33/61 67/48/67 63/52/63
f 62/56/62 68/55/68 61/33/61
f 64/36/64 67/48/67 61/33/61
f 65/37/65 67/48/67 64/36/64
f 66/43/66 67/48/67 65/37/65
f 68/55/68 69/57/69 61/33/61
f 69/57/69 70/53/70 61/33/61
f 70/53/70 73/40/73 61/33/61
f 71/50/71 73/40/73 70/53/70
f 72/46/72 73/40/73 71/50/71
f 73/40/73 74/32/74 61/33/61
f 73/40/73 80/35/80 74/32/74
f 74/32/74 76/27/76 61/33/61
f 75/29/75 76/27/76 74/32/74
f 76/27/76 78/28/78 61/33/61
f 77/26/77 78/28/78 76/27/76
f 79/38/79 80/35/80 73/40/73
