# Exported from Wings 3D 2.1.5
mtllib none.mtl
o Cube1
#8 vertices, 6 faces
v -2.7200000e-4 -1.9200000e-4 -2.0400000e-4
v -2.7200000e-4 -1.9200000e-4 2.0400000e-4
v -2.7200000e-4 1.9200000e-4 -2.0400000e-4
v -2.7200000e-4 1.9200000e-4 2.0400000e-4
v 2.7200000e-4 -1.9200000e-4 -2.0400000e-4
v 2.7200000e-4 -1.9200000e-4 2.0400000e-4
v 2.7200000e-4 1.9200000e-4 -2.0400000e-4
v 2.7200000e-4 1.9200000e-4 2.0400000e-4
vn 0.57735027 0.57735027 0.57735027
vn 0.57735027 0.57735027 -0.57735027
vn 0.57735027 -0.57735027 0.57735027
vn 0.57735027 -0.57735027 -0.57735027
vn -0.57735027 0.57735027 0.57735027
vn -0.57735027 0.57735027 -0.57735027
vn -0.57735027 -0.57735027 0.57735027
vn -0.57735027 -0.57735027 -0.57735027
g Cube1_default
usemtl default
s 1
f 1//1 3//3 4//4 2//2
f 1//1 5//5 7//7 3//3
f 2//2 6//6 5//5 1//1
f 3//3 7//7 8//8 4//4
f 4//4 8//8 6//6 2//2
f 6//6 8//8 7//7 5//5
