# Blender v2.78 (sub 0) OBJ File: 'avatar.blend'
# www.blender.org
mtllib test.mtl
o Cube_Cube.001
v -0.540894 5.824898 0.488135
v -0.540980 4.470746 -0.459163
v -0.560698 5.824898 -0.362962
v 0.345938 5.824898 0.488135
v 0.346024 4.470746 -0.459163
v 0.365743 5.824898 -0.362962
v -0.653830 4.921073 -0.199383
v -0.557688 5.407774 0.520140
v -0.638062 5.928007 0.017613
v -0.635884 5.407774 -0.466070
v -0.097478 4.411356 -0.652219
v -0.097478 5.981404 -0.556018
v 0.440928 5.407774 -0.466070
v 0.458879 4.921073 -0.199383
v 0.443106 5.928007 0.017613
v 0.362733 5.178329 0.591244
v -0.097478 5.981405 0.591243
v -0.682352 4.968821 -0.060971
v -0.097478 5.407774 -0.772400
v 0.487400 4.984249 -0.060971
v -0.097478 5.475173 0.735902
v -0.603096 5.640806 0.520999
v -0.097478 6.163791 0.017613
v -0.629879 5.640806 -0.459285
v 0.434924 5.640806 -0.459285
v 0.408140 5.640806 0.585234
v -0.761305 5.696819 0.018001
v -0.097478 5.696819 -0.722795
v 0.566349 5.696819 0.018001
v -0.097478 5.696819 0.719832
v -0.582617 5.046181 -0.435336
v 0.387666 5.046181 -0.435336
v -0.659470 4.985436 -0.130027
v -0.097476 4.988558 -0.703832
v 0.464519 4.913281 -0.130027
v -0.638606 5.935040 0.252874
v 0.394522 5.973816 0.252874
v -0.662386 5.178329 0.304428
v 0.468592 5.178329 0.304428
v -0.097478 6.137895 0.304428
v 0.487245 5.668812 0.301617
v -0.682200 5.668812 0.301617
v -0.649114 4.543320 -0.313850
v -0.641965 5.935040 -0.217648
v 0.454158 4.543320 -0.313850
v 0.394522 5.935040 -0.217648
v -0.708459 5.407774 -0.269202
v 0.513503 5.407774 -0.269202
v -0.097478 6.114187 -0.269202
v 0.518052 5.668812 -0.265616
v -0.713008 5.668812 -0.265616
v 0.476895 5.086739 -0.233520
v -0.671846 5.086739 -0.233520
v -0.333737 4.419191 -0.600665
v -0.332739 5.929851 -0.504464
v -0.332739 5.929851 0.539689
v -0.384293 5.407774 -0.664209
v -0.327583 5.439707 0.663573
v -0.384293 6.089596 0.017613
v -0.350287 5.668812 0.652533
v -0.381094 5.668812 -0.636014
v -0.355916 5.017369 -0.614558
v -0.358516 6.068311 0.278651
v -0.358516 6.068311 -0.243425
v 0.138781 4.419191 -0.600665
v 0.137783 5.929851 -0.504464
v 0.137783 5.929851 0.539689
v 0.189338 5.407774 -0.664209
v 0.132628 5.371131 0.663573
v 0.189338 6.089596 0.017613
v 0.155331 5.668812 0.652533
v 0.213785 5.687412 -0.586156
v 0.160965 5.017369 -0.614558
v 0.163561 6.082847 0.278651
v 0.163561 6.068311 -0.243425
v -0.613770 5.931523 0.135243
v -0.707025 5.081809 0.161020
v 0.484588 5.081809 0.161020
v -0.097478 6.138989 0.161020
v -0.721753 5.682816 0.159809
v 0.418814 5.931523 0.135243
v 0.526797 5.682816 0.159809
v -0.371404 6.078953 0.148132
v 0.176449 6.078953 0.148132
v -0.559921 5.853838 0.511214
v -0.560011 4.450846 -0.472678
v -0.580577 5.853838 -0.376477
v 0.365041 5.853838 0.511214
v 0.365131 4.450846 -0.472678
v 0.385697 5.853838 -0.376477
v -0.677718 4.907414 -0.203374
v -0.577437 5.418779 0.544594
v -0.661267 5.961379 0.020461
v -0.658995 5.418779 -0.484018
v -0.097440 4.388903 -0.674035
v -0.097440 6.017073 -0.577833
v 0.464115 5.418779 -0.484018
v 0.482834 4.907414 -0.203374
v 0.466387 5.961379 0.020461
v 0.382558 5.189334 0.618755
v -0.097440 6.017073 0.618755
v -0.707465 4.970818 -0.061502
v -0.097440 5.418779 -0.803519
v 0.512581 4.986246 -0.061502
v -0.097440 5.489075 0.769633
v -0.624797 5.661830 0.545490
v -0.097440 6.207301 0.020461
v -0.652732 5.661830 -0.476941
v 0.457852 5.661830 -0.476941
v 0.429917 5.661830 0.612487
v -0.789809 5.720252 0.020865
v -0.097440 5.720252 -0.751781
v 0.594929 5.720252 0.020865
v -0.097440 5.720252 0.752872
v -0.603442 5.041638 -0.451963
v 0.408558 5.041638 -0.451963
v -0.683600 4.984382 -0.133527
v -0.097442 4.981539 -0.732002
v 0.488715 4.912227 -0.133527
v -0.661834 5.968715 0.265837
v 0.415714 6.009158 0.265837
v -0.686637 5.189334 0.319608
v 0.493526 5.189334 0.319608
v -0.097440 6.180292 0.319608
v 0.512423 5.691041 0.316676
v -0.707303 5.691041 0.316676
v -0.711500 4.526541 -0.321117
v -0.665338 5.968715 -0.224916
v 0.516620 4.526541 -0.321117
v 0.415714 5.968715 -0.224916
v -0.734690 5.418779 -0.278686
v 0.539810 5.418779 -0.278686
v -0.097440 6.155565 -0.278686
v 0.544555 5.691041 -0.274946
v -0.739435 5.691041 -0.274946
v 0.541925 5.083941 -0.241469
v -0.736809 5.083941 -0.241469
v -0.343857 4.397075 -0.620264
v -0.342816 5.963303 -0.524063
v -0.342816 5.963303 0.564984
v -0.396587 5.418779 -0.690676
v -0.337439 5.447975 0.694194
v -0.396587 6.129916 0.020461
v -0.361118 5.691041 0.682679
v -0.393251 5.691041 -0.661269
v -0.366994 5.011589 -0.638890
v -0.369702 6.107716 0.292722
v -0.369702 6.107716 -0.251801
v 0.148977 4.397075 -0.620264
v 0.147937 5.963303 -0.524063
v 0.147937 5.963303 0.564984
v 0.201707 5.418779 -0.690676
v 0.142559 5.385442 0.694194
v 0.201707 6.129916 0.020461
v 0.166239 5.691041 0.682679
v 0.227206 5.710441 -0.609267
v 0.172110 5.011589 -0.638890
v 0.174822 6.122877 0.292723
v 0.174822 6.107716 -0.251801
v -0.635930 5.965047 0.143149
v -0.732640 5.088664 0.170034
v 0.509649 5.088664 0.170034
v -0.097440 6.181433 0.170034
v -0.748556 5.705646 0.168771
v 0.441051 5.965047 0.143149
v 0.553676 5.705646 0.168771
v -0.383144 6.118816 0.156592
v 0.188265 6.118816 0.156592
v 0.118265 3.535907 -0.621345
v -0.097476 3.527796 -0.674718
v -0.313217 3.535907 -0.621346
v -0.502463 3.589280 -0.474853
v 0.406254 3.664414 -0.324414
v 0.307511 3.589280 -0.474853
v -0.601206 3.664414 -0.324414
v 0.127576 3.513011 -0.641636
v -0.097441 3.504551 -0.697303
v -0.322459 3.513011 -0.641636
v -0.519841 3.568678 -0.488845
v 0.463292 3.647043 -0.331938
v 0.324958 3.568678 -0.488844
v -0.658175 3.647043 -0.331938
vt 0.2426 0.6004
vt 0.2193 0.6123
vt 0.2263 0.7368
vt 0.2507 0.7311
vt 0.1725 0.6131
vt 0.1397 0.6010
vt 0.1463 0.7039
vt 0.1799 0.7388
vt 0.1673 0.3156
vt 0.1342 0.3132
vt 0.1381 0.4895
vt 0.1685 0.4835
vt 0.7398 0.3069
vt 0.7025 0.2980
vt 0.6983 0.4839
vt 0.7396 0.4908
vt 0.7399 0.6153
vt 0.6951 0.6154
vt 0.6895 0.7610
vt 0.7402 0.7528
vt 0.6440 0.6045
vt 0.6073 0.5609
vt 0.5976 0.6612
vt 0.6429 0.7289
vt 0.6647 0.2882
vt 0.6217 0.2765
vt 0.6121 0.4505
vt 0.6572 0.4705
vt 0.5869 0.2689
vt 0.5757 0.1803
vt 0.5608 0.2032
vt 0.5822 0.4361
vt 0.5760 0.5646
vt 0.5321 0.5601
vt 0.5264 0.6849
vt 0.5694 0.7054
vt 0.4878 0.5348
vt 0.4495 0.4983
vt 0.4514 0.5961
vt 0.4842 0.6839
vt 0.4149 0.5223
vt 0.3776 0.5377
vt 0.3815 0.6771
vt 0.4201 0.6545
vt 0.3399 0.5409
vt 0.2982 0.5415
vt 0.3057 0.6302
vt 0.3412 0.6741
vt 0.4100 0.3745
vt 0.3753 0.4329
vt 0.3399 0.4275
vt 0.2984 0.4286
vt 0.5916 0.8228
vt 0.5130 0.8261
vt 0.4324 0.9486
vt 0.6720 0.9003
vt 0.1404 0.8656
vt 0.2477 0.8763
vt 0.3173 0.8010
vt 0.2685 0.7043
vt 0.4514 0.7724
vt 0.3896 0.8217
vt 0.4919 0.2770
vt 0.4454 0.2856
vt 0.2304 0.2893
vt 0.1922 0.2483
vt 0.6118 0.1160
vt 0.5871 0.1934
vt 0.6758 0.1273
vt 0.6401 0.1179
vt 0.7396 0.1433
vt 0.7080 0.1384
vt 0.1503 0.1571
vt 0.1254 0.1495
vt 0.2566 0.3244
vt 0.2657 0.5809
vt 0.5183 0.2310
vt 0.5101 0.5500
vt 0.4779 0.8043
vt 0.3986 0.8845
vt 0.2909 0.8457
vt 0.5051 0.6817
vt 0.1689 0.2403
vt 0.1805 0.2564
vt 0.7877 0.8656
vt 0.8272 0.7388
vt 0.7936 0.7039
vt 0.7727 0.1495
vt 0.7815 0.3132
vt 0.7854 0.4895
vt 0.7870 0.6010
vt 0.5804 0.9536
vt 0.2433 0.6049
vt 0.2515 0.7341
vt 0.2272 0.7401
vt 0.2199 0.6168
vt 0.1731 0.6179
vt 0.1806 0.7425
vt 0.1468 0.7085
vt 0.1400 0.6059
vt 0.1703 0.3270
vt 0.1690 0.4889
vt 0.1385 0.4946
vt 0.1345 0.3171
vt 0.7400 0.3105
vt 0.7397 0.4959
vt 0.6982 0.4887
vt 0.7024 0.3013
vt 0.7400 0.6203
vt 0.7403 0.7571
vt 0.6893 0.7650
vt 0.6950 0.6202
vt 0.6436 0.6095
vt 0.6424 0.7331
vt 0.5970 0.6656
vt 0.6068 0.5657
vt 0.6644 0.2917
vt 0.6569 0.4754
vt 0.6116 0.4555
vt 0.6212 0.2803
vt 0.5834 0.2796
vt 0.5816 0.4414
vt 0.5599 0.2106
vt 0.5748 0.1868
vt 0.5754 0.5694
vt 0.5687 0.7090
vt 0.5257 0.6882
vt 0.5315 0.5646
vt 0.4873 0.5394
vt 0.4837 0.6867
vt 0.4511 0.5997
vt 0.4492 0.5025
vt 0.4148 0.5266
vt 0.4200 0.6573
vt 0.3816 0.6795
vt 0.3777 0.5418
vt 0.3402 0.5451
vt 0.3415 0.6768
vt 0.3062 0.6335
vt 0.2987 0.5458
vt 0.4099 0.3824
vt 0.3754 0.4379
vt 0.3401 0.4307
vt 0.2989 0.4339
vt 0.5905 0.8255
vt 0.6711 0.9032
vt 0.4311 0.9476
vt 0.5119 0.8276
vt 0.1414 0.8687
vt 0.2494 0.8777
vt 0.3180 0.8023
vt 0.2692 0.7072
vt 0.4509 0.7739
vt 0.3896 0.8223
vt 0.4913 0.2871
vt 0.4451 0.2947
vt 0.2313 0.2980
vt 0.1930 0.2559
vt 0.6069 0.1254
vt 0.5862 0.1949
vt 0.6754 0.1289
vt 0.6392 0.1198
vt 0.7399 0.1451
vt 0.7079 0.1400
vt 0.1540 0.1678
vt 0.1261 0.1516
vt 0.2663 0.5854
vt 0.2574 0.3342
vt 0.5175 0.2402
vt 0.5095 0.5546
vt 0.4771 0.8057
vt 0.3986 0.8842
vt 0.2920 0.8468
vt 0.5044 0.6848
vt 0.1697 0.2420
vt 0.1812 0.2626
vt 0.7941 0.7085
vt 0.8279 0.7425
vt 0.7887 0.8687
vt 0.7734 0.1516
vt 0.7818 0.3171
vt 0.7858 0.4946
vt 0.7873 0.6059
vt 0.5820 0.9550
vt 0.7658 0.0543
vt 0.7388 0.0566
vt 0.7137 0.0568
vt 0.7389 0.0590
vt 0.6369 0.0159
vt 0.6310 0.0217
vt 0.7664 0.0567
vt 0.6892 0.0440
vt 0.6609 0.0285
vt 0.7140 0.0546
vt 0.6597 0.0306
vt 0.6885 0.0461
vt 0.1185 0.0543
vt 0.1398 0.0510
vt 0.1434 0.0585
vt 0.1191 0.0567
vn 0.9743 -0.1572 -0.1614
vn 0.9836 -0.1784 -0.0271
vn 0.7531 -0.6557 -0.0531
vn 0.7331 -0.6718 -0.1058
vn 0.9369 -0.1847 0.2968
vn 0.7515 -0.2307 0.6180
vn 0.6204 -0.5269 0.5810
vn 0.7142 -0.6399 0.2834
vn 0.9615 0.1233 0.2457
vn 0.7759 0.0847 0.6252
vn 0.7995 0.0580 0.5979
vn 0.9659 0.0803 0.2462
vn 0.4684 0.0968 0.8782
vn 0.0000 0.1067 0.9943
vn -0.0130 -0.0071 0.9999
vn 0.4802 0.0236 0.8768
vn 0.4640 -0.2969 0.8346
vn -0.0231 -0.3282 0.9443
vn -0.0115 -0.7201 0.6937
vn 0.3935 -0.6538 0.6463
vn -0.4821 -0.3167 0.8168
vn -0.7479 -0.2482 0.6156
vn -0.6449 -0.5436 0.5371
vn -0.4077 -0.6434 0.6479
vn -0.4684 0.0968 0.8782
vn -0.7759 0.0847 0.6251
vn -0.7949 0.0459 0.6049
vn -0.4805 -0.0033 0.8769
vn -0.9629 0.1125 0.2452
vn -0.7121 -0.6275 0.3148
vn -0.7143 -0.5177 0.4709
vn -0.9666 0.0792 0.2439
vn -0.9316 -0.2209 0.2887
vn -0.9803 -0.1960 -0.0245
vn -0.7543 -0.6564 -0.0147
vn -0.6846 -0.6669 0.2944
vn -0.9501 -0.1588 -0.2684
vn -0.6925 -0.1803 -0.6985
vn -0.6125 -0.5289 -0.5875
vn -0.6855 -0.6936 -0.2213
vn -0.3036 -0.2261 -0.9256
vn -0.0011 -0.2366 -0.9716
vn 0.0062 -0.6765 -0.7364
vn -0.3386 -0.6367 -0.6927
vn 0.3801 -0.1852 -0.9062
vn 0.7371 -0.1116 -0.6665
vn 0.6106 -0.4789 -0.6307
vn 0.3644 -0.6277 -0.6878
vn -0.5605 -0.6930 -0.4534
vn -0.1160 -0.8699 -0.4794
vn 0.3044 -0.8312 -0.4652
vn 0.7413 -0.6619 -0.1113
vn -0.3829 -0.8747 0.2972
vn -0.3885 -0.9214 -0.0003
vn 0.0000 -1.0000 -0.0001
vn 0.0000 -0.9528 0.3037
vn 0.3652 -0.8816 0.2990
vn 0.3772 -0.9260 -0.0150
vn 0.3651 -0.8947 -0.2573
vn 0.7573 -0.6078 -0.2387
vn -0.3543 -0.9049 -0.2357
vn 0.0124 -0.9622 -0.2720
vn -0.7319 -0.6735 0.1033
vn -0.4833 -0.8715 -0.0821
vn 0.6671 -0.6772 0.3104
vn 0.6322 -0.7660 0.1159
vn -0.4927 -0.0915 0.8654
vn -0.7599 -0.5857 0.2819
vn -0.4305 0.0168 0.9024
vn -0.7289 0.0195 0.6843
vn 0.4305 0.0168 0.9024
vn 0.0000 0.0187 0.9998
vn 0.4928 -0.0917 0.8653
vn 0.7289 0.0195 0.6843
vn 0.7582 -0.6060 0.2403
vn 0.9409 -0.1195 -0.3169
vn -0.7000 -0.6645 0.2613
vn -0.9674 -0.1622 -0.1946
vn -0.3669 -0.9295 -0.0358
vn 0.0074 -0.9966 -0.0824
vn 0.3719 -0.9253 -0.0746
vn -0.7545 -0.6434 -0.1295
vn 0.7382 -0.3920 0.5489
vn 0.8877 -0.4050 0.2190
vn -0.9743 0.1565 0.1616
vn -0.7331 0.6718 0.1058
vn -0.7531 0.6557 0.0531
vn -0.9836 0.1778 0.0278
vn -0.9370 0.1845 -0.2966
vn -0.7142 0.6399 -0.2834
vn -0.6204 0.5269 -0.5810
vn -0.7515 0.2307 -0.6180
vn -0.9879 -0.0917 -0.1254
vn -0.9651 -0.0641 -0.2538
vn -0.7873 -0.0457 -0.6149
vn -0.7356 -0.0714 -0.6736
vn -0.4685 -0.1002 -0.8778
vn -0.4802 -0.0236 -0.8768
vn 0.0130 0.0071 -0.9999
vn 0.0000 -0.1108 -0.9938
vn -0.4640 0.2969 -0.8346
vn -0.3935 0.6538 -0.6463
vn 0.0115 0.7201 -0.6937
vn 0.0231 0.3282 -0.9443
vn 0.4821 0.3167 -0.8168
vn 0.4077 0.6434 -0.6479
vn 0.6449 0.5436 -0.5371
vn 0.7479 0.2482 -0.6156
vn 0.4685 -0.1002 -0.8778
vn 0.4805 0.0033 -0.8769
vn 0.7825 -0.0336 -0.6218
vn 0.7356 -0.0714 -0.6736
vn 0.9867 -0.0812 -0.1406
vn 0.9656 -0.0638 -0.2520
vn 0.7566 -0.5319 0.3802
vn 0.4645 -0.7503 0.4704
vn 0.9317 0.2206 -0.2885
vn 0.6846 0.6669 -0.2944
vn 0.7543 0.6564 0.0147
vn 0.9804 0.1955 0.0249
vn 0.9502 0.1585 0.2682
vn 0.6855 0.6936 0.2213
vn 0.6125 0.5289 0.5875
vn 0.6926 0.1800 0.6985
vn 0.3035 0.2261 0.9256
vn 0.3386 0.6367 0.6927
vn -0.0062 0.6765 0.7364
vn 0.0009 0.2366 0.9716
vn -0.3802 0.1852 0.9062
vn -0.3644 0.6277 0.6878
vn -0.6106 0.4789 0.6307
vn -0.7374 0.1114 0.6662
vn -0.0092 -0.4566 0.8896
vn -0.0332 -0.4176 0.9080
vn -0.2494 -0.5768 0.7778
vn -0.5344 -0.4860 0.6915
vn 0.3829 0.8747 -0.2972
vn 0.0000 0.9528 -0.3037
vn 0.0000 1.0000 0.0001
vn 0.3885 0.9214 0.0003
vn -0.3652 0.8816 -0.2990
vn -0.3772 0.9260 0.0150
vn -0.3651 0.8947 0.2573
vn -0.7573 0.6078 0.2387
vn 0.3543 0.9049 0.2357
vn -0.0124 0.9622 0.2720
vn 0.7986 -0.5074 0.3235
vn 0.4031 -0.6130 0.6795
vn -0.7006 -0.5766 0.4201
vn -0.6606 -0.7361 0.1470
vn 0.9400 -0.1437 0.3094
vn 0.3097 -0.5856 0.7491
vn 0.4310 -0.0200 -0.9021
vn 0.6774 -0.0177 -0.7354
vn -0.4310 -0.0200 -0.9021
vn 0.0000 -0.0222 -0.9997
vn -0.9393 -0.1429 0.3118
vn -0.6774 -0.0177 -0.7354
vn -0.9411 0.1190 0.3163
vn -0.5381 -0.5515 0.6374
vn 0.6576 -0.6185 0.4302
vn 0.9675 0.1617 0.1943
vn 0.3669 0.9295 0.0358
vn -0.0074 0.9966 0.0824
vn -0.3719 0.9253 0.0746
vn 0.7545 0.6434 0.1295
vn -0.4174 -0.3619 0.8336
vn -0.6692 -0.6437 0.3712
vn 0.5115 -0.4439 0.7357
vn 0.3291 -0.4176 0.8469
vn -0.0001 -0.8724 -0.4887
vn -0.2588 -0.8860 -0.3847
vn -0.4058 -0.3067 0.8609
vn 0.7479 -0.5546 0.3646
vn -0.4548 -0.8691 -0.1942
vn -0.3290 -0.4179 0.8468
vn -0.5114 -0.4441 0.7357
vn 0.0001 -0.4147 0.9100
vn 0.4550 -0.8690 -0.1944
vn 0.2588 -0.8859 -0.3849
vn 0.4059 -0.3066 0.8610
vn -0.7479 -0.5547 0.3646
usemtl Material
s 1
f 80/1/1 27/2/2 9/3/3 76/4/4
f 51/5/5 24/6/6 3/7/7 44/8/8
f 53/9/9 31/10/10 10/11/11 47/12/12
f 62/13/13 34/14/14 19/15/15 57/16/16
f 61/17/17 28/18/18 12/19/19 55/20/20
f 72/21/21 25/22/22 6/23/23 66/24/24
f 73/25/25 32/26/26 13/27/27 68/28/28
f 52/29/29 35/30/30 20/31/31 48/32/32
f 50/33/33 29/34/34 15/35/35 46/36/36
f 41/37/37 26/38/38 4/39/39 37/40/40
f 71/41/41 30/42/42 17/43/43 67/44/44
f 60/45/45 22/46/46 1/47/47 56/48/48
f 69/49/49 21/50/50 30/42/42 71/41/41
f 58/51/51 8/52/52 22/46/46 60/45/45
f 75/53/53 70/54/54 23/55/55 49/56/56
f 64/57/57 59/58/58 9/3/3 44/8/8
f 63/59/59 56/48/48 1/47/47 36/60/60
f 74/61/61 67/44/44 17/43/43 40/62/62
f 39/63/63 16/64/64 26/38/38 41/37/37
f 48/32/32 20/31/31 29/34/34 50/33/33
f 68/28/28 13/27/27 25/22/22 72/21/21
f 57/16/16 19/15/15 28/18/18 61/17/17
f 47/12/12 10/11/11 24/6/6 51/5/5
f 77/65/65 18/66/66 27/2/2 80/1/1
f 45/67/67 14/68/68 35/30/30 52/29/29
f 65/69/69 5/70/70 32/26/26 73/25/25
f 54/71/71 11/72/72 34/14/14 62/13/13
f 43/73/73 2/74/74 31/10/10 53/9/9
f 8/52/52 38/75/75 42/76/76 22/46/46
f 78/77/77 39/63/63 41/37/37 82/78/78
f 84/79/79 74/61/61 40/62/62 79/80/80
f 83/81/81 63/59/59 36/60/60 76/4/4
f 82/78/78 41/37/37 37/40/40 81/82/82
f 22/46/46 42/76/76 36/60/60 1/47/47
f 7/83/83 43/73/73 53/9/9 33/84/84
f 5/70/70 45/67/67 52/29/29 32/26/26
f 18/66/66 47/12/12 51/5/5 27/2/2
f 13/27/27 48/32/32 50/33/33 25/22/22
f 55/20/20 64/85/57 44/86/8 3/87/7
f 66/24/24 75/53/53 49/56/56 12/19/19
f 25/22/22 50/33/33 46/36/36 6/23/23
f 32/26/26 52/29/29 48/32/32 13/27/27
f 33/84/84 53/9/9 47/12/12 18/66/66
f 27/2/2 51/5/5 44/8/8 9/3/3
f 12/19/19 49/56/56 64/85/57 55/20/20
f 79/80/80 40/62/62 63/59/59 83/81/81
f 2/88/74 54/71/71 62/13/13 31/89/10
f 10/90/11 57/16/16 61/17/17 24/91/6
f 40/62/62 17/43/43 56/48/48 63/59/59
f 49/56/56 23/55/55 59/92/58 64/85/57
f 21/50/50 58/51/51 60/45/45 30/42/42
f 30/42/42 60/45/45 56/48/48 17/43/43
f 24/91/6 61/17/17 55/20/20 3/87/7
f 31/89/10 62/13/13 57/16/16 10/90/11
f 6/23/23 46/36/36 75/53/53 66/24/24
f 81/82/82 37/40/40 74/61/61 84/79/79
f 11/72/72 65/69/69 73/25/25 34/14/14
f 19/15/15 68/28/28 72/21/21 28/18/18
f 37/40/40 4/39/39 67/44/44 74/61/61
f 46/36/36 15/35/35 70/54/54 75/53/53
f 16/64/64 69/49/49 71/41/41 26/38/38
f 26/38/38 71/41/41 67/44/44 4/39/39
f 34/14/14 73/25/25 68/28/28 19/15/15
f 28/18/18 72/21/21 66/24/24 12/19/19
f 15/35/35 81/82/82 84/79/79 70/54/54
f 23/55/55 79/80/80 83/81/81 59/58/58
f 29/34/34 82/78/78 81/82/82 15/35/35
f 59/58/58 83/81/81 76/4/4 9/3/3
f 70/54/54 84/79/79 79/80/80 23/55/55
f 20/31/31 78/77/77 82/78/78 29/34/34
f 38/75/75 77/65/65 80/1/1 42/76/76
f 42/76/76 80/1/1 76/4/4 36/60/60
f 164/93/85 160/94/86 93/95/87 111/96/88
f 135/97/89 128/98/90 87/99/91 108/100/92
f 137/101/93 131/102/94 94/103/95 115/104/96
f 146/105/97 141/106/98 103/107/99 118/108/100
f 145/109/101 139/110/102 96/111/103 112/112/104
f 156/113/105 150/114/106 90/115/107 109/116/108
f 157/117/109 152/118/110 97/119/111 116/120/112
f 136/121/113 132/122/114 104/123/115 119/124/116
f 134/125/117 130/126/118 99/127/119 113/128/120
f 125/129/121 121/130/122 88/131/123 110/132/124
f 155/133/125 151/134/126 101/135/127 114/136/128
f 144/137/129 140/138/130 85/139/131 106/140/132
f 153/141/133 155/133/125 114/136/128 105/142/134
f 142/143/135 144/137/129 106/140/132 92/144/136
f 159/145/137 133/146/138 107/147/139 154/148/140
f 148/149/141 128/98/90 93/95/87 143/150/142
f 147/151/143 120/152/144 85/139/131 140/138/130
f 158/153/145 124/154/146 101/135/127 151/134/126
f 123/155/147 125/129/121 110/132/124 100/156/148
f 132/122/114 134/125/117 113/128/120 104/123/115
f 152/118/110 156/113/105 109/116/108 97/119/111
f 141/106/98 145/109/101 112/112/104 103/107/99
f 131/102/94 135/97/89 108/100/92 94/103/95
f 161/157/149 164/93/85 111/96/88 102/158/150
f 129/159/151 136/121/113 119/124/116 98/160/152
f 149/161/153 157/117/109 116/120/112 89/162/154
f 138/163/155 146/105/97 118/108/100 95/164/156
f 127/165/157 137/101/93 115/104/96 86/166/158
f 92/144/136 106/140/132 126/167/159 122/168/160
f 162/169/161 166/170/162 125/129/121 123/155/147
f 168/171/163 163/172/164 124/154/146 158/153/145
f 167/173/165 160/94/86 120/152/144 147/151/143
f 166/170/162 165/174/166 121/130/122 125/129/121
f 106/140/132 85/139/131 120/152/144 126/167/159
f 91/175/167 117/176/168 137/101/93 127/165/157
f 89/162/154 116/120/112 136/121/113 129/159/151
f 102/158/150 111/96/88 135/97/89 131/102/94
f 97/119/111 109/116/108 134/125/117 132/122/114
f 139/110/102 87/177/91 128/178/90 148/179/141
f 150/114/106 96/111/103 133/146/138 159/145/137
f 109/116/108 90/115/107 130/126/118 134/125/117
f 116/120/112 97/119/111 132/122/114 136/121/113
f 117/176/168 102/158/150 131/102/94 137/101/93
f 111/96/88 93/95/87 128/98/90 135/97/89
f 96/111/103 139/110/102 148/179/141 133/146/138
f 163/172/164 167/173/165 147/151/143 124/154/146
f 86/180/158 115/181/96 146/105/97 138/163/155
f 94/182/95 108/183/92 145/109/101 141/106/98
f 124/154/146 147/151/143 140/138/130 101/135/127
f 133/146/138 148/179/141 143/184/142 107/147/139
f 105/142/134 114/136/128 144/137/129 142/143/135
f 114/136/128 101/135/127 140/138/130 144/137/129
f 108/183/92 87/177/91 139/110/102 145/109/101
f 115/181/96 94/182/95 141/106/98 146/105/97
f 90/115/107 150/114/106 159/145/137 130/126/118
f 165/174/166 168/171/163 158/153/145 121/130/122
f 95/164/156 118/108/100 157/117/109 149/161/153
f 103/107/99 112/112/104 156/113/105 152/118/110
f 121/130/122 158/153/145 151/134/126 88/131/123
f 130/126/118 159/145/137 154/148/140 99/127/119
f 100/156/148 110/132/124 155/133/125 153/141/133
f 110/132/124 88/131/123 151/134/126 155/133/125
f 118/108/100 103/107/99 152/118/110 157/117/109
f 112/112/104 96/111/103 150/114/106 156/113/105
f 99/127/119 154/148/140 168/171/163 165/174/166
f 107/147/139 143/150/142 167/173/165 163/172/164
f 113/128/120 99/127/119 165/174/166 166/170/162
f 143/150/142 93/95/87 160/94/86 167/173/165
f 154/148/140 107/147/139 163/172/164 168/171/163
f 104/123/115 113/128/120 166/170/162 162/169/161
f 122/168/160 126/167/159 164/93/85 161/157/149
f 126/167/159 120/152/144 160/94/86 164/93/85
f 14/68/68 45/67/67 129/159/151 98/160/152
f 18/66/66 77/65/65 161/157/149 102/158/150
f 7/83/83 33/84/84 117/176/168 91/175/167
f 8/52/52 58/51/51 142/143/135 92/144/136
f 54/71/71 2/88/74 172/185/169 171/186/170
f 38/75/75 8/52/52 92/144/136 122/168/160
f 35/30/30 14/68/68 98/160/152 119/124/116
f 77/65/65 38/75/75 122/168/160 161/157/149
f 16/64/64 39/63/63 123/155/147 100/156/148
f 78/77/77 20/31/31 104/123/115 162/169/161
f 138/163/155 95/164/156 177/187/171 178/188/172
f 129/159/151 45/67/67 173/189/173 180/190/174
f 33/84/84 18/66/66 102/158/150 117/176/168
f 39/63/63 78/77/77 162/169/161 123/155/147
f 20/31/31 35/30/30 119/124/116 104/123/115
f 86/180/158 138/163/155 178/188/172 179/191/175
f 5/70/70 65/69/69 169/192/176 174/193/177
f 43/73/73 7/83/83 91/175/167 127/165/157
f 21/50/50 69/49/49 153/141/133 105/142/134
f 65/69/69 11/72/72 170/194/178 169/192/176
f 58/51/51 21/50/50 105/142/134 142/143/135
f 69/49/49 16/64/64 100/156/148 153/141/133
f 173/189/173 174/193/177 181/195/179 180/190/174
f 174/193/177 169/192/176 176/196/180 181/195/179
f 169/192/176 170/194/178 177/187/171 176/196/180
f 171/186/170 172/185/169 179/191/175 178/188/172
f 170/194/178 171/186/170 178/188/172 177/187/171
f 172/197/169 175/198/181 182/199/182 179/200/175
f 11/72/72 54/71/71 171/186/170 170/194/178
f 127/165/157 86/166/158 179/200/175 182/199/182
f 2/74/74 43/73/73 175/198/181 172/197/169
f 43/73/73 127/165/157 182/199/182 175/198/181
f 89/162/154 129/159/151 180/190/174 181/195/179
f 45/67/67 5/70/70 174/193/177 173/189/173
f 149/161/153 89/162/154 181/195/179 176/196/180
f 95/164/156 149/161/153 176/196/180 177/187/171
