<svg id="Layer_2" data-name="Layer 2" xmlns="http://www.w3.org/2000/svg" viewBox="0 0 100 100"><defs><style>.cls-1{fill:#7f6cb3;}.cls-2{fill:#8372c2;}.cls-3{fill:#685892;}.cls-4{fill:#6f60a4;}.cls-5{fill:#fbfbfb;}.cls-6{fill:#fff;}</style></defs><title>Artboard 1</title><polygon class="cls-1" points="23.24 21.89 11.6 50 23.24 78.11 51.35 89.75 51.35 10.25 23.24 21.89"/><polygon class="cls-2" points="88.4 50 77.16 78.11 50 89.75 50 10.25 77.16 21.89 88.4 50"/><polygon class="cls-3" points="50 2.13 16.15 16.15 2.13 50 16.15 83.85 50 97.88 50 87.05 23.8 76.2 12.95 50 23.8 23.8 50 12.95 50 2.13"/><polygon class="cls-4" points="50 2.13 83.85 16.15 97.88 50 83.85 83.85 50 97.88 50 87.05 76.2 76.2 87.05 50 76.2 23.8 50 12.95 50 2.13"/><path class="cls-1" d="M29.2,76a1,1,0,0,0-.24,0,2,2,0,0,0-.48,3.66l.39.2a2,2,0,1,0,2-3.45l-.38-.21L30,79.91l.23,0a2,2,0,0,0,1.4-2.46A2.07,2.07,0,0,0,29.2,76Z"/><path class="cls-2" d="M70.77,76.32l-.87-.11a2,2,0,0,0-2,2,2.06,2.06,0,0,0,2,2l.87.11a2,2,0,0,0,2-2,2,2,0,0,0-2-2Z"/><path class="cls-5" d="M42.63,65.16a1.23,1.23,0,0,0-1.05-.48,1.25,1.25,0,0,0-1.06.48,2.25,2.25,0,0,0-.37,1.4,2,2,0,0,0,.37,1.36,1.34,1.34,0,0,0,1.06.42,1.4,1.4,0,0,0,.54-.1,1.12,1.12,0,0,0,.45-.32,1.67,1.67,0,0,0,.31-.56,2.66,2.66,0,0,0,.11-.8A2.31,2.31,0,0,0,42.63,65.16Zm0,0a1.23,1.23,0,0,0-1.05-.48,1.25,1.25,0,0,0-1.06.48,2.25,2.25,0,0,0-.37,1.4,2,2,0,0,0,.37,1.36,1.34,1.34,0,0,0,1.06.42,1.4,1.4,0,0,0,.54-.1,1.12,1.12,0,0,0,.45-.32,1.67,1.67,0,0,0,.31-.56,2.66,2.66,0,0,0,.11-.8A2.31,2.31,0,0,0,42.63,65.16Zm0,0a1.23,1.23,0,0,0-1.05-.48,1.25,1.25,0,0,0-1.06.48,2.25,2.25,0,0,0-.37,1.4,2,2,0,0,0,.37,1.36,1.34,1.34,0,0,0,1.06.42,1.4,1.4,0,0,0,.54-.1,1.12,1.12,0,0,0,.45-.32,1.67,1.67,0,0,0,.31-.56,2.66,2.66,0,0,0,.11-.8A2.31,2.31,0,0,0,42.63,65.16Zm0,0a1.23,1.23,0,0,0-1.05-.48,1.25,1.25,0,0,0-1.06.48,2.25,2.25,0,0,0-.37,1.4,2,2,0,0,0,.37,1.36,1.34,1.34,0,0,0,1.06.42,1.4,1.4,0,0,0,.54-.1,1.12,1.12,0,0,0,.45-.32,1.67,1.67,0,0,0,.31-.56,2.66,2.66,0,0,0,.11-.8A2.31,2.31,0,0,0,42.63,65.16Zm0,0a1.23,1.23,0,0,0-1.05-.48,1.25,1.25,0,0,0-1.06.48,2.25,2.25,0,0,0-.37,1.4,2,2,0,0,0,.37,1.36,1.34,1.34,0,0,0,1.06.42,1.4,1.4,0,0,0,.54-.1,1.12,1.12,0,0,0,.45-.32,1.67,1.67,0,0,0,.31-.56,2.66,2.66,0,0,0,.11-.8A2.31,2.31,0,0,0,42.63,65.16Zm0,0a1.23,1.23,0,0,0-1.05-.48,1.25,1.25,0,0,0-1.06.48,2.25,2.25,0,0,0-.37,1.4,2,2,0,0,0,.37,1.36,1.34,1.34,0,0,0,1.06.42,1.4,1.4,0,0,0,.54-.1,1.12,1.12,0,0,0,.45-.32,1.67,1.67,0,0,0,.31-.56,2.66,2.66,0,0,0,.11-.8A2.31,2.31,0,0,0,42.63,65.16Zm0,0a1.23,1.23,0,0,0-1.05-.48,1.25,1.25,0,0,0-1.06.48,2.25,2.25,0,0,0-.37,1.4,2,2,0,0,0,.37,1.36,1.34,1.34,0,0,0,1.06.42,1.4,1.4,0,0,0,.54-.1,1.12,1.12,0,0,0,.45-.32,1.67,1.67,0,0,0,.31-.56,2.66,2.66,0,0,0,.11-.8A2.31,2.31,0,0,0,42.63,65.16Zm26.36,7a1.26,1.26,0,0,0-1-.34H65.58v2.38h2.34A1.43,1.43,0,0,0,69,73.82,1.25,1.25,0,0,0,69.3,73,1.2,1.2,0,0,0,69,72.11Zm0,0a1.26,1.26,0,0,0-1-.34H65.58v2.38h2.34A1.43,1.43,0,0,0,69,73.82,1.25,1.25,0,0,0,69.3,73,1.2,1.2,0,0,0,69,72.11Zm-26.36-7a1.23,1.23,0,0,0-1.05-.48,1.25,1.25,0,0,0-1.06.48,2.25,2.25,0,0,0-.37,1.4,2,2,0,0,0,.37,1.36,1.34,1.34,0,0,0,1.06.42,1.4,1.4,0,0,0,.54-.1,1.12,1.12,0,0,0,.45-.32,1.67,1.67,0,0,0,.31-.56,2.66,2.66,0,0,0,.11-.8A2.31,2.31,0,0,0,42.63,65.16Zm0,0a1.23,1.23,0,0,0-1.05-.48,1.25,1.25,0,0,0-1.06.48,2.25,2.25,0,0,0-.37,1.4,2,2,0,0,0,.37,1.36,1.34,1.34,0,0,0,1.06.42,1.4,1.4,0,0,0,.54-.1,1.12,1.12,0,0,0,.45-.32,1.67,1.67,0,0,0,.31-.56,2.66,2.66,0,0,0,.11-.8A2.31,2.31,0,0,0,42.63,65.16ZM57,65.06l-.67,2.07h1.33Zm12,7a1.26,1.26,0,0,0-1-.34H65.58v2.38h2.34A1.43,1.43,0,0,0,69,73.82,1.25,1.25,0,0,0,69.3,73,1.2,1.2,0,0,0,69,72.11Zm0,0a1.26,1.26,0,0,0-1-.34H65.58v2.38h2.34A1.43,1.43,0,0,0,69,73.82,1.25,1.25,0,0,0,69.3,73,1.2,1.2,0,0,0,69,72.11Zm-12-7-.67,2.07h1.33Zm-14.38.1a1.23,1.23,0,0,0-1.05-.48,1.25,1.25,0,0,0-1.06.48,2.25,2.25,0,0,0-.37,1.4,2,2,0,0,0,.37,1.36,1.34,1.34,0,0,0,1.06.42,1.4,1.4,0,0,0,.54-.1,1.12,1.12,0,0,0,.45-.32,1.67,1.67,0,0,0,.31-.56,2.66,2.66,0,0,0,.11-.8A2.31,2.31,0,0,0,42.63,65.16ZM5.56,62l7.87,19H86.57l7.87-19Zm58.27,1.89h3.82v.91H64.88v1.11h2.55v.92H64.88v1.34h2.9v.93h-4Zm-12.2,0a2.32,2.32,0,0,1,1-.2,2.77,2.77,0,0,1,.89.14,2.18,2.18,0,0,1,.68.4,1.89,1.89,0,0,1,.45.6,2.33,2.33,0,0,1,.21.74H53.77a1.16,1.16,0,0,0-.42-.69,1.21,1.21,0,0,0-1.71.24,2.37,2.37,0,0,0-.32,1.34,2.51,2.51,0,0,0,.31,1.36,1.08,1.08,0,0,0,1,.48,1.17,1.17,0,0,0,.78-.26,1.42,1.42,0,0,0,.4-.76h1.09a3.21,3.21,0,0,1-.27.81,2.45,2.45,0,0,1-.48.62,2,2,0,0,1-.66.39,2.23,2.23,0,0,1-.83.15,2.47,2.47,0,0,1-.95-.18,2,2,0,0,1-.77-.51,2.55,2.55,0,0,1-.5-.85,3.28,3.28,0,0,1-.19-1.18,4,4,0,0,1,.17-1.19,2.45,2.45,0,0,1,.48-.89A2,2,0,0,1,51.63,63.92Zm-6.63,0,.85,3.37.73-3.37h1.14l.79,3.37.85-3.37h1.11L49,69.1H48l-.8-3.39-.83,3.39h-1l-1.47-5.21Zm-5.76,1.47a2.33,2.33,0,0,1,.49-.89,2,2,0,0,1,.78-.56,3.08,3.08,0,0,1,2.13,0,2.11,2.11,0,0,1,.78.56,2.59,2.59,0,0,1,.48.9,4.34,4.34,0,0,1,.16,1.19,2.84,2.84,0,0,1-.64,2,2.79,2.79,0,0,1-3.7,0,2.91,2.91,0,0,1-.64-2A3.92,3.92,0,0,1,39.24,65.36Zm-4.66-1.47h1.09v2h2v-2h1.09V69.1H37.7V66.76h-2V69.1H34.58Zm-1.32,3.58a.39.39,0,0,0-.12-.19.83.83,0,0,0-.25-.16,3.05,3.05,0,0,0-.41-.12c-.39-.08-.74-.17-1-.25a2.78,2.78,0,0,1-.71-.32,1.25,1.25,0,0,1-.42-.47,1.59,1.59,0,0,1-.13-.7,1.73,1.73,0,0,1,.11-.6,1.25,1.25,0,0,1,.37-.49,1.77,1.77,0,0,1,.59-.33,2.68,2.68,0,0,1,.85-.12,2.75,2.75,0,0,1,.84.12,1.93,1.93,0,0,1,.65.35,1.41,1.41,0,0,1,.42.54,1.76,1.76,0,0,1,.16.7h-1a.82.82,0,0,0-.29-.6,1.22,1.22,0,0,0-.75-.19q-.93,0-.93.63a.49.49,0,0,0,.19.38,1.74,1.74,0,0,0,.62.26l.87.21a4.73,4.73,0,0,1,.67.24,1.74,1.74,0,0,1,.33.18.92.92,0,0,1,.26.26,1.49,1.49,0,0,1,.17.38,2,2,0,0,1,.06.53,1.35,1.35,0,0,1-.16.67,1.38,1.38,0,0,1-.42.48,1.86,1.86,0,0,1-.63.31,2.68,2.68,0,0,1-.76.11,2.8,2.8,0,0,1-1.71-.44,1.63,1.63,0,0,1-.6-1.3h1.05a.76.76,0,0,0,.32.63,1.37,1.37,0,0,0,.8.23,1.36,1.36,0,0,0,.78-.19.59.59,0,0,0,.27-.51A.85.85,0,0,0,33.26,67.47Zm2.3,11.69H33.75l-1.38-5.81L31,79.16H29.2l-2.53-8.94h2L30.13,76l1.24-5.79h2L34.7,76l1.45-5.79h1.91Zm4.72,0H38.41V70.22h1.87Zm7.89,0H46.45l-3.82-6v6H40.89V70.22h2L46.42,76V70.22h1.75Zm7.89,0H54.34l-3.82-6v6H48.78V70.22h2L54.31,76V70.22h1.75ZM55.69,69.1H54.54l1.86-5.21h1.26l1.83,5.21H58.31L58,68H56.06Zm7.76,10.06H56.67V70.22h6.57v1.56H58.49V73.7h4.37v1.57H58.49v2.3h5Zm0-10.78a1.38,1.38,0,0,1-.42.48,1.86,1.86,0,0,1-.63.31,2.68,2.68,0,0,1-.76.11,2.8,2.8,0,0,1-1.71-.44,1.63,1.63,0,0,1-.6-1.3h1a.76.76,0,0,0,.32.63,1.59,1.59,0,0,0,1.58,0,.59.59,0,0,0,.27-.51.85.85,0,0,0,0-.23.39.39,0,0,0-.12-.19,1,1,0,0,0-.25-.16,3.05,3.05,0,0,0-.41-.12c-.4-.08-.74-.17-1-.25a3,3,0,0,1-.72-.32,1.31,1.31,0,0,1-.41-.47,1.59,1.59,0,0,1-.13-.7,1.73,1.73,0,0,1,.11-.6,1.33,1.33,0,0,1,.36-.49,1.93,1.93,0,0,1,.6-.33,2.68,2.68,0,0,1,.85-.12,2.75,2.75,0,0,1,.84.12,1.93,1.93,0,0,1,.65.35,1.41,1.41,0,0,1,.42.54,1.76,1.76,0,0,1,.16.7h-1a.82.82,0,0,0-.29-.6,1.22,1.22,0,0,0-.75-.19q-.93,0-.93.63a.49.49,0,0,0,.19.38,1.74,1.74,0,0,0,.62.26l.87.21a5.22,5.22,0,0,1,.67.24,1.74,1.74,0,0,1,.33.18.92.92,0,0,1,.26.26,1.49,1.49,0,0,1,.17.38,2,2,0,0,1,.06.53A1.35,1.35,0,0,1,63.44,68.38Zm7.11,7.08a2.17,2.17,0,0,1,.25,1.17v2.53H69v-2.3a1.24,1.24,0,0,0-.29-.92,1.63,1.63,0,0,0-1.11-.28h-2v3.5H63.76V70.22H68.3a3.06,3.06,0,0,1,1.12.2,2.56,2.56,0,0,1,.87.54,2.14,2.14,0,0,1,.56.82,2.7,2.7,0,0,1,.2,1,2.39,2.39,0,0,1-.35,1.28,1.81,1.81,0,0,1-1,.79A1.46,1.46,0,0,1,70.55,75.46ZM68,71.77H65.58v2.38h2.34A1.43,1.43,0,0,0,69,73.82,1.25,1.25,0,0,0,69.3,73a1.2,1.2,0,0,0-.31-.86A1.26,1.26,0,0,0,68,71.77ZM56.34,67.13h1.33L57,65.06ZM41.58,68.34a1.4,1.4,0,0,0,.54-.1,1.12,1.12,0,0,0,.45-.32,1.67,1.67,0,0,0,.31-.56,2.66,2.66,0,0,0,.11-.8,2.31,2.31,0,0,0-.36-1.4,1.23,1.23,0,0,0-1.05-.48,1.25,1.25,0,0,0-1.06.48,2.25,2.25,0,0,0-.37,1.4,2,2,0,0,0,.37,1.36A1.34,1.34,0,0,0,41.58,68.34Zm1.05-3.18a1.23,1.23,0,0,0-1.05-.48,1.25,1.25,0,0,0-1.06.48,2.25,2.25,0,0,0-.37,1.4,2,2,0,0,0,.37,1.36,1.34,1.34,0,0,0,1.06.42,1.4,1.4,0,0,0,.54-.1,1.12,1.12,0,0,0,.45-.32,1.67,1.67,0,0,0,.31-.56,2.66,2.66,0,0,0,.11-.8A2.31,2.31,0,0,0,42.63,65.16Zm26.36,7a1.26,1.26,0,0,0-1-.34H65.58v2.38h2.34A1.43,1.43,0,0,0,69,73.82,1.25,1.25,0,0,0,69.3,73,1.2,1.2,0,0,0,69,72.11Zm0,0a1.26,1.26,0,0,0-1-.34H65.58v2.38h2.34A1.43,1.43,0,0,0,69,73.82,1.25,1.25,0,0,0,69.3,73,1.2,1.2,0,0,0,69,72.11Zm-26.36-7a1.23,1.23,0,0,0-1.05-.48,1.25,1.25,0,0,0-1.06.48,2.25,2.25,0,0,0-.37,1.4,2,2,0,0,0,.37,1.36,1.34,1.34,0,0,0,1.06.42,1.4,1.4,0,0,0,.54-.1,1.12,1.12,0,0,0,.45-.32,1.67,1.67,0,0,0,.31-.56,2.66,2.66,0,0,0,.11-.8A2.31,2.31,0,0,0,42.63,65.16Zm0,0a1.23,1.23,0,0,0-1.05-.48,1.25,1.25,0,0,0-1.06.48,2.25,2.25,0,0,0-.37,1.4,2,2,0,0,0,.37,1.36,1.34,1.34,0,0,0,1.06.42,1.4,1.4,0,0,0,.54-.1,1.12,1.12,0,0,0,.45-.32,1.67,1.67,0,0,0,.31-.56,2.66,2.66,0,0,0,.11-.8A2.31,2.31,0,0,0,42.63,65.16Zm26.36,7a1.26,1.26,0,0,0-1-.34H65.58v2.38h2.34A1.43,1.43,0,0,0,69,73.82,1.25,1.25,0,0,0,69.3,73,1.2,1.2,0,0,0,69,72.11Zm0,0a1.26,1.26,0,0,0-1-.34H65.58v2.38h2.34A1.43,1.43,0,0,0,69,73.82,1.25,1.25,0,0,0,69.3,73,1.2,1.2,0,0,0,69,72.11Zm-26.36-7a1.23,1.23,0,0,0-1.05-.48,1.25,1.25,0,0,0-1.06.48,2.25,2.25,0,0,0-.37,1.4,2,2,0,0,0,.37,1.36,1.34,1.34,0,0,0,1.06.42,1.4,1.4,0,0,0,.54-.1,1.12,1.12,0,0,0,.45-.32,1.67,1.67,0,0,0,.31-.56,2.66,2.66,0,0,0,.11-.8A2.31,2.31,0,0,0,42.63,65.16Zm0,0a1.23,1.23,0,0,0-1.05-.48,1.25,1.25,0,0,0-1.06.48,2.25,2.25,0,0,0-.37,1.4,2,2,0,0,0,.37,1.36,1.34,1.34,0,0,0,1.06.42,1.4,1.4,0,0,0,.54-.1,1.12,1.12,0,0,0,.45-.32,1.67,1.67,0,0,0,.31-.56,2.66,2.66,0,0,0,.11-.8A2.31,2.31,0,0,0,42.63,65.16Zm0,0a1.23,1.23,0,0,0-1.05-.48,1.25,1.25,0,0,0-1.06.48,2.25,2.25,0,0,0-.37,1.4,2,2,0,0,0,.37,1.36,1.34,1.34,0,0,0,1.06.42,1.4,1.4,0,0,0,.54-.1,1.12,1.12,0,0,0,.45-.32,1.67,1.67,0,0,0,.31-.56,2.66,2.66,0,0,0,.11-.8A2.31,2.31,0,0,0,42.63,65.16Zm0,0a1.23,1.23,0,0,0-1.05-.48,1.25,1.25,0,0,0-1.06.48,2.25,2.25,0,0,0-.37,1.4,2,2,0,0,0,.37,1.36,1.34,1.34,0,0,0,1.06.42,1.4,1.4,0,0,0,.54-.1,1.12,1.12,0,0,0,.45-.32,1.67,1.67,0,0,0,.31-.56,2.66,2.66,0,0,0,.11-.8A2.31,2.31,0,0,0,42.63,65.16Zm0,0a1.23,1.23,0,0,0-1.05-.48,1.25,1.25,0,0,0-1.06.48,2.25,2.25,0,0,0-.37,1.4,2,2,0,0,0,.37,1.36,1.34,1.34,0,0,0,1.06.42,1.4,1.4,0,0,0,.54-.1,1.12,1.12,0,0,0,.45-.32,1.67,1.67,0,0,0,.31-.56,2.66,2.66,0,0,0,.11-.8A2.31,2.31,0,0,0,42.63,65.16Z"/><path class="cls-6" d="M57.13,35.56a7.32,7.32,0,1,0,7.32,7.33A7.33,7.33,0,0,0,57.13,35.56Zm0,0a7.32,7.32,0,1,0,7.32,7.33A7.33,7.33,0,0,0,57.13,35.56Zm7.4-5.94V28.48A1.69,1.69,0,0,0,63.7,27a3.38,3.38,0,0,0-2.05-.6H52.12a3.37,3.37,0,0,0-2,.6,1.74,1.74,0,0,0-.83,1.44v1.14H39v-1.3a.53.53,0,0,0-.56-.5H32.84a.65.65,0,0,0-.69.62v1.18h-3.9v26H72.17v-26Zm-12.91-.75a1,1,0,0,1,1-1h9.1a1,1,0,0,1,1,1v.83h-11Zm-11.7,4.65H31.2V31.58h8.72ZM57.13,52.08a9.2,9.2,0,1,1,9.2-9.19A9.21,9.21,0,0,1,57.13,52.08Zm0-16.52a7.32,7.32,0,1,0,7.32,7.33A7.33,7.33,0,0,0,57.13,35.56Z"/><path class="cls-6" d="M64.45,42.89a7.33,7.33,0,1,1-7.32-7.33A7.31,7.31,0,0,1,64.45,42.89Z"/></svg>