<svg id="Layer_1" data-name="Layer 1" xmlns="http://www.w3.org/2000/svg" viewBox="0 0 575 575"><defs><style>.cls-1{fill:#d5b034;}.cls-2{fill:#d3a129;}.cls-3{fill:#fdfefe;}.cls-4{fill:#959ea5;}.cls-5{fill:#c69624;}</style></defs><title>Artboard 1</title><polygon class="cls-1" points="401.85 353 428.84 510.39 287.5 436.08 287.5 75.39 358.17 218.59 516.19 241.56 401.85 353"/><polygon class="cls-2" points="287.5 75.39 287.5 436.08 146.16 510.39 173.15 353 58.81 241.56 216.83 218.59 287.5 75.39"/><path class="cls-3" d="M187.07,401.75s-1.76,73.29-2.78,88.6q0,.48-.06.9c-.43,5.63-4.87,12.83-10.12,19.5a178.12,178.12,0,0,1-17.54,18.85A9.25,9.25,0,0,1,157,533L113,556.05H113l8.55-49.89,15.73-91.73a122.74,122.74,0,0,1,27-9.37A134.26,134.26,0,0,1,187.07,401.75Z"/><path class="cls-3" d="M462,556.1l-44.83-23.58-.1,0a8,8,0,0,1,.41-2.85A179,179,0,0,1,400,510.8h0c-5.25-6.67-9.69-13.87-10.12-19.5,0-.42-.07-.9-.1-1.44-1-16.41-2.74-88.06-2.74-88.06a134,134,0,0,1,23.8,3.54,120.59,120.59,0,0,1,27,9.65l15.64,91.18Z"/><path class="cls-4" d="M287.09,396v68.5l-.09,0-110.32,58c-.89-4.53-1.76-8.69-2.57-11.85-.18-.71-.36-1.39-.54-2-.63-4-1.08-8-1.38-12.05-3.2-44.18,12.13-90.93,14.88-94.95,14-6.5,68.38-9.5,68.38-9.5l23.12,4.29S282,396.36,287.09,396Z"/><path class="cls-4" d="M401.92,496.24c-.28,4.22-.74,8.42-1.4,12.55-.18.61-.36,1.28-.54,2-.79,3.06-1.63,7-2.48,11.37l-110-57.84-.41.22-.09,0v-68.5a.15.15,0,0,1,.09,0c5.06.3,8.43.47,8.43.47l23.12-4.28s54.38,3,68.38,9.5C389.76,405.8,405,452.21,401.92,496.24Z"/><path class="cls-3" d="M354.11,377c-3.62,4.65-14.87,11.84-23.3,16.48.36,6.26-5.29,7.94-9.51,9.4a86,86,0,0,1-22.11,4.24c-3.78.26-7.54.49-11.29.64v0c-.14,0-.27,0-.4,0s-.26,0-.4,0v0c-3.75-.15-7.51-.38-11.29-.64a86,86,0,0,1-22.11-4.24c-4.22-1.46-9.87-3.14-9.51-9.4-8.43-4.64-19.68-11.83-23.3-16.48-6-7.69-8.34-99.57-5.75-112.64a23,23,0,0,1,2.13-6.21c6.47-12.93,18.08-18.69,32-22,6.08-1.45,21.42-2.2,38.25-2.15s32.17.7,38.25,2.15c13.9,3.32,25.51,9.08,32,22a23,23,0,0,1,2.13,6.21C362.45,277.42,360.11,369.3,354.11,377Z"/><path d="M287.06,364.63c-14.68-.39-25.67-6.86-32.49-20A20.44,20.44,0,0,1,253,340.3a3.27,3.27,0,0,1,3.46-4.18,3.05,3.05,0,0,1,2.66,2.37,27.51,27.51,0,0,0,15.59,16.69c14.12,6.2,31.26,1.37,38.94-13.1A27.71,27.71,0,0,0,315,338.7c.78-2.12,2.2-3,4-2.45a3.54,3.54,0,0,1,2.08,4.55,32.74,32.74,0,0,1-9,14.16,35.45,35.45,0,0,1-21.25,9.65A37,37,0,0,1,287.06,364.63Z"/><path d="M273.81,290a17.49,17.49,0,0,1-2.74,10.05c-2.67,3.93-6.55,4-9.25,0-3.64-5.3-3.74-14.54-.23-19.88,2.72-4.14,6.89-4.15,9.65,0A18,18,0,0,1,273.81,290Z"/><path d="M315,289.59c-.08,4-.7,7.47-2.81,10.48-1.07,1.52-2.32,2.77-4.36,2.88-2.24.13-3.63-1.13-4.79-2.79-2.42-3.41-3-7.31-2.81-11.37a16.76,16.76,0,0,1,2-7.67,11.68,11.68,0,0,1,1.46-2.11,4.88,4.88,0,0,1,7.7-.08,14.24,14.24,0,0,1,3.33,7.73C314.91,287.77,315,288.91,315,289.59Z"/><path class="cls-5" d="M287.5,75.39V18.9L200.23,195.73l-145,21.08L5.09,224.1l36.27,35.35L146.29,361.73l-9,52.7-15.73,91.73L113,556.05v.05l.08-.05L157,533l.81-.43,18.89-9.92,110.32-58,.09,0,.41-.22V436.08l-.41.22-.09.05-102.71,54-12.1,6.35-26,13.69,18.06-105.33L173.15,353,58.81,241.55l158-23Z"/><path class="cls-2" d="M569.91,224.1l-50.12-7.29-145-21.08L287.5,18.9V75.39l70.67,143.19,158,23L401.85,353l9,52.33,18,105.06-26.92-14.15-12.16-6.39L287.5,436.08v28.24l110,57.84,19.61,10.31.1,0L462,556.1l-8.56-49.94L437.84,415l-9.13-53.25L533.64,259.45Z"/></svg>